<?xml version="1.0" encoding="UTF-8" standalone="no"?>
<svg
   xmlns:dc="http://purl.org/dc/elements/1.1/"
   xmlns:cc="http://creativecommons.org/ns#"
   xmlns:rdf="http://www.w3.org/1999/02/22-rdf-syntax-ns#"
   xmlns:svg="http://www.w3.org/2000/svg"
   xmlns="http://www.w3.org/2000/svg"
   xmlns:sodipodi="http://sodipodi.sourceforge.net/DTD/sodipodi-0.dtd"
   xmlns:inkscape="http://www.inkscape.org/namespaces/inkscape"
   width="78.966644mm"
   height="71.010727mm"
   viewBox="0 0 78.966644 71.010727"
   version="1.1"
   id="svg8"
   sodipodi:docname="OpenSourseHardwarePride.svg"
   inkscape:version="0.92.4 (5da689c313, 2019-01-14)">
  <sodipodi:namedview
     pagecolor="#ffffff"
     bordercolor="#666666"
     borderopacity="1"
     objecttolerance="10"
     gridtolerance="10"
     guidetolerance="10"
     inkscape:pageopacity="0"
     inkscape:pageshadow="2"
     inkscape:window-width="1600"
     inkscape:window-height="837"
     id="namedview831"
     showgrid="false"
     inkscape:zoom="2.4889432"
     inkscape:cx="149.2283"
     inkscape:cy="134.1935"
     inkscape:window-x="1912"
     inkscape:window-y="163"
     inkscape:window-maximized="1"
     inkscape:current-layer="svg8" />
  <defs
     id="defs2">
    <style
       id="style3713"
       type="text/css"><![CDATA[
    .str0 {stroke:black;stroke-width:3;stroke-miterlimit:2.61313}
    .fil0 {fill:none}
   ]]></style>
  </defs>
  <metadata
     id="metadata5">
    <rdf:RDF>
      <cc:Work
         rdf:about="">
        <dc:format>image/svg+xml</dc:format>
        <dc:type
           rdf:resource="http://purl.org/dc/dcmitype/StillImage" />
        <dc:title />
      </cc:Work>
    </rdf:RDF>
  </metadata>
  <path
     id="rect5082"
     d="m 0.2144365,34.770948 0.236678,10.129612 9.382889,1.892393 0.01551,0.04341 c 1.5067705,3.781619 0.7673445,2.750738 2.9729455,7.417636 l 0.01913,0.04289 -5.4472135,8.525579 c 0.616792,0.701161 2.281759,2.455311 3.9785695,4.146517 0.857581,0.85475 1.718199,1.687595 2.445329,2.351278 0.71133,0.649259 1.286934,1.119844 1.599904,1.297078 l 8.140586,-5.16971 0.03876,0.01344 c 1.689489,0.60359 3.012109,1.739809 4.746479,2.06654 l 1.641761,-4.022494 z"
     style="fill:#da0000;fill-opacity:1;fill-rule:evenodd;stroke:none;stroke-width:0;stroke-linejoin:round;stroke-miterlimit:2.61313009;stroke-dasharray:none;stroke-opacity:1" />
  <path
     id="rect5082-3"
     d="m 12.913918,24.802564 c -0.01252,0.119518 -0.02961,0.240369 -0.05219,0.363284 -0.347821,1.893112 -1.876393,4.222821 -2.740403,6.139161 l -0.01757,0.03876 -9.9218755,2.037085 0.03256,1.390097 29.7713085,28.734162 5.892662,-14.438394 c -1.153938,-0.77615 -2.088099,-0.926018 -3.039089,-1.798857 -2.36987,-2.17488 -3.5571,-4.596858 -3.848862,-6.948929 z m 32.345306,31.218248 4.843648,11.577071 4.471035,-2.04897 1.590092,0.996838 z"
     style="fill:#ff6600;fill-opacity:1;fill-rule:evenodd;stroke:none;stroke-width:0;stroke-linejoin:round;stroke-miterlimit:2.61313009;stroke-dasharray:none;stroke-opacity:1" />
  <path
     id="rect5082-3-3"
     d="M 15.636231,7.4046599 7.6108815,15.293067 c 0.556292,1.561078 1.887014,3.019083 2.8261845,4.462777 l 0.0041,0.0062 c 1.795182,1.926196 2.652387,3.322942 2.472716,5.040522 L 28.99042,40.318931 c -0.22848,-1.841934 0.09195,-3.641061 0.825273,-5.244643 1.66974,-3.651279 5.466453,-6.296181 9.748242,-6.163963 0.229314,0.0071 0.455559,0.0223 0.679026,0.04341 L 22.519525,11.847789 Z M 49.417126,37.808489 c 0.367585,2.500527 -0.162137,5.167222 -1.837611,7.484813 -1.802554,2.49318 -3.610478,2.914526 -5.201259,3.841626 l 2.880969,6.885884 10.904775,10.524939 6.870383,4.306197 7.508055,-8.140588 -5.302515,-8.123536 0.01746,-0.04082 c 0.137318,-0.338703 0.292973,-0.674785 0.454765,-1.011309 z"
     style="fill:#ffbc00;fill-opacity:1;fill-rule:evenodd;stroke:none;stroke-width:0;stroke-linejoin:round;stroke-miterlimit:2.61313009;stroke-dasharray:none;stroke-opacity:1" />
  <path
     id="rect5082-3-31"
     d="m 33.770008,0.4805327 c -0.788887,1.9532602 -1.002231,4.1928942 -1.280541,6.1019532 -0.144341,0.990052 -0.308351,1.8913 -0.58756,2.619478 -0.279213,0.72817 -0.679302,1.2869021 -1.295012,1.5699321 l -0.0021,0.0016 -6.076114,2.371431 -2.00918,-1.29708 17.723451,17.105934 c 5.006922,0.472766 8.519054,4.39868 9.174136,8.854758 l 16.295115,15.72719 c 0.394256,-0.820147 0.835317,-1.64625 1.211289,-2.543513 0.510673,-1.218822 0.826664,-2.500802 1.363213,-3.826124 l 0.01799,-0.04082 10.062421,-2.297018 c 0.105807,-0.298717 0.18505,-0.661561 0.245983,-1.066601 z"
     style="fill:#008700;fill-opacity:1;fill-rule:evenodd;stroke:none;stroke-width:0;stroke-linejoin:round;stroke-miterlimit:2.61313009;stroke-dasharray:none;stroke-opacity:1" />
  <path
     id="rect5082-3-2"
     d="m 44.978633,0.2660774 -11.141444,0.046508 c -0.02352,0.055393 -0.04461,0.1120722 -0.06718,0.1679469 L 78.613261,43.761614 c 0.165735,-1.10127 0.183833,-2.538042 0.138509,-4.025077 -0.06175,-2.025441 -0.225266,-4.112665 -0.241855,-5.558835 C 76.200605,33.35236 70.842449,32.28178 68.181852,31.85588 l -0.05683,-0.0078 -0.01349,-0.05633 c -0.633173,-2.899799 -1.799166,-4.785397 -2.908353,-7.195425 0,-5.29e-4 -1.32e-4,-2.65e-4 -0.0042,-0.06098 0,-0.0029 0.0053,-0.0089 0.0061,-0.01188 h -0.0026 l 0.08012,-0.160197 0.0026,0.0062 c 0.156131,-0.40183 0.435134,-0.939458 0.857303,-1.640728 0.46482,-0.772089 1.048226,-1.677819 1.654175,-2.603458 1.198272,-1.830448 2.471235,-3.721756 3.093852,-4.802807 L 62.990229,7.5839289 54.326183,13.484343 47.138486,10.484527 Z"
     style="fill:#0035ff;fill-opacity:1;fill-rule:evenodd;stroke:none;stroke-width:0;stroke-linejoin:round;stroke-miterlimit:2.61313009;stroke-dasharray:none;stroke-opacity:1" />
</svg>
