<?xml version="1.0" encoding="UTF-8" standalone="no"?>
<!-- Created with Inkscape (http://www.inkscape.org/) -->

<svg
   version="1.1"
   id="svg824"
   width="1346.6667"
   height="1348"
   viewBox="0 0 1346.6667 1348"
   xmlns="http://www.w3.org/2000/svg"
   xmlns:svg="http://www.w3.org/2000/svg">
  <defs
     id="defs828" />
  <g
     id="g830">
    <path
       style="fill:#ffffff;stroke-width:1.33333;fill-opacity:1"
       d="m 345.75509,1249.6851 c -0.15017,-43.1393 -0.78224,-72.6726 -1.63407,-76.3518 -0.76404,-3.3 -1.40382,-12.0176 -1.42174,-19.3726 l -0.0326,-13.3726 -14.33334,-3.7461 c -23.70672,-6.1957 -23,-5.8819 -23,-10.2131 0,-2.107 0.55193,-6.7105 1.22651,-10.2299 0.67458,-3.5195 2.19097,-12.999 3.36976,-21.0657 1.1788,-8.0666 3.2783,-19.1666 4.66558,-24.6666 1.38728,-5.5 3.11272,-12.7 3.83432,-16 0.72162,-3.3 2.80168,-12 4.62239,-19.3334 1.82071,-7.3333 3.71943,-16.3333 4.21936,-20 2.90528,-21.30773 22.63938,-72.51862 37.13532,-96.36787 10.3023,-16.94968 15.80574,-23.89568 23.56274,-29.73894 3.31688,-2.49857 6.33069,-4.91928 6.69736,-5.37937 1.32153,-1.65821 18.24888,-9.65517 30,-14.17284 17.1655,-6.5992 19.93188,-7.54896 47.33333,-16.25064 23.14247,-7.34917 29.81378,-9.31397 34.66667,-10.20988 1.1,-0.20308 5.3,-1.264 9.33333,-2.3576 10.14438,-2.75057 18.57982,-4.96907 21.8819,-5.75487 7.95872,-1.89394 13.08312,-3.01785 22.78477,-4.99728 5.86667,-1.19697 13.76412,-3.16644 17.54991,-4.3766 l 6.88324,-2.20026 0.90324,-14.76358 c 0.66506,-10.8708 0.27653,-37.09742 -0.6367,-42.97622 -0.0181,-0.11694 -2.9757,0.56361 -6.5723,1.51238 -6.10843,1.61138 -6.90183,1.51911 -12.04152,-1.40029 -6.29506,-3.57565 -7.96295,-5.08724 -11.3822,-10.31548 -1.34864,-2.06216 -5.28382,-5.18432 -8.74482,-6.93815 -6.77413,-3.4327 -7.9701,-5.20364 -7.93844,-11.75486 0.028,-5.79718 1.68555,-8.04223 5.13039,-6.94888 2.47104,0.78428 3.41091,-0.35704 7.65204,-9.29212 l 4.83499,-10.18622 -3.73504,-3.89853 c -4.92188,-5.13733 -6.72183,-4.91761 -7.67183,0.93649 -0.89261,5.50056 -6.05564,13.80888 -8.58969,13.82254 -2.78752,0.0151 1.58286,-13.33798 6.65204,-20.32423 1.26005,-1.73657 1.31724,-2.93009 0.22362,-4.66667 -2.69842,-4.28489 -5.28808,-3.41017 -7.21818,2.43815 -1.00647,3.0496 -4.11042,8.80021 -6.89767,12.77916 -2.78727,3.97895 -5.06775,7.735 -5.06775,8.34681 0,1.00598 3.15098,2.50527 9.69691,4.61399 3.17581,1.02307 4.48044,4.80265 2.16405,6.26937 -4.09425,2.59247 -10.68709,1.33048 -14.52762,-2.78081 -2.05511,-2.2 -4.27584,-4 -4.93495,-4 -0.65911,0 -1.86213,-0.66375 -2.67337,-1.47499 -1.07778,-1.07777 0.46086,-3.98052 5.71333,-10.77858 3.95359,-5.11698 7.86513,-11.80323 8.69235,-14.85835 0.8272,-3.05511 2.0522,-7.34021 2.72222,-9.52244 0.98646,-3.21277 0.69179,-4.60808 -1.54869,-7.33333 -1.52181,-1.85111 -4.38057,-6.81806 -6.3528,-11.03768 -3.86524,-8.26975 -5.74465,-9.0432 -7.0344,-2.89494 -1.13119,5.3924 -6.81927,16.19484 -11.84568,22.49658 l -4.19785,5.26293 3.30502,1.73168 c 1.81776,0.95241 3.69827,2.97067 4.1789,4.485 0.48064,1.51435 2.32184,3.41308 4.09156,4.21941 7.47448,3.4056 -0.036,9.44322 -7.9867,6.4204 -4.37778,-1.66444 -5.32408,-3.52902 -6.11492,-12.04902 l -0.68069,-7.33334 -5.88407,-0.78518 c -9.74034,-1.29979 -17.04565,-12.94602 -7.71202,-12.29462 3.00676,0.20984 4.4384,-0.93894 8.30825,-6.66666 2.57152,-3.80611 5.31212,-9.3202 6.0902,-12.25354 C 499.26653,652.55691 502.17292,648 504.69741,648 c 5.47228,0 -0.77313,19.91565 -8.81974,28.12481 -5.37318,5.48172 -6.44187,7.86175 -3.54432,7.89339 0.91666,0.0107 2.9957,0.37452 4.62009,0.81 2.57148,0.6894 3.40091,-0.21824 6.41352,-7.0182 1.90305,-4.29551 4.09571,-10.81 4.87257,-14.47667 0.77686,-3.66666 1.98951,-7.76828 2.69478,-9.1147 0.91421,-1.74531 0.5171,-4.42455 -1.38332,-9.33334 -1.4661,-3.7869 -3.46483,-9.58529 -4.44163,-12.88529 -0.97681,-3.3 -2.33859,-5.87881 -3.02617,-5.73069 -0.6876,0.14812 -2.06194,3.44129 -3.0541,7.31814 -2.91332,11.38379 -17.6156,36.77684 -20.32414,35.10287 -1.64507,-1.01671 -0.0551,-6.26411 2.88464,-9.51976 3.5446,-3.92564 9.83393,-22.11205 11.61358,-33.58219 0.8154,-5.25537 2.62386,-11.43196 4.01879,-13.72574 2.30324,-3.78738 2.36657,-4.67699 0.6894,-9.68324 -1.01576,-3.032 -2.18855,-7.76272 -2.60619,-10.51272 -0.77036,-5.07262 -4.63849,-7.30494 -4.63849,-2.6769 0,3.65486 -11.67891,26.24374 -15.3532,29.69556 -1.82241,1.71207 -3.31347,2.80139 -3.31347,2.42072 0,-0.67984 1.06735,-3.74633 9.20267,-26.43938 2.23461,-6.23334 5.31307,-12.35778 6.84101,-13.60986 2.66114,-2.18068 2.70931,-2.72581 1.1444,-12.94849 -1.85844,-12.14013 -3.1574,-15.21517 -5.1148,-12.10832 -8.928,14.17081 -23.90909,27.36419 -27.26333,24.00995 -0.9305,-0.9305 0.77936,-3.58779 5.37537,-8.35391 8.33584,-8.64439 11.2533,-12.87864 17.2909,-25.09525 3.93886,-7.96996 4.5844,-10.4295 3.78425,-14.4183 -0.53059,-2.64504 -0.86929,-9.90916 -0.75268,-16.14249 0.11667,-6.23333 -0.36729,-12.21596 -1.07537,-13.29472 -1.59428,-2.42889 -1.59012,-2.43392 -5.92263,7.16929 -2.51096,5.56568 -3.32263,9.10054 -2.76821,12.0558 0.6653,3.54642 -0.1918,5.46811 -5.64526,12.65698 -3.53631,4.66165 -8.70431,11.68653 -11.48445,15.61085 -2.78014,3.92432 -5.57324,7.13513 -6.2069,7.13513 -0.63365,0 -0.83409,3.50707 -0.44541,7.79347 0.85981,9.48216 -1.39415,11.31083 -8.07651,6.55257 -2.31449,-1.64806 -4.96002,-2.82384 -5.87894,-2.61281 -2.19163,0.50328 -2.11164,-1.32237 0.26108,-5.95851 1.0625,-2.07609 2.24368,-4.82472 2.62481,-6.10805 0.38113,-1.28333 1.64059,-2.33333 2.79877,-2.33333 1.9083,0 8.50066,-6.22167 8.60243,-8.1187 0.0232,-0.43196 -1.96252,-0.71576 -4.41264,-0.63066 -3.04607,0.10573 -5.55861,1.34576 -7.94549,3.92124 -3.27454,3.53328 -3.73979,3.6563 -7.51224,1.98645 -5.54407,-2.45404 -7.26815,-7.12645 -5.38074,-14.58233 2.54392,-10.04926 2.37343,-11.19515 -1.73589,-11.66738 -2.11485,-0.24302 -4.60447,-1.81152 -5.82001,-3.66666 -1.9476,-2.97242 -1.94262,-3.51911 0.0599,-6.5753 2.76563,-4.22088 4.51784,-4.22088 6.12262,0 1.41464,3.72078 1.14664,3.60499 9.09936,3.93136 4.7013,0.19294 6.24352,-0.37042 8.352,-3.05092 4.09804,-5.2098 4.64894,-2.17061 0.69076,3.81063 -4.71484,7.12459 -8.81992,20.28719 -7.21918,23.14759 2.24578,4.01296 5.72208,2.20066 15.08452,-7.86396 10.79708,-11.60687 18.39764,-23.46232 21.64378,-33.76024 1.46888,-4.65979 3.60461,-8.22267 5.98317,-9.98122 2.03442,-1.5041 3.69892,-3.82189 3.69892,-5.15065 0,-2.91919 -0.0544,-2.92395 -4.84758,-0.42413 -2.1005,1.09548 -5.34909,1.99548 -7.21909,2 -4.05613,0.009 -6.6,2.24358 -6.6,5.7955 0,3.38826 -5.1499,13.6334 -8.27444,16.46107 -1.89565,1.71555 -2.8162,1.861 -4.039,0.6382 -1.2228,-1.2228 -1.03148,-3.02376 0.83944,-7.90183 1.33278,-3.47493 2.98696,-8.67614 3.67596,-11.55825 1.12716,-4.71491 0.91836,-5.55024 -2.08308,-8.33333 -1.8347,-1.70123 -3.81201,-3.0909 -4.39402,-3.08815 -0.582,0.003 -2.12754,2.55275 -3.4345,5.66667 -2.21212,5.27045 -7.89465,12.995 -9.55973,12.995 -0.40185,0 -0.73063,-1.87347 -0.73063,-4.16326 0,-3.72816 -0.23209,-3.97202 -2.22072,-2.33333 -1.22138,1.00645 -4.23982,4.97992 -6.70764,8.82992 -4.19008,6.53691 -4.84102,7 -9.83969,7 h -5.35279 l 0.92163,-5 c 0.50691,-2.75 1.73409,-7.32544 2.72709,-10.16764 2.6457,-7.5726 2.3321,-11.61096 -0.9687,-12.47413 -2.75562,-0.72062 -2.81688,-1.63694 -0.51422,-7.69156 0.83396,-2.19279 0.69499,-2.3705 -0.78205,-1 -2.44721,2.27068 -3.92957,2.09284 -3.92957,-0.47144 0,-1.17596 3.00506,-5.7345 6.67793,-10.13008 4.84844,-5.80248 6.60241,-8.98318 6.40225,-11.61002 -0.15162,-1.98992 1.1933,-5.96877 2.98874,-8.84189 1.79542,-2.87313 5.06441,-8.83648 7.26441,-13.25188 3.25307,-6.52893 4.60753,-8.02803 7.25345,-8.02803 2.68898,0 4.1927,-1.75852 8.66667,-10.13522 2.97727,-5.57439 6.23668,-11.12439 7.24313,-12.33334 3.11794,-3.74525 4.46264,-2.54242 3.50363,3.13394 l -0.90084,5.33205 7.32036,-7.14696 c 9.04492,-8.83067 11.11291,-12.7422 13.21376,-24.99341 1.3111,-7.64571 1.3133,-9.76368 0.0107,-10.1979 -2.61016,-0.87005 -1.94936,-3.7897 2.49105,-11.00629 3.35974,-5.46027 3.82918,-7.08924 2.5034,-8.68669 -0.8975,-1.0814 -2.33656,-1.96618 -3.19794,-1.96618 -2.80116,0 -10.97753,9.78252 -16.15905,19.33334 -10.21142,18.82213 -17.99944,31.43597 -24.055,38.96061 -8.66732,10.77 -27.05064,28.99315 -28.1445,27.89929 -0.49987,-0.49988 1.196,-3.14784 3.76858,-5.88438 14.93596,-15.88783 28.62615,-35.05676 44.50011,-62.30886 13.36479,-22.94441 23.31586,-34.85398 23.31586,-27.90476 0,2.72763 2.9107,5.60119 4.97618,4.9127 0.89048,-0.29683 3.57362,-4.09504 5.96254,-8.44047 4.83716,-8.79881 7.72794,-10.17584 7.72794,-3.68121 0,4.1472 -6.40758,17.13868 -15.5022,31.43096 -3.90158,6.1314 -4.26472,7.43341 -2.97489,10.66666 3.62519,9.0874 0.56199,20.95476 -9.48987,36.76535 -3.0902,4.86056 -4.66908,6.2286 -6.51311,5.64333 -1.8442,-0.58533 -4.42144,1.64884 -10.63473,9.21912 -4.70217,5.72914 -10.44675,11.13755 -13.46568,12.67768 -9.517,4.85522 -16.75147,17.41392 -15.29135,26.54507 0.71227,4.45425 0.13643,6.25553 -4.13382,12.93103 -4.40796,6.89074 -5.02343,8.9166 -5.51772,18.16188 -0.30599,5.72329 -0.0788,10.406 0.50488,10.406 1.24034,0 7.64074,-9.67316 13.01277,-19.66667 4.21217,-7.83583 5.56509,-8.55316 6.80611,-3.6086 1.0553,4.20467 3.95464,3.52089 3.6249,-0.85489 -0.1328,-1.76175 -1.47249,-7.70318 -2.9772,-13.20318 -3.40745,-12.45493 -3.43328,-14.91024 -0.19829,-18.85229 3.94236,-4.804 6.87391,-2.01553 10.24249,9.74259 3.45142,12.04722 6.35238,17.90929 9.76719,19.73685 4.14204,2.21675 11.43564,1.592 15.10435,-1.29381 3.8584,-3.03502 8.77635,-3.44595 11.96784,-1 2.10556,1.6137 3.41457,8.26537 6.363,32.33333 0.62885,5.13333 2.13751,15.03333 3.35256,22 1.21505,6.96667 2.75912,16.23359 3.43125,20.59316 8.01578,51.99109 22.8393,98.65611 38.0682,119.84019 16.91936,23.53558 33.13838,40.27728 55.11999,56.89629 17.31354,13.08976 37.68676,24.53855 53.33334,29.97079 18.05838,6.26958 53.5542,9.1801 71.25306,5.84248 18.17367,-3.42718 46.66838,-14.7619 56.36903,-22.42267 13.67434,-10.79885 21.01528,-17.27852 24.53082,-21.65272 3.95425,-4.92009 13.44426,-20.93035 25.13292,-42.40085 3.39345,-6.23334 6.85389,-12.53334 7.68986,-14 3.58831,-6.29544 13.7234,-31.60863 16.28246,-40.66667 0.93229,-3.3 2.46613,-8.1 3.40852,-10.66667 2.24369,-6.11089 3.88168,-12.2307 8.02957,-30 1.883,-8.06666 4.24981,-17.36666 5.25957,-20.66666 1.00976,-3.3 4.03652,-15.6 6.72615,-27.33334 2.68963,-11.73333 5.43648,-22.71156 6.10413,-24.39606 0.66766,-1.68451 1.21391,-4.63178 1.21391,-6.54948 0,-3.52684 2.58327,-13.40855 6.37543,-24.38779 2.02533,-5.86388 9.29084,-14.66667 12.10533,-14.66667 1.42428,0 2.91366,1.41719 5.89806,5.61212 0.89165,1.25335 4.39541,3.00752 7.78614,3.89818 7.1485,1.87773 11.25047,0.68397 17.99167,-5.23599 3.77385,-3.31411 12.51004,-18.33208 12.51004,-21.50544 0,-0.71893 -2.10532,-3.35183 -4.67849,-5.85085 -6.12395,-5.94751 -10.52976,-5.40938 -12.77299,1.56012 -2.67597,8.314 -5.06872,9.87285 -9.82071,6.39812 -2.35077,-1.71892 -2.3077,-2.09803 1.0785,-9.49446 1.93986,-4.23722 3.52702,-8.54494 3.52702,-9.57272 0,-1.02776 -2.31482,-4.40525 -5.14406,-7.50553 -8.52036,-9.33663 -8.51055,-9.28981 -8.79399,-41.93897 -0.23497,-27.06584 -0.0359,-30.08862 2.1476,-32.60619 3.08313,-3.55487 3.04497,-3.69163 5.76429,20.66348 1.6821,15.06544 1.83822,20.19803 0.65762,21.62056 -1.97395,2.37845 -0.53818,11.52883 2.86166,18.23779 1.37879,2.72078 2.50688,6.13537 2.50688,7.58797 0,1.45261 0.53179,2.96976 1.18175,3.37147 1.76723,1.0922 2.9226,-4.8407 1.31896,-6.77296 -1.45257,-1.75026 -0.40929,-7.13336 1.38249,-7.13336 1.8865,0 5.09419,4.54836 9.87339,14 4.57089,9.03968 10.45404,16.66666 12.85599,16.66666 0.64422,0 3.03789,-1.05 5.31926,-2.33333 3.83627,-2.158 4.08818,-2.73409 3.3524,-7.66667 -0.54313,-3.64109 -1.92632,-6.17945 -4.35933,-8 -15.32137,-11.46453 -26.25957,-33.42142 -29.89003,-60 -1.58556,-11.60788 -2.45048,-13.31788 -6.77486,-13.39428 -3.59348,-0.0635 -17.74811,-12.6665 -20.9543,-18.65732 -1.46158,-2.731 -2.31038,-2.93776 -9.41532,-2.2935 -4.29489,0.38945 -11.37984,0.005 -15.74432,-0.85311 -4.36447,-0.85867 -12.93281,-2.17728 -19.04075,-2.93025 -6.10793,-0.75298 -15.60533,-1.94218 -21.10533,-2.64266 -13.24345,-1.6867 -58.60425,-1.67736 -68.50277,0.0141 -8.55047,1.4611 -13.07343,3.83833 -16.06233,8.44225 -2.35624,3.6294 -4.44621,32.72603 -5.43314,75.64037 -0.96871,42.12168 -3.74586,68.2294 -8.86522,83.34106 -4.72904,13.95949 -9.25245,19.47621 -20.73789,25.29182 -7.00283,3.54586 -8.73768,3.84768 -21.84737,3.80091 -14.09832,-0.0503 -14.35858,-0.10933 -26.06256,-5.90511 -10.87547,-5.38554 -12.21586,-6.49485 -16.74027,-13.85429 -4.56415,-7.42408 -4.92409,-8.7704 -5,-18.70164 -0.11587,-15.15511 2.34973,-33.99296 11.94943,-91.29836 4.97301,-29.68641 7.30409,-55.40108 5.46153,-60.24739 -1.89611,-4.98714 -9.04877,-5.77662 -28.15941,-3.10812 -8.43334,1.17759 -21.93334,3.03562 -30.00001,4.12894 -19.40085,2.62952 -43.6722,7.50657 -66.99656,13.4622 -18.49388,4.72221 -19.06805,4.78586 -21.69817,2.40564 -1.84685,-1.67138 -2.26876,-2.87778 -1.33351,-3.81303 1.6553,-1.65529 14.41438,-6.58653 28.02824,-10.83259 9.78555,-3.05204 14.90668,-4.26746 42,-9.96813 7.33334,-1.54299 16.09355,-3.70837 19.46714,-4.81197 7.14017,-2.33574 34.07263,-6.93424 46.32628,-7.90984 4.65304,-0.37047 10.90119,-0.0163 13.88476,0.78714 5.99251,1.61362 13.81513,8.75743 15.07165,13.76378 1.52567,6.07877 -2.79541,45.55737 -7.45854,68.14337 -0.75703,3.66667 -2.28318,13.26667 -3.39146,21.33333 -6.15548,44.80335 -7.43973,69.0668 -4.08112,77.10508 2.39826,5.73983 8.965,11.12218 15.90859,13.03923 8.77111,2.42163 23.88911,1.91969 29.84832,-0.991 13.16619,-6.43081 16.85656,-28.51012 18.39757,-110.07205 0.67703,-35.8328 2.08024,-57.08666 4.25275,-64.41459 1.75093,-5.90592 6.41648,-10.23307 16.15169,-14.98016 9.99471,-4.87364 10.60299,-4.99057 32.23798,-6.19755 15.52232,-0.86594 28.16993,-0.75437 42.71773,0.37688 21.9247,1.70488 51.00091,4.82663 58.52303,6.2833 4.24706,0.82244 4.47842,0.6819 3.79194,-2.3033 -1.33659,-5.81234 -6.95415,-17.76509 -11.30021,-24.04396 -3.24002,-4.68097 -5.7659,-6.70097 -10.31912,-8.25241 -8.65381,-2.94864 -7.97561,-0.16316 2.1581,8.86367 7.83425,6.97852 8.06373,7.35881 5.32505,8.82452 -6.30424,3.37392 -21.69583,-9.9909 -27.52941,-23.90432 -2.93159,-6.99199 -3.37514,-7.40103 -9.52871,-8.78748 -3.54971,-0.79978 -8.3742,-2.44978 -10.72112,-3.66667 -2.60924,-1.35293 -7.42676,-2.21255 -12.39955,-2.21255 -4.47284,0 -9.75262,-0.81569 -11.73288,-1.81264 -1.98025,-0.99696 -6.5618,-2.20074 -10.18124,-2.67508 -8.24518,-1.08056 -16.36792,-4.78544 -17.20101,-7.84561 -0.43081,-1.58251 -1.96251,-2.33333 -4.76004,-2.33333 -5.30823,0 -5.29553,1.99769 0.0245,3.85225 2.98604,1.04093 3.92055,2.04259 3.33334,3.57281 -0.44878,1.16951 -0.81596,2.3773 -0.81596,2.68399 0,1.01483 -5.92244,0.56428 -10.95502,-0.8334 -6.5099,-1.80799 -9.04388,-4.52515 -9.04999,-9.70423 -0.004,-3.77498 -0.66926,-4.51129 -6.08409,-6.73828 -3.80711,-1.56577 -10.20221,-6.54893 -17.11125,-13.33333 -6.0677,-5.95823 -14.26322,-12.63315 -18.21227,-14.83315 -9.4244,-5.25022 -15.81057,-13.9099 -23.10713,-31.33329 -13.99572,-33.42022 -21.57371,-68.137299 -16.41334,-75.194524 1.50587,-2.059395 2.05799,-0.647744 4.20264,10.745161 4.53474,24.089633 26.21244,80.745093 29.59914,77.358403 0.39877,-0.39877 -0.59602,-4.21644 -2.21063,-8.48371 -5.632,-14.88482 -9.32508,-28.94417 -9.36717,-35.6603 -0.0235,-3.75132 -0.89495,-7.8913 -1.95614,-9.29321 -3.88658,-5.13447 -7.62937,-19.56776 -7.81669,-30.143431 -0.19289,-10.890601 0.28251,-12.327788 4.17265,-12.614382 1.29587,-0.09547 3.09558,-0.630587 3.99935,-1.18915 2.58327,-1.596548 3.86065,-0.05175 5.56979,6.735854 4.74386,18.839629 17.93949,39.419619 33.81381,52.736279 5.80891,4.87298 6.69945,5.21824 9.53952,3.69828 3.67064,-1.96447 6.05344,-0.90855 6.05344,2.68252 0,2.92988 4.76609,5.71482 15.80698,9.23637 6.60034,2.10523 7.66754,2.15624 8.67392,0.4146 0.68206,-1.18041 0.54332,-3.14393 -0.34206,-4.84071 -0.81929,-1.57009 -2.0134,-5.73244 -2.6536,-9.24964 -0.64018,-3.51721 -1.38625,-6.60744 -1.65793,-6.8672 -0.27169,-0.25974 -5.23347,-2.05783 -11.02619,-3.99574 C 724.76364,123.81812 711.21916,114.17937 701.2054,100 c -4.59026,-6.499787 -6.511,-11.348911 -5.85156,-14.773069 1.23907,-6.433944 4.40178,-4.975786 9.8458,4.53937 6.51182,11.381469 19.87888,22.983849 34.41007,29.867329 6.80848,3.22522 12.9816,5.49164 13.71803,5.03651 2.74023,-1.69356 1.17896,-4.11038 -4.14541,-6.41707 -5.14014,-2.22687 -5.34935,-2.52518 -3.33334,-4.75286 1.18307,-1.30727 2.15103,-3.37961 2.15103,-4.6052 0,-3.05058 3.26357,-2.79409 9.81847,0.77166 6.42696,3.49616 7.89416,5.15404 6.12601,6.92218 -1.83051,1.83052 -1.57724,8.17919 0.38885,9.74704 0.91667,0.731 3.46667,1.6763 5.66667,2.10068 2.2,0.42437 6.4,1.26023 9.33333,1.85746 l 5.33334,1.08587 -3.29668,2.31005 c -1.88907,1.3237 -5.74974,2.31005 -9.04184,2.31005 -3.5888,0 -6.00403,0.67457 -6.43484,1.79727 -0.96154,2.50569 5.38542,18.84528 10.28788,26.48508 8.7844,13.6893 31.05386,29.05098 42.11453,29.05098 5.10095,0 5.11161,-0.0681 2.03761,-13.0047 -2.22526,-9.36484 -2.4877,-9.78466 -5.66666,-9.06511 -10.15958,2.29963 -11.83384,2.26809 -17.71544,-0.33361 -4.07262,-1.80151 -7.63355,-4.82448 -10.76339,-9.13734 -4.31879,-5.95121 -4.51492,-6.6245 -2.55923,-8.78552 2.92711,-3.23441 3.58172,-3.03972 9.32188,2.7725 11.74111,11.88846 24.38284,15.01517 24.38284,6.03065 0,-5.56149 3.20102,-2.83961 4.26654,3.62791 1.26273,7.66469 8.06713,27.89522 9.38236,27.89522 0.55977,0 1.01777,0.97614 1.01777,2.16919 0,2.62936 9.83295,20.78148 14.58045,26.91625 4.87879,6.30443 17.73598,15.70544 29.72329,21.7333 10.85441,5.45817 13.80632,6.18442 14.66512,3.60805 0.97106,-2.91323 4.35985,-0.13624 6.18936,5.07195 3.98424,11.3422 6.89292,16.34168 19.88804,34.18376 7.51116,10.3127 21.03981,23.00229 22.31813,20.93393 1.64285,-2.6582 5.95623,-1.12185 9.3528,3.33129 3.43884,4.50856 8.00472,7.10816 9.62999,5.48288 0.44709,-0.44708 -1.32914,-3.05186 -3.94716,-5.78841 -2.61804,-2.73653 -6.45391,-8.72552 -8.52415,-13.30885 -2.07025,-4.58334 -4.29388,-8.33334 -4.94139,-8.33334 -0.6475,0 -4.74917,-2.50553 -9.11482,-5.56786 -13.8346,-9.70443 -30.48632,-31.69507 -30.48632,-40.26094 0,-2.99845 -0.3961,-3.19765 -5.10291,-2.56633 -8.97703,1.20407 -20.35336,-6.68489 -24.62284,-17.07483 -1.46562,-3.56658 -2.98232,-5.00498 -5.89088,-5.58669 -6.24851,-1.24971 -17.15948,-12.05632 -21.59238,-21.38584 -4.59048,-9.66119 -6.3555,-17.51189 -4.23214,-18.82421 3.40126,-2.1021 6.48956,0.94762 9.98717,9.86246 3.65333,9.31174 10.96272,18.97402 18.31285,24.20778 6.9626,4.95781 6.84091,1.12257 -0.31528,-9.93546 -8.22162,-12.70438 -17.96529,-31.29513 -20.05124,-38.2574 -1.14592,-3.82474 -2.70046,-5.6888 -6.01866,-7.217 -2.46054,-1.13318 -6.5687,-3.02634 -9.12926,-4.207 -9.52929,-4.39389 -19.83829,-18.16274 -24.59794,-32.85334 -1.46411,-4.51893 -2.06971,-5 -6.29442,-5 -2.57094,0 -9.57441,-1.23331 -15.56326,-2.74069 -36.28406,-9.13261 -60.39914,-23.246115 -67.83303,-39.699716 -2.48378,-5.497403 -2.49742,-5.896629 -0.28483,-8.341507 1.27809,-1.412274 2.07175,-2.819825 1.76368,-3.127889 -0.94889,-0.948893 -16.30059,2.678788 -20.53464,4.852439 -2.2,1.12942 -8.59808,3.628429 -14.21796,5.553353 -5.61988,1.924924 -13.01961,4.700795 -16.44387,6.168601 -6.807,2.917816 -8.6715,3.251828 -8.6715,1.553431 0,-1.009041 5.5661,-3.968681 18.66666,-9.925536 5.59756,-2.545221 2.13624,-3.055916 -5.79169,-0.854527 -2.81877,0.782702 -5.46877,1.079355 -5.88889,0.659231 -1.17818,-1.17818 0.38824,-2.22188 5.24162,-3.492488 2.44143,-0.639163 7.73896,-2.1364 11.7723,-3.327195 4.03333,-1.190794 11.53333,-2.387526 16.66666,-2.659406 5.40279,-0.28615 13.39934,-1.926122 18.98832,-3.894216 8.16607,-2.875584 12.94667,-3.532272 31.00001,-4.258322 14.92434,-0.60021 21.34501,-0.425297 21.34501,0.581484 0,2.002908 -3.40036,2.783944 -12.27751,2.820052 -4.18596,0.01703 -11.08596,0.903119 -15.33333,1.969096 -4.24738,1.065976 -10.26935,2.341122 -13.38218,2.833654 -3.11282,0.492533 -5.98552,1.422729 -6.38376,2.067102 -1.30548,2.112307 4.36759,11.141816 10.93575,17.40581 10.85802,10.355206 32.23108,20.698965 54.78392,26.513349 12.15652,3.13409 12.35716,3.14244 14.28162,0.59465 1.07353,-1.42125 1.79706,-3.10949 1.60784,-3.75165 -0.18923,-0.64215 -3.91892,-2.27244 -8.2882,-3.622863 -4.36928,-1.350422 -9.14415,-3.009117 -10.61082,-3.68599 -18.25542,-8.424946 -28.16722,-15.774679 -35.3472,-26.210412 -4.27124,-6.208032 -4.14285,-9.327226 0.44384,-10.782983 2.23584,-0.709629 3.57459,0.06772 6.21016,3.605984 5.97688,8.023985 16.69558,17.791197 22.76898,20.747832 3.25832,1.586208 9.04449,4.396513 12.85816,6.245125 8.13881,3.945162 23.49744,8.3833 33.3994,9.651331 6.38896,0.818161 7,0.666007 7,-1.743065 0,-1.451712 -0.66239,-4.539602 -1.47198,-6.861975 -1.71634,-4.92354 -0.61518,-10.842097 2.01722,-10.842097 1.75048,0 5.97988,7.636433 8.12305,14.666666 2.46399,8.082577 12.28555,25.353147 19.80941,34.833537 8.95458,11.28316 13.62601,14.90138 15.44306,11.96136 0.77045,-1.24664 1.9642,-0.17648 4.1588,3.72828 1.69299,3.01225 3.63185,5.47682 4.30861,5.47682 0.67676,0 0.846,1.0019 0.3761,2.22644 -1.16146,3.02672 8.85544,17.867 20.1194,29.80739 6.02837,6.39041 13.00169,11.89343 21.48968,16.95865 6.91096,4.12414 12.88385,8.32831 13.27306,9.3426 3.79024,9.87722 -27.66925,-5.92146 -40.64641,-20.41226 -3.11667,-3.4802 -5.66667,-6.48418 -5.66667,-6.67551 0,-0.19133 -2.09766,-3.53303 -4.66148,-7.42599 -2.56381,-3.89294 -5.97422,-10.24532 -7.57868,-14.11637 C 882.1554,155.16723 880.32014,152 879.68152,152 c -3.3676,0 -17.49554,-11.6334 -24.18957,-19.91846 -6.23236,-7.71367 -16.13713,-24.38615 -18.60005,-31.30905 -0.32511,-0.913829 -2.09869,-0.52609 -4.85883,1.06223 -3.56366,2.05072 -5.88,2.34431 -12.8566,1.62953 -5.86261,-0.60064 -8.50978,-0.41221 -8.50978,0.60573 0,2.47695 14.80954,30.59669 16.11406,30.59669 0.6706,0 1.21927,-3.78 1.21927,-8.4 0,-8.11748 1.42445,-11.6 4.74472,-11.6 0.8842,0 2.29147,4.36546 3.29107,10.20917 1.33357,7.79615 2.6493,11.2376 5.56669,14.56032 2.28713,2.60491 3.26729,4.69296 2.44227,5.20285 -2.18462,1.35016 -1.66652,5.09031 0.58542,4.22615 1.07994,-0.4144 2.72994,0.33533 3.66667,1.66608 0.93675,1.33075 3.09457,2.85919 4.79519,3.39653 2.93081,0.92607 2.96556,1.07124 0.66666,2.78446 -2.28837,1.70537 -1.99454,2.66297 5.20191,16.95405 15.0902,29.96683 38.6057,56.9414 59.99415,68.81912 9.05928,5.03093 29.96228,13.41652 35.75121,14.3422 l 5.70903,0.91292 -0.82575,-5.08852 c -1.03246,-6.36233 -2.78437,-8.31316 -5.46649,-6.08721 -1.56937,1.30248 -3.61781,1.3139 -9.68659,0.054 -5.97574,-1.24056 -8.74778,-2.69194 -12.39958,-6.49214 -2.58678,-2.6919 -8.09398,-7.15389 -12.23819,-9.91552 -4.14423,-2.76162 -11.04423,-8.63237 -15.33333,-13.04612 -4.28912,-4.41374 -10.07172,-9.2056 -12.85024,-10.64856 -5.18823,-2.69441 -13.24254,-10.77244 -17.15754,-17.20809 -3.10385,-5.10223 -9.12395,-22.18559 -9.12395,-25.89123 0,-1.69984 0.83643,-3.78478 1.85874,-4.63322 2.73885,-2.27306 4.81561,0.38885 10.18929,13.06026 6.28374,14.81732 12.17272,22.21598 22.66968,28.4811 5.6842,3.39264 9.33492,6.59758 10.4915,9.21046 1.43804,3.24876 2.35934,3.86034 4.86725,3.23088 1.7014,-0.42701 3.44199,-0.21245 3.86799,0.47682 0.42598,0.68928 4.97237,4.04394 10.10305,7.45481 13.78097,9.16157 16.11375,12.14523 10.61917,13.58209 -3.77598,0.98744 -3.30478,3.46895 1,5.26623 6.91875,2.88863 13.84594,4.71861 14.68511,3.87944 0.46188,-0.46188 -0.29229,-4.17028 -1.67593,-8.24089 -2.01378,-5.92439 -2.19915,-7.90804 -0.92912,-9.9417 0.87264,-1.3973 1.58661,-3.18928 1.58661,-3.98214 0,-0.79287 -3.72641,-9.18639 -8.28093,-18.65226 -6.4402,-13.38501 -9.03352,-17.48226 -11.66667,-18.43248 -4.72124,-1.70373 -14.71907,-10.61929 -14.71907,-13.12573 0,-5.0492 -3.17861,-12.38413 -5.3667,-12.38413 -1.25287,0 -6.76392,-4.95 -12.24678,-11 C 887.14102,130.84415 884.55085,127.68685 882.15068,123 c -2.5486,-4.97667 -3.04762,-5.14155 -6.39447,-2.11269 -2.30931,2.0899 -2.74727,1.98312 -7.43832,-1.81367 -5.27116,-4.2663 -6.53252,-8.73901 -2.67407,-9.48208 1.27076,-0.24472 3.8774,1.24706 5.79253,3.31508 1.91515,2.06801 4.69389,3.83139 6.17499,3.91861 2.88258,0.16975 2.86582,1.13394 0.24612,-14.15858 -0.56425,-3.293867 -2.74351,-6.490141 -7.40808,-10.865325 -5.66616,-5.314624 -11.78269,-8.925946 -11.78269,-6.956734 0,1.638218 5.98086,12.200266 8.4087,14.849536 2.60519,2.842793 2.63692,3.164983 0.52028,5.281623 -2.11662,2.11664 -2.612,1.90293 -8.12052,-3.50327 -8.50836,-8.350328 -12.91978,-24.139167 -6.7445,-24.139167 0.97826,0 2.13733,0.580347 2.57572,1.28966 0.43837,0.709314 2.56542,0.935986 4.72678,0.503715 3.37096,-0.674192 5.69951,0.550099 16.37615,8.610168 17.88039,13.498344 31.90432,28.987744 38.97592,43.048804 3.16779,6.2988 7.1974,13.1988 8.9547,15.33333 11.1105,13.49572 29.23542,44.89632 34.94902,60.54766 0.93699,2.56666 2.90427,7.36666 4.37175,10.66666 4.24984,9.55686 5.73183,16.5295 4.86203,22.87542 -0.6149,4.48612 0.38666,10.37352 4.17033,24.51432 6.56552,24.53746 8.81652,36.97501 8.35559,46.16732 -0.20842,4.15638 0.0483,7.98424 0.57033,8.50634 0.52211,0.5221 0.59949,3.50124 0.17197,6.62031 -0.84054,6.13249 1.38999,24.95845 4.3207,36.46696 1.3187,5.17844 1.43208,7.87725 0.41106,9.78504 -1.71108,3.1972 1.53371,24.02453 5.6436,36.22456 1.47834,4.38835 2.38672,9.13039 2.01866,10.53787 -0.95368,3.64689 0.37681,6.30186 3.15806,6.30186 1.79654,0 2.78068,1.74043 3.95808,7 0.8618,3.85 2.1896,8.63835 2.9506,10.64079 1.8411,4.84427 0.3817,10.35921 -2.7412,10.35921 -3.0758,0 -6.21925,-7.05869 -8.31288,-18.66666 -0.8597,-4.76667 -2.61902,-9.86667 -3.90958,-11.33334 -1.29056,-1.46666 -4.02251,-7.76666 -6.07102,-14 -2.04849,-6.23333 -3.88146,-11.55446 -4.07328,-11.82473 -0.1918,-0.27027 -2.88968,-0.45633 -5.99529,-0.41347 -10.80787,0.14916 -22.85076,-8.37629 -28.85684,-20.42846 -3.61356,-7.2512 -8.29159,-22.7516 -8.29159,-27.47379 0,-4.87609 3.44584,-5.20128 5.57594,-0.52621 2.06146,4.52442 4.04066,4.25197 2.3035,-0.3171 -0.76334,-2.00774 -1.80002,-6.94982 -2.30374,-10.9824 -0.68272,-5.46556 -1.50896,-7.44618 -3.24578,-7.78066 -1.8016,-0.34696 -2.32992,0.46262 -2.32992,3.57037 0,8.40999 -4.30885,6.21613 -9.47368,-4.82355 -1.73154,-3.70112 -3.51588,-5.66666 -5.14426,-5.66666 -1.37124,0 -2.69316,-0.51704 -2.93762,-1.14899 -0.24444,-0.63195 -3.21613,-2.88195 -6.60374,-5 -3.38763,-2.11805 -10.25194,-8.35101 -15.25403,-13.85101 -5.00209,-5.5 -9.43041,-10.14024 -9.84069,-10.31166 -1.63584,-0.68344 -4.71735,2.33267 -3.38347,3.31166 0.74937,0.55 3.90413,4.9 7.01057,9.66666 5.42202,8.3198 10.55956,14.35328 18.03988,21.18584 3.32151,3.03387 3.647,3.08158 6.82388,1 1.8348,-1.20221 3.87436,-2.18584 4.53235,-2.18584 0.65797,0 1.61339,4.60242 2.12313,10.2276 0.50974,5.62518 1.8277,13.57518 2.9288,17.66667 1.10111,4.09148 2.25136,8.58773 2.55611,9.99164 1.41061,6.49825 5.31285,16.8078 9.07391,23.97289 5.9664,11.36639 14.52016,19.31795 28.60821,26.59415 6.68624,3.45331 12.47225,6.78916 12.85781,7.41303 0.38558,0.62385 -1.83805,1.54869 -4.9414,2.0552 l -5.64242,0.9209 3.18888,2.6123 c 3.92657,3.21661 3.15261,4.12158 -3.8138,4.45944 -7.68252,0.37257 -9.05431,2.25252 -5.39432,7.39249 2.72998,3.83392 3.16441,4.00729 5.26892,2.10273 2.9651,-2.68338 8.63588,-2.64898 12.79722,0.0776 4.18127,2.73967 4.19375,4.51332 0.0317,4.51332 -1.79006,0 -3.61796,0.58786 -4.06202,1.30634 -0.85409,1.38196 7.66323,13.60622 12.47215,17.90032 3.82535,3.41581 3.58057,4.79334 -0.85171,4.79334 -4.78225,0 -12.92649,-6.71329 -16.39698,-13.51602 -1.60999,-3.15583 -4.12667,-5.76992 -6.29464,-6.53828 -1.9867,-0.7041 -4.65402,-1.87992 -5.9274,-2.61294 -3.5971,-2.07065 -4.97699,-1.61448 -6.39452,2.11391 -1.01239,2.66279 -0.77744,4.25481 1.033,7 1.28888,1.95433 3.80072,6.44843 5.58186,9.98687 3.38546,6.72558 11.22199,14.36637 17.65487,17.21384 9.33593,4.13249 -0.36287,7.0547 -10.02099,3.01929 -10.36218,-4.3296 -10.14149,-1.16368 0.62186,8.92065 l 8.16082,7.64602 6.0831,-5.61667 c 3.34569,-3.08917 9.62574,-9.02309 13.95565,-13.18649 l 7.87259,-7.56983 -0.8808,-8.43017 c -0.7901,-7.56216 -0.6025,-8.59898 1.8217,-10.06954 1.4864,-0.90165 2.9598,-1.20165 3.2742,-0.66666 1.4713,2.50336 2.0899,9.1656 1.0074,10.8499 -0.7422,1.15487 -0.6466,3.10588 0.2484,5.0702 1.861,4.08458 -1.2726,9.79854 -8.95192,16.32311 -14.27512,12.12868 -32.75193,35.42731 -32.75193,41.29917 0,1.29044 -3.0336,4.90423 -6.74135,8.03064 -5.94154,5.00998 -6.64269,6.13352 -5.90985,9.47012 0.57271,2.60752 -0.62101,7.85406 -3.83553,16.85767 -3.02748,8.47975 -4.40804,14.36897 -3.92983,16.76408 C 947.81565,589.53307 936.96154,600 927.26508,600 c -4.77619,0 -3.65715,-2.36492 3.49784,-7.39213 3.70234,-2.60134 6.06593,-5.35247 6.33865,-7.37798 0.23919,-1.77644 1.97876,-8.32989 3.86572,-14.56322 4.95743,-16.37624 4.81396,-19.78714 -0.96727,-22.99654 -6.60918,-3.66904 -10.20572,-7.22656 -16.23762,-16.06152 -6.29572,-9.22136 -9.38404,-18.78004 -8.83284,-27.33862 0.32832,-5.09796 0.87106,-6.26999 2.90356,-6.26999 1.95381,0 3.43005,2.67636 6.75948,12.25468 2.34284,6.74007 6.1525,15.14007 8.4659,18.66667 2.3134,3.52658 5.23278,8.36198 6.48747,10.74532 2.52531,4.79685 6.04512,5.59038 8.71179,1.96406 0.95824,-1.30309 4.59226,-4.67537 8.0756,-7.49394 7.83953,-6.34344 8.23529,-9.48992 1.33333,-10.6005 -8.44661,-1.35912 -19.99545,-13.08005 -22.42467,-22.75884 -0.60713,-2.41902 -1.75201,-3.44412 -3.84656,-3.44412 -3.60076,0 -6.43193,-2.97653 -9.19462,-9.66666 -2.31822,-5.61382 -2.99026,-5.82015 -9.7532,-2.9944 -4.6215,1.93098 -4.92427,1.88138 -8.13899,-1.33334 -3.93681,-3.93681 -4.71803,-4.06029 -7.14537,-1.12934 -1.33258,1.60905 -1.80375,6.41057 -1.73362,17.66666 0.0925,14.84859 1.17502,20.2733 6.44251,32.28503 1.52072,3.46779 -2.80901,4.15277 -5.82008,0.92077 -1.44853,-1.55481 -3.45283,-5.28434 -4.45399,-8.28782 -1.00117,-3.0035 -2.36441,-5.4609 -3.02942,-5.4609 -2.12439,0 -2.82247,7.86838 -1.02444,11.54686 0.95352,1.95076 2.64392,8.76656 3.75644,15.14621 1.23661,7.09123 4.0975,16.20709 7.36105,23.45497 2.93607,6.52059 5.33829,12.16671 5.33829,12.54695 0,0.38024 1.5,3.06749 3.33334,5.97168 3.9759,6.29824 4.02769,6.66667 0.93726,6.66667 -3.67546,0 -11.76156,-9.14907 -15.42645,-17.45436 -1.80917,-4.0999 -4.30636,-12.4999 -5.54931,-18.66667 -3.19293,-15.84143 -3.01364,-15.39827 -5.30342,-13.10848 -3.53624,3.53624 -5.14063,21.01228 -3.4294,37.35545 1.78678,17.0647 4.93785,26.52211 10.87917,32.65199 4.54844,4.69281 4.257,7.22207 -0.83217,7.22207 -5.46211,0 -10.83366,-6.38267 -13.86409,-16.47379 -1.50972,-5.02724 -2.74493,-10.57724 -2.74493,-12.33333 0,-1.75608 -0.53581,-3.19288 -1.19068,-3.19288 -1.49085,0 -2.80629,3.3173 -2.81901,7.10905 -0.005,1.59001 -2.40535,9.96973 -5.33334,18.62159 -5.78868,17.10477 -6.52025,24.55812 -3.22004,32.80614 3.38122,8.45047 7.7893,8.43584 11.29906,-0.0375 1.13918,-2.75024 1.24057,-4.36458 0.31124,-4.9558 -2.21411,-1.40858 -7.03682,-9.99868 -7.04224,-12.54352 -0.004,-1.59624 1.03944,-2.33334 3.30125,-2.33334 2.51491,0 3.95745,1.27651 6.02709,5.33334 1.49648,2.93333 3.07829,5.33333 3.51514,5.33333 1.99565,0 14.13272,-10.01337 17.89539,-14.76412 4.55432,-5.75031 8.57069,-8.48356 10.61214,-7.22187 3.57579,2.20995 -8.67993,16.27034 -18.51402,21.24024 -5.97623,3.02024 -7.59431,4.6462 -9.80054,9.84828 -3.28812,7.75308 -7.48747,10.9927 -14.66644,11.31452 -4.93433,0.2212 -5.87953,-0.23773 -8.30485,-4.03236 -1.50526,-2.35508 -3.35758,-4.30508 -4.1163,-4.33333 -0.75872,-0.0283 -4.55998,6.20655 -8.44728,13.85508 l -7.06781,13.90645 1.51839,7.09355 c 0.83512,3.90147 2.60902,9.1542 3.94201,11.67277 l 2.42361,4.57922 3.50528,-5.55272 c 4.04507,-6.40779 4.20358,-7.36634 1.57835,-9.54507 -2.65247,-2.20136 -6.34388,-13.80349 -5.27665,-16.58463 1.52142,-3.96477 4.90104,-1.69413 7.08926,4.76303 1.16288,3.43148 2.52247,6.63963 3.02131,7.12921 0.49884,0.48959 2.13532,-1.41798 3.63664,-4.23904 3.6644,-6.88569 6.07409,-9.79588 8.11115,-9.79588 5.27786,0 -10.54306,34.76591 -20.22755,44.44934 C 836.84903,720.69344 823.12539,732 821.64881,732 c -0.58056,0 -4.19079,3.5618 -8.02272,7.91509 -4.06343,4.6163 -8.9105,8.61783 -11.62995,9.60119 -2.56453,0.92735 -4.66279,2.17877 -4.66279,2.78093 0,0.60218 -2.81746,2.88164 -6.26104,5.06548 -4.51665,2.86439 -7.90546,3.97064 -12.16326,3.97064 -5.26559,0 -5.71075,-0.2307 -4.12708,-2.1389 0.97632,-1.17639 3.14458,-2.65956 4.81837,-3.29594 2.75553,-1.04765 2.89276,-1.50722 1.45149,-4.8611 -0.87546,-2.03723 -1.75154,-3.93534 -1.94684,-4.218 -0.19529,-0.28267 -1.78198,0.421 -3.52598,1.56372 -5.63463,3.69194 -6.76912,13.96041 -5.74966,52.04092 0.98388,36.75125 1.02292,36.9093 9.11408,36.9093 4.29914,0 30.41202,6.89387 40.38992,10.66304 9.78523,3.69639 44.57395,13.28811 65.33334,18.0133 13.35009,3.0387 33.36512,11.62704 46.77791,20.07216 6.66538,4.19672 17.27176,14.46169 19.88876,19.24853 0.73333,1.34137 3.45114,4.74077 6.03957,7.55424 6.52479,7.09204 19.24716,29.20105 21.3576,37.1154 0.58665,2.2 2.64692,8.5 4.57836,14 4.68765,13.3486 11.91257,38.313 14.66341,50.6667 1.22471,5.5 3.0019,11.8024 3.9492,14.0053 0.9474,2.2029 2.1449,6.1029 2.6611,8.6667 0.5162,2.5637 1.7892,7.3613 2.8289,10.6613 1.7838,5.662 4.191,18.456 5.1426,27.3333 0.2359,2.2 2.2846,14.8597 4.5528,28.1326 2.5403,14.8651 3.8211,26.1298 3.3353,29.3333 -0.9495,6.2612 -5.6532,11.6853 -13.7755,15.8854 -11.21978,5.8019 -10.91896,5.2085 -8.77808,17.3154 1.03742,5.8667 3.46618,19.9667 5.39728,31.3333 1.9311,11.3667 4.3517,24.5667 5.3791,29.3334 1.0274,4.7666 2.8251,15.2666 3.9949,23.3333 1.1697,8.0667 2.9779,18.8855 4.0182,24.0418 2.2442,11.124 1.5414,15.2915 -2.5787,15.2915 -6.4281,0 -8.075,-3.2194 -10.9129,-21.3333 -0.4021,-2.5667 -2.8534,-16.6667 -5.44732,-31.3333 C 995.14529,1222 992.1541,1204.6 991.0921,1198 c -4.26742,-26.5209 -5.86858,-34.6432 -7.06506,-35.8397 -0.78146,-0.7814 -5.4113,0.057 -12.30655,2.2287 -22.72457,7.1571 -37.88372,9.3012 -62.09959,8.7831 -18.838,-0.4029 -19.61077,-0.315 -19.36765,2.2041 0.59083,6.1217 6.11501,39.637 8.49627,51.5469 1.42112,7.1076 2.59564,14.9076 2.61006,17.3333 0.0144,2.4256 0.96382,9.2103 2.10975,15.0769 4.93737,25.2772 3.66427,34.7524 -4.29336,31.9539 -2.81208,-0.989 -3.98177,-2.4822 -4.67645,-5.9697 -1.58714,-7.9681 -6.43087,-38.8328 -7.73959,-49.3175 -0.68653,-5.5 -3.08836,-22.7773 -5.3374,-38.3941 -2.24904,-15.6168 -4.08917,-31.3187 -4.08917,-34.8932 0,-3.5744 -1.1657,-14.7971 -2.59045,-24.9392 -4.66306,-33.1942 -4.51821,-31.0738 -5.99616,-87.7735 -0.78936,-30.2833 0.54416,-79.51693 2.12728,-78.53852 0.6193,0.38275 1.14507,-0.38951 1.16839,-1.71612 0.0401,-2.28492 0.13553,-2.28937 1.80948,-0.0844 1.72186,2.26805 4.33368,52.03894 4.02738,76.74554 -0.16723,13.4874 1.93446,10.758 8.52649,-11.0732 6.39381,-21.1746 8.16608,-25.4521 12.84407,-31 8.12012,-9.62997 9.8493,-2.5261 3.36093,13.8075 -3.75368,9.4493 -6.83831,18.6902 -15.53041,46.5259 -1.83196,5.8666 -4.22294,13.2136 -5.31328,16.3266 -1.43288,4.0909 -1.76112,8.5264 -1.18403,16 0.90404,11.7079 7.18119,60.0292 8.16593,62.8612 0.52458,1.5086 3.43708,1.6876 15.61462,0.9592 39.18157,-2.3433 58.98662,-6.1021 78.4709,-14.8929 5.5923,-2.5231 10.59132,-4.5875 11.10894,-4.5875 0.51762,0 3.5921,-2.1722 6.83216,-4.8272 5.8461,-4.7905 5.8911,-4.8922 5.8911,-13.3359 0,-4.6797 -1.1765,-14.6574 -2.6145,-22.1727 -1.4379,-7.5153 -3.8111,-20.8642 -5.27374,-29.6642 -1.46262,-8.8 -5.05201,-24.1 -7.97641,-34 -2.9244,-9.9 -6.59349,-23.7 -8.15355,-30.6666 -4.42173,-19.74609 -15.02549,-50.40618 -22.82601,-66.00003 -7.68112,-15.35514 -24.38647,-35.92384 -35.24277,-43.39318 -9.4319,-6.4893 -25.48719,-14.26306 -35.781,-17.32469 -5.20595,-1.54836 -14.29927,-4.27027 -20.20738,-6.04867 -5.90809,-1.77841 -11.56551,-3.23346 -12.572,-3.23346 -2.05797,0 -1.10915,0.29229 -34.55272,-10.64404 -13.49336,-4.41244 -25.49336,-8.00479 -26.66667,-7.98298 -1.18929,0.0221 -4.1784,3.61 -6.75505,8.10828 -6.21767,10.85467 -25.84789,30.30955 -36.09199,35.7696 -4.43906,2.36599 -13.59445,6.11419 -20.34529,8.32932 -10.31212,3.38367 -15.1159,4.14304 -30.05019,4.75024 -29.64224,1.20522 -52.41143,-4.31953 -72.0254,-17.47632 -3.19073,-2.1403 -8.59887,-5.24104 -12.01809,-6.89052 -12.81867,-6.18393 -37.19467,-29.7435 -43.60998,-42.14934 -2.04115,-3.94714 -3.81251,-4.78623 -5.23728,-2.48091 -0.45323,0.73333 -2.44055,1.33333 -4.41627,1.33333 -3.97621,0 -19.63256,4.2228 -23.67244,6.38488 -1.41788,0.75883 -6.17796,2.11852 -10.57796,3.02154 -4.4,0.90302 -14.9,3.70394 -23.33333,6.22428 -8.43333,2.52034 -18.63333,5.34097 -22.66667,6.26809 -4.03333,0.92711 -11.83333,3.49225 -17.33333,5.70031 -5.5,2.20805 -13,4.94444 -16.66667,6.08085 -15.55008,4.81948 -44.4006,17.64321 -51.03276,22.68349 -15.65921,11.90064 -31.24639,37.18792 -45.14575,73.24063 -7.7637,20.13781 -9.52705,26.025 -13.89657,46.3959 -1.49433,6.9667 -4.22954,18.9667 -6.07824,26.6667 -6.42487,26.7602 -7.15559,30.0783 -9.6898,44 -4.51994,24.8303 -5.36735,30.7687 -4.65547,32.6239 0.39591,1.0317 3.68701,2.2012 7.59849,2.7002 3.79506,0.484 9.0001,1.4296 11.56677,2.1012 2.56666,0.6716 10.36666,2.1428 17.33333,3.2694 6.96667,1.1266 17.46667,2.9207 23.33333,3.9868 12.72808,2.3131 52.57271,5.0216 58.48815,3.9759 2.29819,-0.4063 9.11239,-0.2419 15.14268,0.3653 l 10.96416,1.104 -0.0308,-30.8993 c -0.0169,-16.9946 0.26952,-32.3231 0.63648,-34.0634 0.36697,-1.7402 1.01441,-13.4835 1.43875,-26.0963 0.73273,-21.7792 0.64104,-23.0021 -1.82344,-24.3211 -3.47819,-1.8615 -14.56671,-18.0789 -34.72059,-50.78032 -6.24813,-10.13816 -6.34048,-13.49045 -0.39607,-14.37879 3.03866,-0.4541 10.34299,8.97926 18.96728,24.49574 10.61036,19.08967 16.35586,27.42767 17.86138,25.92047 1.76086,-1.7627 2.05077,-22.31121 0.62032,-43.96763 -1.06412,-16.1103 -0.60606,-17.75699 4.74108,-17.04371 5.3214,0.70985 6.32463,12.85545 5.86523,71.00764 -0.68727,86.9953 -0.38787,124.8505 1.46049,184.6667 1.66912,54.0154 1.24297,87.5346 -1.19436,93.9453 -0.61553,1.6189 -1.92203,3.0001 -2.90331,3.0692 -0.98129,0.069 -3.0449,0.5157 -4.58584,0.9925 l -2.80167,0.8669 -1.01622,-65.7703 c -0.55886,-36.1737 -1.22663,-69.3703 -1.48388,-73.7703 -0.25726,-4.4 -0.4892,-8.3618 -0.51544,-8.804 -0.0263,-0.4422 -12.79771,-1.1503 -28.38104,-1.5735 -27.68802,-0.7519 -66.5988,-4.9103 -71.75172,-7.668 -1.32347,-0.7083 -3.64575,-1.2878 -5.16063,-1.2878 -2.56179,0 -2.75361,0.7689 -2.74425,11 0.005,6.05 0.56693,14.6 1.24754,19 2.7984,18.0912 3.89378,116.992 1.43846,129.8786 -2.98103,15.6458 -3.57923,16.8794 -8.34034,17.1991 l -4.35573,0.2925 z M 730.30752,891.69104 c 17.1021,-6.54936 23.54707,-11.09224 36.39771,-25.65571 13.81156,-15.65249 14.2348,-16.36882 11.08247,-18.75745 -1.34989,-1.02285 -2.80329,-1.87881 -3.2298,-1.90215 -0.42649,-0.0233 -2.70589,2.93679 -5.06533,6.57803 -6.17778,9.53393 -16.30896,17.833 -30.99491,25.3898 -15.70528,8.08131 -24.41738,10.54019 -42.31138,11.94185 -11.31918,0.88666 -15.53281,0.66084 -23.33333,-1.25042 -12.44391,-3.04899 -26.95024,-9.26768 -40.18627,-17.22738 -5.86666,-3.52801 -14.26666,-8.43065 -18.66666,-10.89476 -7.93922,-4.44614 -20.93654,-16.21948 -24.88222,-22.53901 -1.96401,-3.14563 -2.16104,-3.18772 -4.40725,-0.94152 -2.2462,2.2462 -2.24014,2.48185 0.13574,5.27131 14.9629,17.56754 29.58823,29.51525 50.48706,41.24378 24.00807,13.47347 27.93745,14.39103 59.33333,13.85515 23.06694,-0.39373 23.47386,-0.45209 35.64084,-5.11152 z m -13.64084,-20.99497 c 5.86667,-1.6521 13.06667,-4.20164 16,-5.66568 8.3939,-4.18943 24.64441,-16.85606 26.30715,-20.50538 1.12934,-2.47861 1.10402,-7.24322 -0.10053,-18.91898 -0.88549,-8.58331 -1.73524,-27.15603 -1.88833,-41.2727 -0.1531,-14.11666 -0.64516,-25.66666 -1.09348,-25.66666 -0.44832,0 -2.55731,0.86378 -4.68664,1.91952 -4.79947,2.3796 -24.30599,8.07432 -38.62805,11.27701 -10.14294,2.26817 -28.06594,2.67437 -39.85448,0.90325 -2.16938,-0.32593 -6.96938,-0.99217 -10.66666,-1.48054 -15.18826,-2.00622 -24.55943,-5.127 -40.66779,-13.54319 -9.19667,-4.80503 -17.48571,-9.34832 -18.42011,-10.09623 -0.93439,-0.7479 -2.10321,-0.95549 -2.5974,-0.46132 -0.49419,0.49419 -0.76665,11.8297 -0.60549,25.19002 0.28826,23.89658 -1.53184,42.53802 -4.70731,48.21228 -2.4134,4.31249 10.64972,15.3325 40.60755,34.25642 9.92664,6.27052 18.08813,9.96686 33.57923,15.20799 10.98062,3.71511 14.11268,4.21688 24.66666,3.95171 7.65046,-0.19222 16.00531,-1.40659 22.75566,-3.30752 z M 582.10907,761.33333 c 2.97077,0 3.2169,-0.49794 3.13056,-6.33333 -0.0516,-3.48333 -0.54119,-7.474 -1.08812,-8.86813 -0.87432,-2.22871 -1.20274,-2.03184 -2.71962,1.63021 -0.94886,2.29077 -3.19621,5.75228 -4.99412,7.69224 -3.46808,3.74213 -3.24238,8.06224 0.3492,6.68401 1.15379,-0.44274 3.54874,-0.805 5.3221,-0.805 z M 570.38831,749 c 1.5936,-2.65011 2.90456,-7.95873 3.37497,-13.66667 L 574.53247,726 l -5.28403,-3.66667 c -2.90621,-2.01666 -5.75548,-3.66666 -6.33171,-3.66666 -0.57622,0 -1.76918,1.95 -2.65101,4.33333 -0.88183,2.38333 -3.40236,6.36464 -5.60119,8.84735 -4.4976,5.07828 -4.89429,7.06574 -1.98996,9.97006 4.30372,4.30372 7.65094,4.1428 11.57403,-0.55642 4.34985,-5.21043 6.36004,-4.28535 3.88941,1.7899 -4.19782,10.3224 -2.72344,14.22027 2.2503,5.94911 z m 222.54898,1.37712 c 5.54024,-2.41089 14.61829,-10.04819 14.61829,-12.29827 0,-1.08025 -0.81475,-2.27674 -1.81053,-2.65886 -1.17535,-0.45102 -1.52726,-1.82344 -1.00308,-3.91192 1.08252,-4.31307 -1.81451,-5.9784 -4.59156,-2.63943 -1.18272,1.42203 -5.05034,4.88941 -8.59472,7.70532 -7.83428,6.22408 -8.47806,7.66896 -5.33787,11.98016 2.91699,4.00477 2.17088,3.80235 6.71947,1.823 z m 34.4783,-27.84352 c 0.48674,-0.78755 -0.16756,-3.766 -1.45398,-6.61879 -1.90559,-4.22582 -2.02671,-5.56312 -0.65368,-7.2175 2.44974,-2.95176 3.7591,-2.53302 6.57909,2.10406 2.41073,3.96414 2.55239,4.0152 3.43391,1.23779 0.58102,-1.83064 0.17761,-3.7206 -1.096,-5.13471 -1.10851,-1.23078 -2.80867,-4.78778 -3.77815,-7.90445 -0.96949,-3.11667 -2.43531,-5.66667 -3.25737,-5.66667 -0.82207,0 -3.59723,4.35 -6.16702,9.66667 -2.56978,5.31667 -5.9511,10.80965 -7.51402,12.20665 -3.35503,2.99883 -3.62602,7.40903 -0.792,12.88943 l 2.04969,3.96365 5.88228,-4.04712 c 3.23527,-2.2259 6.28052,-4.69146 6.76725,-5.47901 z M 969.30637,512.71032 c 3.34231,-5.40795 3.34989,-6.04365 0.0723,-6.04365 -12.20638,0 -25.62967,-20.64675 -19.50272,-29.99766 1.95156,-2.97846 1.94157,-3.62805 -0.1224,-7.95614 C 948.51746,466.12079 947.07312,464 946.5439,464 c -0.52922,0 -3.48065,3.00797 -6.5587,6.68439 l -5.5965,6.68437 5.73306,13.58639 c 6.26042,14.8362 9.76516,19.58305 17.87826,24.21449 6.32506,3.61072 7.74587,3.30167 11.30635,-2.45932 z m -37.30635,-25.37699 c 0,-1.01344 -0.6,-2.21344 -1.33333,-2.66666 -0.7592,-0.46922 -1.33333,0.67905 -1.33333,2.66666 0,1.98762 0.57413,3.13588 1.33333,2.66667 0.73333,-0.45323 1.33333,-1.65323 1.33333,-2.66667 z m 46.18564,-98.66965 c 1.71079,-4.45824 -0.76177,-8.26968 -7.16418,-11.04356 -3.49514,-1.51428 -9.00495,-4.39203 -12.24404,-6.39499 -5.03059,-3.11077 -5.74911,-3.27653 -4.92803,-1.13684 1.8368,4.78664 9.51501,13.63506 14.81728,17.07552 6.11884,3.9703 8.43117,4.33466 9.51897,1.49987 z m -0.12226,-16.76616 c 1.2583,-2.03599 -2.3002,-22.76484 -3.99346,-23.26243 -0.77176,-0.2268 -2.99156,-0.75844 -4.93288,-1.18141 -4.3821,-0.95477 -9.13704,-8.60471 -9.13704,-14.69997 0,-5.07522 -1.5801,-6.73764 -7.63413,-8.03187 -5.41555,-1.15773 -7.79601,0.0849 -5.48855,2.86531 0.92042,1.10902 1.73076,4.29989 1.80079,7.09081 0.13213,5.26733 7.81483,22.40767 12.4274,27.72603 3.8546,4.44438 12.35881,10.92934 14.33248,10.92934 0.95588,0 2.13729,-0.64612 2.62535,-1.43581 z m -26.06338,-7.37171 c 0,-1.17748 -1.5461,-3.9783 -3.43578,-6.22406 l -3.43579,-4.08319 0.94424,5.22405 c 0.51933,2.87323 1.20084,5.67406 1.51448,6.22406 1.06791,1.87274 4.41285,1.00797 4.41285,-1.14086 z m 21.15712,-32.28637 c -0.0397,-8.30685 -1.28514,-11.8084 -3.67472,-10.33157 -1.89728,1.17258 -1.90708,8.47596 -0.0187,13.89317 2.24721,6.44636 3.73436,5.01227 3.69334,-3.5616 z m -33.39269,-10.42987 c -0.62961,-3.19906 -4.65504,-5.45229 -6.48011,-3.62722 -1.0521,1.0521 -0.85102,2.06046 0.7252,3.6367 2.8318,2.8318 6.31298,2.82607 5.75491,-0.009 z m 33.56891,-13.68929 c 0,-2.78063 -0.64015,-6.89201 -1.42255,-9.13643 -1.32028,-3.78733 -1.94468,-4.1132 -8.68432,-4.53229 -8.27005,-0.51425 -9.89313,-0.19076 -9.89313,1.9718 0,2.11989 17.51254,18.28992 18.88788,17.43992 0.61166,-0.37803 1.11212,-2.96239 1.11212,-5.743 z m -49.95823,2.41477 c 0.68436,-2.15624 -0.36021,-3.99781 -4.55267,-8.02629 -2.99244,-2.87541 -7.52474,-8.36619 -10.0718,-12.20172 -2.54704,-3.83553 -6.75226,-9.97371 -9.34496,-13.64037 -2.59268,-3.66667 -5.65641,-9.06667 -6.80828,-12 -1.80657,-4.60054 -3.36676,-5.95012 -11.35508,-9.82228 -7.56281,-3.66592 -9.62575,-4.18603 -11.25153,-2.83675 -4.90711,4.07253 -0.26995,14.65903 6.42104,14.65903 3.62329,0 8.69208,3.34054 7.25275,4.77988 -0.54886,0.54884 -2.79791,0.99789 -4.99791,0.99789 -4.5116,0 -5.39778,2.10635 -1.33333,3.16923 1.46666,0.38354 2.66666,1.20737 2.66666,1.83073 0,0.62336 2.23959,3.37297 4.97687,6.11025 2.73728,2.73728 4.98728,5.90728 5,7.04444 0.0165,1.47659 1.38069,2.06758 4.77252,2.06758 3.68869,0 6.18728,1.26556 11.18772,5.66666 3.54108,3.11667 6.91343,5.66667 7.49409,5.66667 0.58067,0 1.46963,1.35 1.97547,3 2.01019,6.55709 6.39227,8.50112 7.96844,3.53505 z m 44.62489,-25.34224 c 0,-3.75308 -6.50713,-24.93684 -7.93013,-25.8163 -0.61808,-0.38199 -1.46368,0.19126 -1.87913,1.2739 -0.41544,1.08263 -3.17831,2.35587 -6.13971,2.82942 -2.9614,0.47354 -5.38436,1.29802 -5.38436,1.83218 0,0.53415 2.15747,3.79672 4.79436,7.25016 4.60757,6.03436 4.70341,6.37948 2.46001,8.8584 -1.28388,1.4187 -2.09134,2.62771 -1.79436,2.68674 0.297,0.0591 3.23999,0.88065 6.53999,1.82585 8.56679,2.45375 9.33333,2.39295 9.33333,-0.74035 z m -22.11966,-5.52614 c -0.51904,-0.91667 -1.9855,-2.86667 -3.25878,-4.33334 -3.05537,-3.51941 -4.41013,-8.22793 -2.6758,-9.29981 3.37702,-2.08711 0.51591,-4.61385 -11.83402,-10.45103 -13.57026,-6.41394 -16.11174,-7.19669 -16.11174,-4.96222 0,3.1419 17.73035,22.00776 25.26104,26.87884 6.22204,4.02461 10.24343,5.03589 8.6193,2.16756 z m -83.87297,-21.01194 c 1.68243,-2.72222 -0.95229,-6.56441 -6.886,-10.04178 -5.67398,-3.32519 -6.04078,-3.87224 -5.36957,-8.0084 0.95564,-5.88894 -1.40968,-7.78867 -8.25713,-6.6318 -5.45855,0.92221 -16.54238,8.33202 -15.34978,10.2617 0.37354,0.60439 2.89375,1.119 5.60047,1.14359 3.73137,0.0339 7.49531,1.80704 15.56685,7.33333 10.7925,7.38924 13.19983,8.36287 14.69516,5.94336 z M 825.2345,236.16365 c 5.45071,-1.5232 4.5608,-3.75145 -2.90963,-7.28553 -5.75437,-2.72225 -7.83853,-4.65481 -10.71033,-9.93127 -1.96111,-3.6032 -3.17665,-6.94028 -2.7012,-7.41573 1.92145,-1.92145 5.46377,-0.64105 9.17056,3.31477 7.81141,8.33626 20.78245,14.77051 20.46997,10.15411 -0.062,-0.91667 -2.91205,-7.03767 -6.33333,-13.60221 l -6.22052,-11.93555 -7.69437,0.36683 c -9.95596,0.47465 -18.43455,-2.39576 -30.6705,-10.38348 -10.19413,-6.65479 -18.43413,-15.0717 -22.06556,-22.53927 -1.9644,-4.03955 -2.54329,-4.35376 -6.61418,-3.59005 -2.45375,0.46032 -7.7701,0.15006 -11.81411,-0.68947 -4.04403,-0.83953 -7.71216,-1.16703 -8.15143,-0.72776 -0.99119,0.99117 5.93924,15.68416 10.04252,21.29087 5.88346,8.0391 16.36186,17.75356 23.2906,21.59254 6.39838,3.54514 8.14523,3.88422 20.01036,3.88422 10.34656,0 13,0.38678 13,1.89501 0,2.91353 -4.0911,6.76929 -7.20665,6.79207 -1.53633,0.0107 -3.67653,0.57896 -4.75597,1.26161 -1.72796,1.09277 -1.72796,1.31615 0,1.86808 1.07944,0.3448 4.66262,1.55953 7.96262,2.69943 3.3,1.13988 7.8,2.24005 10,2.44482 2.66396,0.24795 3.86083,1.0125 3.58334,2.28898 -2.13108,9.80293 -2.23594,9.42609 2.58333,9.28376 2.475,-0.0731 5.95552,-0.53966 7.73448,-1.03678 z m -47.36923,-32.9389 c -11.47922,-6.04887 -21.14833,-17.60171 -22.11061,-26.41823 -0.67447,-6.17968 2.43248,-5.48467 4.94997,1.10727 2.94559,7.7129 12.54279,16.74898 22.74587,21.41597 7.32153,3.34895 7.66865,3.70851 5.27204,5.46095 -3.33341,2.43745 -3.23203,2.45208 -10.85727,-1.56596 z m 23.26912,29.97814 c 2.30943,-0.80506 4.19896,-1.92308 4.19896,-2.48446 0,-0.56139 -3.57157,-1.77866 -7.93682,-2.70503 -4.36527,-0.92636 -9.21912,-2.65835 -10.78638,-3.84885 -1.56724,-1.19051 -4.44566,-3.43352 -6.39649,-4.9845 -1.95084,-1.55096 -7.90677,-5.09773 -13.2354,-7.88172 -14.78565,-7.72485 -26.22439,-22.51285 -34.48872,-44.58705 -4.1472,-11.07723 -4.46544,-11.4984 -12.04132,-15.93544 -10.32848,-6.0492 -23.14866,-19.55551 -31.5015,-33.18749 -3.73346,-6.09308 -7.33796,-11.41814 -8.01,-11.83348 -1.45958,-0.90207 -0.19549,5.3663 3.09242,15.3346 1.75481,5.32023 2.00616,7.98218 1.00718,10.66666 -1.10257,2.96286 -0.26734,6.50314 4.86344,20.6144 9.40007,25.85323 16.93046,38.59656 24.23167,41.00618 8.31412,2.7439 8.83169,1.55438 3.76675,-8.65707 -2.53171,-5.10419 -6.0285,-10.80419 -7.77062,-12.66667 -5.61952,-6.0077 -14.35132,-26.94032 -12.1543,-29.13733 2.08241,-2.0824 5.84952,3.13727 11.46708,15.88867 3.35885,7.62429 6.95885,14.04232 8,14.26226 1.04116,0.21996 3.99301,3.20706 6.55968,6.63799 2.56666,3.43093 6.66605,8.47836 9.10974,11.21651 2.4437,2.73813 4.05828,5.60104 3.58798,6.36201 -1.13219,1.83192 -5.46502,1.75968 -8.50992,-0.14189 -1.98467,-1.23944 -3.25416,-0.92694 -6.77055,1.66666 L 717.08939,202 l 6.35861,5.76412 c 9.47235,8.58673 26.60663,16.22045 36.46069,16.24409 1.88357,0.004 5.22466,0.9964 7.42466,2.20418 13.43358,7.37489 12.70522,7.15717 16.22607,4.85021 3.04988,-1.99836 3.49123,-1.95584 6.85025,0.65997 4.22224,3.28803 5.16562,3.41824 10.72472,1.48032 z m -46.52853,-17.79496 c -5.79091,-3.79956 -13.27251,-12.13524 -13.27251,-14.78766 0,-2.54003 3.20996,-2.51211 5.33334,0.0464 0.91292,1.1 2.33638,2.01608 3.16325,2.03573 2.05104,0.0488 15.50341,12.60255 15.50341,14.46784 0,2.47657 -5.69225,1.54145 -10.72749,-1.76231 z m 162.7275,-63.17165 c 0,-0.60337 -1.8,-4.81293 -4,-9.35457 -2.2,-4.54164 -4,-9.3745 -4,-10.73969 0,-4.28507 -2.893,-5.55682 -8.74662,-3.84497 -2.88936,0.84497 -5.47472,1.69514 -5.74524,1.88926 -0.7605,0.54573 20.11038,23.14702 21.37483,23.14702 0.61436,0 1.11703,-0.49366 1.11703,-1.09705 z M 512.66141,695.93941 c 2.00882,-9.31705 7.39456,-16.41678 10.2713,-13.54005 1.95521,1.95521 -3.67591,13.11249 -8.09854,16.04615 l -3.16585,2.09998 z m -49.03723,-28.95137 c -1.24254,-1.373 -2.63362,-4.36863 -3.09129,-6.65696 -0.45767,-2.28833 -1.66479,-4.48013 -2.68249,-4.87067 -1.01772,-0.39053 -1.85039,-1.62888 -1.85039,-2.7519 0,-3.1052 6.99703,-2.62072 9.02391,0.62482 0.91594,1.46667 2.43526,2.66667 3.37626,2.66667 2.04427,0 6.63014,9.51503 5.23779,10.86769 -2.54588,2.47331 -7.82695,2.53678 -10.01379,0.1204 z m 6.57992,-25.32448 c -0.85488,-1.38323 14.36009,-25.79377 16.99686,-27.26939 3.90596,-2.18588 2.45748,5.88246 -2.57636,14.35094 -5.879,9.89028 -12.58124,15.89442 -14.4205,12.91845 z m -15.9938,-1.83921 c -1.95417,-1.13598 -2.27812,-2.37807 -1.5845,-6.07539 0.78756,-4.198 0.61688,-4.56655 -1.76475,-3.81065 -3.85941,1.22493 -4.8312,-1.30138 -5.10519,-13.27164 -0.13428,-5.86667 -0.31922,-12.72722 -0.411,-15.24566 -0.0917,-2.51844 0.9181,-6.60677 2.24415,-9.08516 2.29088,-4.28166 2.29475,-4.57166 0.0776,-5.8206 -2.89091,-1.62852 -2.98715,-3.31238 -0.24937,-4.36297 1.32272,-0.50757 3.533,0.77968 6.05088,3.52401 3.44856,3.75872 3.86341,5.02063 3.17481,9.65704 l -0.79211,5.33334 4.4079,-4.844 c 8.12625,-8.93027 9.93993,-11.5044 14.33969,-20.3522 4.52606,-9.10176 8.37218,-11.48084 10.04414,-6.21296 1.54516,4.86838 -11.92178,25.6727 -21.19855,32.74844 -3.68882,2.8136 -4.60788,4.696 -6.06612,12.42437 -1.83279,9.71337 -0.67123,14.90301 3.33564,14.90301 1.13114,0 1.96076,1.26254 1.97129,3 0.0107,1.65 0.38,4.35 0.82219,6 0.69833,2.60587 0.30181,2.99467 -3.01822,2.95946 -2.1022,-0.0223 -4.92754,-0.6831 -6.27854,-1.46844 z m 453.82087,-20.15768 c 0.0171,-0.91667 1.66713,-4.61591 3.66667,-8.22054 3.60197,-6.4934 7.41464,-10.11146 8.99253,-8.53356 1.33368,1.33367 -1.81265,11.12619 -4.79164,14.91336 -2.84032,3.61088 -7.92287,4.80002 -7.86756,1.84074 z m -12.69781,-12.26306 c -6.2162,-3.7738 -14.49098,-15.23938 -13.27856,-18.39886 1.56437,-4.07672 4.56386,-3.65435 8.94948,1.26022 4.40568,4.93704 5.04238,5.52843 12.66241,11.76106 4.73417,3.87221 5.50148,6.57374 2.22428,7.83132 -3.41871,1.31188 -4.93563,0.95933 -10.55761,-2.45374 z M 674.66668,589.31025 c -19.27876,-5.07298 -41.35273,-18.94769 -39.48868,-24.82081 1.15624,-3.64297 5.9996,-5.76596 9.87964,-4.33056 1.68171,0.62215 7.38171,3.73464 12.66667,6.91668 11.82219,7.11804 30.67499,11.29577 43.31557,9.59863 4.19475,-0.56319 10.3268,-1.09528 13.6268,-1.18242 5.99368,-0.15826 6,-0.15354 6,4.4884 0,4.26231 -0.55169,4.91066 -6.66666,7.83458 -9.34383,4.46782 -25.67759,5.08886 -39.33334,1.4955 z m 239.57744,-5.35645 c -8.08123,-6.35671 -18.93342,-29.17933 -15.47844,-32.55184 1.93686,-1.89063 5.03041,2.12112 14.08189,18.26148 5.13705,9.16024 6.94857,13.60432 6.13679,15.05491 -1.00587,1.79736 -1.60643,1.7005 -4.74024,-0.76455 z m 16.14262,-19.80075 c -9.08841,-5.83213 -16.27893,-18.74777 -22.5904,-40.57697 -4.97777,-17.21644 -6.44753,-30.24275 -3.4123,-30.24275 2.31184,0 2.5848,0.6698 5.48837,13.46722 3.74384,16.50093 13.60801,38.63648 22.27652,49.98928 7.29751,9.55725 6.54657,12.69504 -1.76219,7.36322 z M 386.93334,466.4 c -2.1082,-2.1082 -2.05965,-7.73539 0.0667,-7.72589 0.91667,0.004 3.91667,0.63229 6.66667,1.396 4.04152,1.12238 5,2.01554 5,4.65922 0,2.8982 -0.577,3.27067 -5.06667,3.27067 -2.78667,0 -5.78667,-0.72 -6.66667,-1.6 z m -14.19333,-14.31896 c -1.14033,-1.26005 -2.07333,-3.55948 -2.07333,-5.10981 0,-1.55035 -1.21822,-4.88352 -2.70715,-7.40707 -5.90548,-10.00904 -0.18507,-20.7546 16.11728,-30.27568 10.47967,-6.12045 13.90572,-6.76769 12.50769,-2.36291 -1.1921,3.756 -5.20725,7.23166 -11.91782,10.31648 -2.93334,1.34844 -7.05756,4.28092 -9.16494,6.51662 -3.18588,3.37985 -3.69081,4.81005 -2.99612,8.48645 1.34016,7.09241 5.76655,13.39312 8.74488,12.44784 1.3888,-0.44079 2.91431,-0.17165 3.39003,0.59807 1.68951,2.73368 -0.74749,6.29438 -5.25473,7.67769 -3.80906,1.16904 -4.9186,1.02083 -6.64579,-0.88768 z m 22.81211,-0.18685 c -2.29335,-2.67844 -2.26146,-2.91986 0.9402,-7.11744 1.82274,-2.38974 5.49676,-6.09212 8.16449,-8.22754 2.66773,-2.1354 7.23448,-6.13254 10.14833,-8.88254 6.14422,-5.79872 9.19487,-6.40196 9.19487,-1.81822 0,3.78431 -11.67747,16.81822 -15.06795,16.81822 -1.29857,0 -2.26538,1.03161 -2.26538,2.41721 0,2.09289 -6.33875,9.58279 -8.10998,9.58279 -0.34689,0 -1.69896,-1.24762 -3.00458,-2.77248 z m 60.07932,-2.15127 c -0.34111,-0.59195 -1.04011,-5.48761 -1.55332,-10.87928 -0.51322,-5.39167 -1.23728,-10.59565 -1.60903,-11.56441 -0.37175,-0.96876 0.64063,-2.46598 2.24973,-3.32714 4.85303,-2.59726 6.3727,0.51304 6.85391,14.02791 0.40693,11.42859 0.29041,12.01951 -2.44691,12.40959 -1.5808,0.22526 -3.15328,-0.0747 -3.49438,-0.66667 z m -70.2981,-7.85615 c 0,-2.77661 7.92923,-9.83024 10.10986,-8.99345 2.67618,1.02695 2.36002,2.51559 -1.31468,6.19029 -3.91547,3.91548 -8.79518,5.47071 -8.79518,2.80316 z m 2.66667,-14.55813 c 0,-0.46808 4.00764,-5.27599 8.90587,-10.68423 7.97845,-8.80918 9.084,-9.59772 10.61646,-7.57212 1.53639,2.03076 2.49652,1.39895 9.42747,-6.20372 6.30509,-6.91617 13.87891,-18.03109 22.78333,-33.43562 1.58582,-2.74344 4.26687,-0.53318 4.26687,3.51761 0,6.01448 -8.71285,19.28093 -19.58092,29.81449 -5.73049,5.55411 -11.91908,11.09946 -13.75241,12.32299 -1.83334,1.22353 -6.33334,4.26149 -10,6.75103 -6.62636,4.49906 -12.66667,7.11685 -12.66667,5.48957 z m -18.66667,-15.76315 c 0,-3.54714 15.10656,-36.22201 18.60052,-40.23216 4.19582,-4.81569 14.56432,-29.82357 20.45408,-49.33333 1.10692,-3.66667 3.64982,-11.16667 5.65087,-16.66667 2.00107,-5.5 4.0944,-11.8 4.65185,-14 0.55746,-2.2 3.09203,-10.9 5.63239,-19.33333 2.54036,-8.43333 5.9406,-20.89967 7.55609,-27.70297 3.93103,-16.55474 6.70432,-23.18927 28.55123,-68.30296 8.10236,-16.73132 11.83172,-22.77616 19.56103,-31.70602 12.38007,-14.30297 29.83791,-27.21339 50.67528,-37.47534 16.01901,-7.889015 28.26004,-11.802855 26.12861,-8.354141 C 556.27133,99.306356 554.87871,100 553.70057,100 c -2.4651,0 -27.73437,13.23577 -35.77844,18.74035 -8.32214,5.69487 -26.00573,20.76573 -31.68036,26.99961 -9.40688,10.33399 -25.03435,35.91191 -23.11433,37.83191 0.89016,0.89017 10.03997,-11.77954 16.54169,-22.9052 6.50075,-11.124 6.47899,-11.10151 18.33088,-18.94738 23.00942,-15.23206 28.96679,-19.64965 33.65798,-24.95853 7.28406,-8.24314 13.68086,-10.90147 13.67294,-5.68207 -0.005,3.5472 -14.36752,17.08695 -23.52752,22.18031 -5.24146,2.91448 -12.99093,7.72349 -17.22104,10.68669 -4.23012,2.9632 -8.47945,5.38764 -9.44297,5.38764 -0.96352,0 -3.04313,2.55 -4.62136,5.66667 -8.07789,15.95212 -24.29747,35.10175 -28.3981,33.52819 -1.92544,-0.73886 -4.7111,3.33326 -6.70753,9.80514 -0.67687,2.1942 -0.38524,3 1.08573,3 1.10614,0 2.36807,0.57751 2.80431,1.28335 1.24692,2.01755 -5.39699,13.98345 -11.71213,21.09399 -4.84376,5.45381 -6.1107,8.12384 -8.08778,17.04474 -1.28937,5.81786 -3.41972,14.17792 -4.73409,18.57792 -6.4502,21.59255 -10.02989,32.97136 -13.63235,43.33334 -2.16709,6.23333 -5.058,15.23333 -6.42424,20 -2.04621,7.139 -7.57105,21.98732 -14.7594,39.66666 -6.01884,14.80303 18.13544,-25.03729 29.30342,-48.33333 3.8671,-8.06667 8.38944,-18.56667 10.04964,-23.33333 7.38997,-21.21763 6.94616,-19.43008 10.74734,-43.28726 1.25111,-7.85224 4.32691,-13.09878 7.23356,-12.33868 1.91615,0.50108 2.5837,-0.37113 3.21766,-4.20424 0.43996,-2.66006 0.8157,-6.93649 0.83501,-9.50316 0.0469,-6.23781 1.80935,-9.03326 4.36037,-6.91609 1.56582,1.29951 3.29536,-0.4448 9.7683,-9.85164 4.32607,-6.28691 11.04212,-16.03608 14.92455,-21.66483 3.88242,-5.62876 10.08421,-15.7841 13.78173,-22.56744 C 509.15773,151.19047 511.58013,148 513.53827,148 c 2.1257,0 2.46002,0.58575 1.71225,3 -3.00899,9.71481 -23.09655,40.94564 -40.20879,62.51399 -8.25781,10.40817 -8.29683,10.49842 -9.56972,22.13506 -1.69293,15.47662 -4.93943,34.2025 -7.26505,41.90508 -1.77956,5.89402 -1.74016,6.25692 0.75018,6.90816 2.20676,0.57708 2.47982,1.39727 1.70208,5.11252 -1.05566,5.04298 -10.17265,23.64002 -14.37721,29.32699 -2.46768,3.33771 -2.61385,4.3286 -1.21089,8.2084 0.87756,2.42685 1.59556,5.75527 1.59556,7.39648 0,4.59621 2.28366,2.18791 7.21228,-7.60588 6.87758,-13.66668 11.60188,-25.31353 14.42716,-35.56747 3.90144,-14.15968 8.10141,-35.37025 7.18521,-36.28645 -0.44736,-0.44736 -2.31592,-0.1288 -4.15234,0.70795 -4.9643,2.26188 -4.31385,-0.78 1.34189,-6.27542 4.53043,-4.40202 4.65247,-4.79341 4.65247,-14.92132 0,-5.72038 0.6,-10.77153 1.33333,-11.22476 0.83847,-0.5182 1.33333,2.50807 1.33333,8.15374 v 8.97777 l 3.08594,-2.89909 c 3.63228,-3.41235 5.88409,-3.70238 6.48297,-0.835 0.61997,2.96841 19.87081,-27.1078 26.93969,-42.08876 5.42638,-11.50003 11.4914,-31.28776 11.4914,-37.49183 0,-1.36592 -0.64285,-2.48349 -1.42857,-2.48349 -3.05283,0 -4.84157,3.71165 -5.54911,11.51442 -0.52082,5.74378 -2.30009,11.28636 -6.05992,18.8772 -7.70288,15.55162 -22.80194,34.43739 -24.86444,31.10022 -0.46752,-0.75646 -1.73081,-1.03739 -2.80733,-0.6243 -2.95249,1.13299 -2.43427,-0.2859 3.14068,-8.59901 10.07247,-15.01957 12.26261,-17.988 15.45424,-20.94589 3.12992,-2.90072 8.78112,-18.53066 8.78112,-24.28658 0,-3.70349 4.4592,-9.01713 9.22315,-10.99042 2.1891,-0.90676 4.92326,-3.08798 6.07592,-4.84715 1.15266,-1.75917 2.8452,-3.19849 3.76121,-3.19849 0.91601,0 3.85043,-1.80103 6.52093,-4.00228 2.706,-2.23051 5.72599,-3.66824 6.8219,-3.2477 2.02893,0.77858 7.64818,-7.4661 14.73901,-21.62534 3.69861,-7.38552 6.04113,-9.13335 8.24115,-6.14897 1.11181,1.50823 2.02756,0.89445 4.66666,-3.12782 3.75738,-5.726644 5.76955,-6.448817 6.36272,-2.28359 0.83494,5.86286 -8.57009,20.4357 -13.18878,20.4357 -1.41939,0 -5.2094,4.35556 -9.82131,11.28682 -4.13049,6.20776 -11.38583,15.51024 -16.12295,20.6722 -4.73712,5.16195 -8.61294,10.44952 -8.61294,11.75016 0,3.64306 -6.51395,22.74456 -10.3145,30.24626 -4.31381,8.51481 -17.88662,28.80606 -24.72445,36.96288 -2.8824,3.4384 -6.83263,6.80657 -8.77828,7.48484 -1.94564,0.67825 -4.43176,2.96501 -5.52469,5.08168 -1.09295,2.11666 -2.35388,4.14849 -2.8021,4.51516 -1.22718,1.00393 -4.74696,27.88398 -3.55473,27.14714 0.56764,-0.35082 1.03208,-1.60245 1.03208,-2.78138 0,-1.17895 0.36761,-1.77592 0.81692,-1.32662 1.58955,1.58955 -5.84749,27.56142 -11.47454,40.07167 -5.26593,11.70744 -1.30488,8.96872 11.24873,-7.77748 15.69492,-20.93665 17.04136,-24.18649 9.429,-22.75841 -5.93388,1.1132 -5.77438,0.68256 6.61622,-17.86286 5.26375,-7.87842 12.18762,-20.56162 15.38638,-28.18489 5.82288,-13.87707 8.58978,-18.52717 11.02401,-18.52717 4.81315,0 -5.09688,25.59405 -16.2624,42 -6.28603,9.23629 -6.84573,11.29065 -2.04792,7.51669 10.48165,-8.24487 32.28573,-45.96011 29.33285,-50.73797 -0.4657,-0.75354 0.0339,-2.73702 1.11003,-4.40772 1.07623,-1.67072 2.38015,-5.43767 2.89759,-8.371 1.7418,-9.87412 5.46225,-13.10772 8.15025,-7.08371 1.22912,2.75457 1.54704,2.55125 5.73337,-3.66667 C 555.70761,186.37035 561.33303,180 562.91613,180 c 4.15699,0 -4.48156,15.50033 -15.29636,27.44656 -4.10845,4.53828 -7.10513,9.60789 -9.06362,15.33333 -6.32131,18.47962 -16.84524,35.2231 -30.30886,48.22112 -7.81618,7.5459 -9.32953,9.74487 -9.9645,14.47894 -1.58091,11.78649 -25.629,40.40132 -34.03465,40.49781 -1.06536,0.012 -4.14174,4.22224 -6.8364,9.35557 -7.72194,14.71028 -27.02462,40.5284 -36.74558,49.14868 -4.84728,4.29844 -9.13798,7.4906 -9.53488,7.0937 -0.8841,-0.88408 6.5543,-12.1076 11.64832,-17.57571 6.42617,-6.89811 14.48638,-25.02359 16.53718,-37.18817 l 0.87467,-5.18819 -4.93043,2.90903 c -2.71173,1.59996 -5.24394,2.59552 -5.62712,2.21233 -0.38318,-0.38319 0.82579,-2.95756 2.6866,-5.72085 6.0911,-9.04516 16.91498,-31.0611 16.19423,-32.93932 -0.38761,-1.01011 0.19024,-4.47272 1.28413,-7.6947 3.71876,-10.95333 8.86812,-31.69794 8.7833,-35.38414 l -0.0845,-3.67266 -1.33338,3.33334 c -0.73338,1.83333 -2.17716,7.33617 -3.20844,12.22852 -2.4287,11.52165 -11.17456,35.14565 -14.22251,38.41724 -1.30405,1.39973 -2.06285,3.34801 -1.68621,4.3295 0.64109,1.67067 -7.77558,19.1853 -14.48422,30.14083 -1.64486,2.68615 -3.71058,6.54275 -4.59046,8.57021 -0.8799,2.02747 -3.10864,4.37378 -4.95278,5.21402 -1.84413,0.84025 -3.35297,2.02968 -3.35297,2.64318 0,2.15412 -9.77265,11.90655 -11.33171,11.30828 -1.75565,-0.6737 -8.66829,6.04732 -8.66829,8.42802 0,0.83561 -0.93644,3.33017 -2.08099,5.54346 -6.24196,12.07063 4.31282,2.93276 18.29702,-15.84076 4.59644,-6.17061 5.55214,-6.84361 7.91938,-5.57669 3.66715,1.96259 2.97495,3.73008 -5.00974,12.79223 -3.78088,4.29108 -9.48088,11.6575 -12.66667,16.36982 -3.18579,4.71234 -7.24569,9.50415 -9.02203,10.64848 -3.22485,2.07748 -3.22837,2.07396 -2.34524,-2.34168 1.35694,-6.78465 -1.66036,-4.6607 -7.13166,5.02015 -4.74383,8.39372 -9.29338,12.8016 -9.29338,9.00401 z M 538.66668,148.92003 c 0,-0.73334 -1.2,-0.24735 -2.66667,1.07997 -1.46666,1.32732 -2.66666,3.01331 -2.66666,3.74664 0,0.73333 1.2,0.24735 2.66666,-1.07997 1.46667,-1.32732 2.66667,-3.01331 2.66667,-3.74664 z m 432.8889,259.52441 C 969.72016,406.60903 970.76377,404 973.33336,404 c 1.77777,0 2.66666,0.88889 2.66666,2.66667 0,2.56958 -2.60902,3.6132 -4.44444,1.77777 z m -530.22224,-8.44136 c 0,-0.73163 2.01884,-4.18163 4.48631,-7.66667 2.46747,-3.48502 7.64967,-11.63678 11.51599,-18.11501 7.06105,-11.8312 9.69069,-14.39508 12.19536,-11.89041 0.91342,0.91342 0.40296,3.24062 -1.57428,7.17704 -4.64107,9.23977 -17.14038,27.56926 -20.31772,29.79477 -3.31468,2.32168 -6.30566,2.65385 -6.30566,0.70028 z m 96.61983,-10.74553 c -3.14937,-5.09579 5.60806,-12.3467 11.2592,-9.3223 3.32479,1.77938 3.50786,3.77648 0.71204,7.76807 -2.22372,3.17481 -10.32002,4.22595 -11.97124,1.55423 z m 290.99222,-3.16932 c -4.6753,-4.67531 3.71372,-15.5138 9.28735,-11.99912 4.56857,2.88089 5.20787,5.57064 2.26496,9.52952 -3.19029,4.29166 -8.5784,5.4435 -11.55231,2.4696 z M 463.17334,335.39719 c -0.96062,-2.50338 0.44427,-4.73052 2.98404,-4.73052 1.1,0 1.62919,0.6 1.17596,1.33333 -0.45322,0.73333 -0.1152,1.33333 0.75124,1.33333 1.1739,0 1.15235,0.5096 -0.0845,2 -2.09673,2.5264 -3.87268,2.5499 -4.82667,0.0639 z m 29.08845,-18.88207 c -0.99592,-1.77961 -1.7186,-1.87619 -4.18046,-0.55864 -4.74221,2.53796 -4.7908,0.53695 -0.11626,-4.78711 2.376,-2.7061 6.9519,-9.02625 10.1687,-14.04477 5.78479,-9.02487 8.53287,-11.23907 8.53287,-6.87515 0,1.79346 0.75808,1.52318 3.73963,-1.33333 4.55597,-4.36489 5.60046,-4.47416 5.57097,-0.58279 -0.0303,3.99446 -6.05067,14.0242 -13.81957,23.0229 -6.77471,7.84712 -8.02635,8.49962 -9.89592,5.15889 z m 51.73822,-30.28271 c 0,-0.97216 1.5,-3.17674 3.33334,-4.89908 5.10368,-4.79465 4.43296,-7.22845 -1.66667,-6.04766 -11.62445,2.25028 -17.83839,2.8485 -18.49823,1.78086 -0.38698,-0.62616 2.35978,-4.4903 6.10392,-8.58698 18.3098,-20.03384 29.132,-45.52758 31.44368,-74.07156 0.89643,-11.06883 2.97779,-14.76186 6.6173,-11.74132 1.1,0.91292 2,2.48638 2,3.49658 0,4.40695 5.07702,-0.26736 15.88008,-14.62044 13.01929,-17.29764 18.97084,-34.12704 19.37635,-54.79118 0.2425,-12.35819 1.81584,-15.55548 4.85772,-9.87169 2.27716,4.25493 1.8055,21.94513 -0.8695,32.61141 -4.18792,16.69889 -10.45924,27.46184 -23.65405,40.5955 l -6.11519,6.08687 2.08853,5.91313 c 4.10248,11.61511 3.8875,46.05687 -0.38096,61.03028 -0.77341,2.71306 -0.47558,3.05874 2.29755,2.66667 3.37831,-0.47764 3.78765,-2.51163 1.89945,-9.43804 -1.35917,-4.98583 2.29452,-6.40935 6.44434,-2.5108 5.67932,5.33545 19.19161,9.68732 32.50901,10.47012 8.44675,0.49649 12.33334,0.26752 12.33334,-0.72657 0,-0.79834 -2.93996,-4.39148 -6.53326,-7.98478 -7.03596,-7.03596 -16.33758,-24.43386 -18.66318,-34.90793 -1.20436,-5.42417 -0.94532,-6.75813 2.78294,-14.33132 3.15407,-6.40681 4.3013,-10.88643 4.92887,-19.24584 0.88028,-11.72557 2.89968,-14.61735 5.33307,-7.63693 3.18578,9.13874 0.4509,25.165 -5.89227,34.52829 l -3.16143,4.66667 4.13496,8.66666 c 6.29554,13.19514 21.8993,31.87763 19.20976,23 -3.25272,-10.73662 -7.4728,-29.47861 -7.4728,-33.18781 0,-2.82561 0.76139,-4.85472 2,-5.33001 2.98456,-1.1453 2.48364,-4.83263 -2.72884,-20.08774 -3.81314,-11.15974 -4.65225,-15.44245 -4.33333,-22.11704 0.29195,-6.11008 0.89545,-8.2774 2.30488,-8.2774 1.34896,0 2.43379,3.13082 3.696,10.66667 2.62449,15.66908 7.45,29.86907 15.09791,44.4286 8.02654,15.28033 12.76012,21.308 14.98565,19.08247 0.83108,-0.83108 2.52109,-1.51107 3.75556,-1.51107 1.23447,0 2.55829,-1.2 2.94184,-2.66667 1.05488,-4.03388 3.2264,-3.22714 6.87625,2.55459 4.08476,6.47068 3.9883,6.41372 12.81402,7.56725 l 7.25673,0.94847 -9.52007,-10.05151 c -12.99753,-13.7231 -24.81654,-34.34812 -31.87178,-55.61858 -3.96418,-11.95132 -5.01095,-23.40022 -2.13951,-23.40022 1.16375,0 2.93017,4.4863 4.98737,12.66667 1.86443,7.41384 6.0782,18.47243 10.16107,26.66667 6.82807,13.70377 6.9852,13.8942 7.42644,9 0.54383,-6.032 3.24855,-6.58756 6.49131,-1.33334 10.25268,16.61234 13.95822,20.9387 24.7985,28.9532 2.75,2.03315 5,4.52543 5,5.53839 0,1.22375 1.60144,1.84175 4.77262,1.84175 4.58102,0 4.73825,0.1564 3.91681,3.89636 -0.73815,3.36078 -0.43197,3.95644 2.2274,4.33333 1.69575,0.24033 3.11871,1.33697 3.16213,2.43697 0.16548,4.1916 2.14804,7.84204 5.4252,9.98932 4.20311,2.75399 15.17579,3.86348 23.16251,2.34207 5.0987,-0.97127 5.9523,-1.58273 5.68239,-4.07051 -0.2524,-2.32642 0.37469,-2.92754 3.05399,-2.92754 2.7515,0 9.50378,3.57349 12.59696,6.66666 2.00836,2.00836 9.76037,6.89503 12.72764,8.02319 1.99713,0.75931 3.05041,1.92389 2.51846,2.78461 -1.3553,2.19294 -10.88129,0.29075 -17.73922,-3.54222 -3.21352,-1.79607 -6.98646,-3.26558 -8.38431,-3.26558 -4.32563,0 -11.78924,3.75546 -11.78924,5.93196 0,1.39074 -1.26015,2.06804 -3.84763,2.06804 -5.56349,0 -25.91551,-7.53057 -27.48571,-10.17014 -0.73333,-1.23278 -2.91704,-4.10252 -4.85269,-6.37722 -3.42236,-4.02181 -3.87255,-4.14769 -16.33333,-4.56714 -7.04768,-0.23724 -12.81398,0.0988 -12.81398,0.74669 0,3.59363 17.99732,15.8204 26.59742,18.06937 5.50533,1.43967 1.55196,3.9854 -5.18398,3.33816 -8.48054,-0.81486 -17.82134,-5.73753 -24.37209,-12.84425 l -5.44728,-5.90961 -6.13037,2.197 c -3.3717,1.20834 -7.71618,2.19404 -9.65438,2.19041 -1.93821,-0.004 -3.86937,0.8934 -4.29149,1.9934 -0.63407,1.65237 0.75099,2 7.96847,2 10.52264,0 11.1188,2.49607 1.10362,4.62079 -9.96653,2.1144 -9.54445,4.23309 2.61379,13.12021 3.58008,2.61688 1.65941,4.98705 -2.96624,3.66044 -6.53316,-1.87368 -11.94683,-5.24828 -14.76201,-9.20185 l -2.73479,-3.84066 -17.70367,0.0369 c -9.89917,0.0207 -20.82128,-0.71252 -24.77564,-1.66307 -3.88957,-0.93497 -7.31847,-1.45344 -7.61976,-1.15215 -0.52895,0.52895 4.08103,5.64095 7.62914,8.45996 0.95109,0.75566 4.71258,2.65563 8.35888,4.22218 9.23774,3.96877 9.68318,6.3826 0.98778,5.35276 -8.56325,-1.01419 -19.06411,-6.30367 -23.32649,-11.74998 -2.99758,-3.8302 -3.76756,-4.13544 -8.29127,-3.28678 -3.52747,0.66176 -6.56069,2.66492 -10.36496,6.84505 -2.95797,3.25024 -6.15045,5.90952 -7.09439,5.90952 -2.94357,0 -3.48114,-2.58347 -1.04256,-5.01023 2.223,-2.21221 2.19852,-2.34301 -0.51286,-2.74016 -3.17151,-0.46457 -8.3182,1.84356 -8.3182,3.73043 0,2.35839 -8.17052,13.29311 -11.93639,15.97464 -4.46316,3.17805 -5.39695,3.34145 -5.39695,0.94437 z m 13.08266,-20.56574 c 2.24968,-4.55367 5.77009,-15.83619 9.56869,-30.66667 0.87589,-3.41963 2.22413,-5.66667 3.40004,-5.66667 3.03736,0 2.46583,12.55923 -1.013,22.26034 -1.6292,4.54317 -2.51761,8.70488 -1.97427,9.24824 0.54336,0.54334 2.6262,0.41337 4.62856,-0.28884 3.31886,-1.16388 3.90263,-2.45278 6.60434,-14.58156 2.68722,-12.06382 2.83978,-14.73135 1.63553,-28.5981 -0.73049,-8.41129 -1.69083,-17.56129 -2.13409,-20.33333 -1.15414,-7.21757 -4.12919,-6.45897 -5.07188,1.29325 -1.11052,9.1322 -5.66798,24.97218 -10.0815,35.03935 -2.09922,4.78831 -3.7654,10.51303 -3.7026,12.72161 0.0989,3.48183 -6.36398,17.485 -9.77184,21.17238 -2.03365,2.20048 -1.28021,3.4 2.1356,3.4 2.4925,0 3.91419,-1.2306 5.77642,-5 z M 660.36384,244 c 1.86456,-1.46667 4.31007,-2.66667 5.43446,-2.66667 4.34465,0 3.33745,-2.6745 -2.5266,-6.70908 -5.48488,-3.7737 -15.70926,-17.33472 -18.3142,-24.29092 -1.0017,-2.67489 -3.63395,-3.16174 -3.60444,-0.66666 0.0453,3.83784 4.16456,18.84353 6.49909,23.67546 2.15605,4.46251 2.25872,5.56212 0.70995,7.60406 -2.41691,3.18652 -2.33574,4.07654 0.43792,4.80137 4.97173,1.29925 8.1025,0.8178 11.36382,-1.74756 z m -144.71127,39.83207 c -3.05921,-1.71203 -2.92688,-4.03327 0.47656,-8.36006 2.22152,-2.82418 2.46898,-3.94806 1.20471,-5.47142 -1.30075,-1.5673 0.43545,-4.11462 9.51404,-13.95887 C 532.95572,249.41877 538.7136,244 539.64319,244 c 3.73114,0 1.22437,4.48231 -7.84838,14.03356 -8.87901,9.34729 -9.42329,10.25691 -7.87186,13.15577 2.86525,5.35378 -3.60927,15.25122 -8.27038,12.64274 z m -83.65256,-3.47324 c 0,-1.35588 0.9,-5.8913 2,-10.0787 1.1,-4.18741 2.89103,-11.00509 3.98007,-15.15042 1.08904,-4.14532 2.94829,-9.01464 4.13168,-10.82071 1.95544,-2.98439 2.34249,-3.09285 4.24557,-1.18979 1.90307,1.90308 1.82091,3.09035 -0.90124,13.02324 -3.94963,14.41187 -13.45608,31.52024 -13.45608,24.21638 z m 54.66667,-25.75622 c 0,-2.36489 9.23603,-15.98229 11.40436,-16.81437 5.5242,-2.11983 3.52384,4.54112 -3.72563,12.40587 -5.29713,5.7467 -7.67873,7.11402 -7.67873,4.4085 z m 129.84094,-5.67786 c -6.97524,-2.66899 -11.05947,-6.96531 -15.02677,-15.80714 -3.71612,-8.28204 -6.81417,-23.98892 -6.81417,-34.54725 0,-3.52048 -0.68273,-5.58271 -2.01787,-6.09505 -1.5156,-0.58159 -0.54086,-2.07444 3.91594,-5.99747 18.37479,-16.17413 30.33351,-51.39087 25.96997,-76.47784 -2.36424,-13.592548 -2.28253,-17.184061 0.40311,-17.719109 3.84721,-0.766462 6.87355,12.464539 6.95017,30.385779 0.1048,24.5052 -6.9242,44.32628 -21.17916,59.72334 -5.51907,5.96124 -7.37549,8.9683 -7.37549,11.94688 0,7.93842 4.19446,27.82468 7.30385,34.6281 3.06927,6.71564 4.35915,7.89017 15.4542,14.07225 4.12766,2.29991 4.18356,2.44897 1.87491,5 -2.71568,3.00079 -3.69547,3.09272 -9.45869,0.88751 z m 33.07777,-54.66471 c -4.39439,-4.53385 -9.58537,-16.93185 -9.58537,-22.8934 0,-5.59309 3.47306,-3.83544 5.86209,2.96669 1.2234,3.48334 4.34008,10.38334 6.92595,15.33334 5.266,10.08042 3.9479,11.97089 -3.20267,4.59337 z M 537.33335,183.63653 c 0,-0.93322 2.0828,-2.81845 4.62845,-4.18937 5.19069,-2.79537 21.18149,-17.93539 25.56704,-24.20673 5.71087,-8.16656 12.177,-22.7993 14.54149,-32.9071 C 584.22725,113.1129 584.82035,112 587.57713,112 c 2.69111,0 3.08955,0.6566 3.08955,5.09133 0,20.58632 -20.54207,52.08263 -42.66667,65.41903 -5.21082,3.14101 -10.66666,3.71704 -10.66666,1.12617 z m 2.84136,-16.89786 c 1.59809,-4.5843 11.8881,-16.072 14.39637,-16.072 3.46099,0 -0.008,6.75756 -6.85747,13.36001 -3.78888,3.65199 -7.34322,6.63999 -7.89854,6.63999 -0.55532,0 -0.39348,-1.7676 0.35964,-3.928 z M 582.87667,151 c 11.58114,-25.4316 13.55828,-31.81439 16.3397,-52.749484 1.5358,-11.559555 1.51703,-11.735445 -1.161,-10.880963 -1.4971,0.477688 -5.76638,1.348866 -9.48726,1.935952 -6.79523,1.072162 -15.371,4.78991 -22.28176,9.659531 -3.00727,2.119054 -4.09155,2.303194 -5.70031,0.968044 -1.75548,-1.456921 -1.7414,-1.919744 0.12093,-3.977627 2.81604,-3.1117 17.82068,-10.419029 23.45455,-11.422474 2.47783,-0.441326 9.90513,-2.814968 16.50513,-5.274763 14.03493,-5.230761 24.87019,-8.038869 36.00001,-9.329895 4.58196,-0.531493 14.92252,-3.705209 24.2023,-7.428148 C 669.78026,58.925077 678.38026,56 679.9801,56 c 5.7474,0 1.70473,3.090003 -8.7061,6.654485 -5.83402,1.997468 -13.90732,4.941352 -17.94065,6.541964 -4.03333,1.600612 -8.00017,3.135466 -8.8152,3.410784 -1.04219,0.352052 -0.74239,4.193494 1.01037,12.946674 3.04151,15.189093 4.78074,54.689173 2.64682,60.112763 -0.8573,2.17893 -2.45456,3.66666 -3.93658,3.66666 -2.29574,0 -2.55972,-1.66881 -3.32181,-21 -0.45533,-11.55 -1.73828,-26.05463 -2.85099,-32.232522 -1.11269,-6.177889 -1.66673,-13.461101 -1.23117,-16.184915 l 0.79192,-4.952389 -10.21421,2.433523 c -13.2798,3.163896 -23.17826,6.478626 -24.17826,8.09666 -0.43843,0.709386 -0.0576,2.180892 0.84631,3.270013 1.176,1.416996 1.3962,5.097908 0.7742,12.94159 -1.43754,18.1281 -6.53574,33.04978 -16.60855,48.61082 -7.99529,12.35157 -10.84828,12.71494 -5.36953,0.68389 z m 214.0896,-3.01485 c -5.89714,-5.19087 -12.96625,-16.86728 -12.96625,-21.41702 0,-2.94897 3.4506,-5.73092 5.92881,-4.77994 1.07952,0.41425 3.43926,3.66689 5.24386,7.22809 1.8046,3.56119 5.72898,9.57173 8.72088,13.35675 5.99714,7.58697 6.44618,8.95548 3.33073,10.15098 -3.38248,1.29799 -3.8742,1.0804 -10.25803,-4.53886 z m -73.63292,-46.45132 c -2.2,-1.38182 -5.4662,-4.104589 -7.25824,-6.050595 -2.99964,-3.257384 -3.08729,-3.709135 -1.10439,-5.692039 1.98291,-1.982905 2.79284,-1.689717 10.20518,3.694147 8.0711,5.862352 9.80188,9.533827 4.81049,10.204437 -1.45917,0.19605 -4.45304,-0.77413 -6.65304,-2.15595 z m 88.64151,-22.009519 c -10.21124,-2.20022 -16.53849,-6.110678 -17.05892,-10.543006 -0.69439,-5.913912 4.50088,-6.090708 12.89933,-0.438966 6.70466,4.5119 14.23035,7.434436 19.18475,7.450225 3.10701,0.0099 2.96865,2.240264 -0.24568,3.960524 -3.13543,1.678033 -5.29212,1.615464 -14.77948,-0.428777 z m 24.02516,-12.271423 c -27.94889,-7.929085 -37.07167,-9.983747 -47.83144,-10.772765 -18.05307,-1.323838 -20.01617,-5.753166 -2.56752,-5.793039 11.24245,-0.02569 18.68408,1.481447 40.39896,8.181921 23.65621,7.299506 28.66667,9.14777 28.66667,10.574606 0,2.003153 -6.6241,1.225749 -18.66667,-2.190723 z"
       id="path950" />
  </g>
</svg>
