<svg width="86" height="97" viewBox="0 0 86 97" fill="none" xmlns="http://www.w3.org/2000/svg">
<g clip-path="url(#clip0_85_519)">
<path d="M10.2147 25.9668C10.0542 26.2082 9.81357 26.8655 9.6665 27.4154C9.51942 27.9653 9.27875 28.8908 9.13167 29.4541C8.98459 30.0174 8.86426 30.621 8.86426 30.8088C8.86426 31.7879 10.1345 29.4943 10.6693 27.5629C11.0303 26.2351 11.0437 26.0741 10.7896 25.8193C10.5356 25.5644 10.4821 25.5779 10.2281 25.9802L10.2147 25.9668Z" fill="white"/>
<path d="M1.72461 47.199C2.46 45.898 2.86112 45.6163 2.67393 46.5284C2.59371 46.9218 2.69621 47.0247 2.98145 46.8369C3.22213 46.6893 3.75695 46.0455 4.18481 45.4152C4.61267 44.7848 5.3748 43.7922 5.88289 43.2155C6.95254 41.9949 7.04613 41.7669 6.55142 41.4987C6.23052 41.3243 6.11019 41.4182 5.49514 42.2498C3.62325 44.7713 2.21933 45.9919 3.04831 44.369C3.19539 44.0739 3.32909 43.7386 3.32909 43.6313C3.32909 43.3094 4.25167 42.4107 4.49234 42.5046C4.70627 42.5851 6.00322 41.2707 6.00322 40.989C6.00322 40.7073 6.20378 40.7476 6.45782 40.6403C6.69849 40.533 7.00602 40.2111 7.12636 39.9428C7.24669 39.6746 7.5141 39.1515 7.74141 38.7893C8.63724 37.3139 9.76037 34.9667 9.68015 34.7521C9.62667 34.618 9.73363 34.3632 9.90745 34.1754C10.3086 33.7328 11.4852 30.5674 11.8061 29.0249C11.9398 28.3677 12.1403 27.63 12.2339 27.3886L12.4078 26.946V27.4423C12.4345 27.9385 11.7392 30.7149 11.2445 32.1903C11.0974 32.6195 11.0172 33.089 11.0707 33.2231C11.1643 33.4779 9.72026 36.4287 8.90465 37.6358C8.65061 38.0114 8.49016 38.3467 8.54364 38.4004C8.59713 38.454 8.93139 38.3199 9.2924 38.1053L9.94756 37.7163L9.82723 38.4138C9.54644 40.0501 8.47679 42.4778 7.62107 43.4033C6.93917 44.141 5.94974 45.6432 6.07007 45.7639C6.19041 45.8846 6.69849 45.3883 7.34029 44.8116C8.63724 43.6581 11.2178 40.1976 12.2473 38.226C12.6083 37.5419 13.0228 36.9786 13.1565 36.9652C14.2797 36.9652 17.502 33.1158 17.7025 31.5331C17.7828 30.9027 17.9833 30.6076 19.0396 29.5883C20.8446 27.8446 22.2486 25.6047 23.0909 23.1234C23.3583 22.3589 23.7594 21.6748 24.3076 21.0713C25.7517 19.4752 26.9149 17.3962 26.3533 17.3962C25.7918 17.3962 25.3907 18.2546 24.7088 19.2606C24.1472 20.0921 24.1071 20.119 23.9466 19.7568C23.5856 18.9521 23.0909 19.3813 22.8502 20.7091C22.7834 21.0981 22.6096 21.6078 22.4625 21.8358C22.3154 22.0638 22.2486 22.332 22.3154 22.4259C22.7165 23.0697 19.7884 28.1263 18.3978 29.2261C17.756 29.7358 17.8362 29.4541 18.6652 28.2202C20.1627 26.0205 21.4864 22.5869 20.8446 22.5869C20.2028 22.5869 20.1494 23.2173 19.3739 25.0682C18.946 26.0876 18.0234 27.791 17.3148 28.8506C15.6568 31.3319 15.6301 31.399 16.4323 31.2514C17.4485 31.0637 17.2747 31.4929 15.1755 34.3095C13.4908 36.5494 12.9693 36.925 13.678 35.3557C14.4267 33.6791 15.4295 30.1918 15.2156 29.9772C15.1621 29.9236 15.1086 29.9906 15.1086 30.1516C15.1086 30.3126 15.0418 30.4735 14.9749 30.5272C14.8145 30.621 15.2824 27.0265 15.4563 26.8923C15.5098 26.8387 15.6836 26.5704 15.8306 26.2888C15.9777 26.0071 16.312 25.6986 16.566 25.6047C16.8201 25.5108 17.3549 25.0682 17.7426 24.5988C18.6519 23.4989 20.4703 20.7896 21.0452 19.6361C21.5533 18.6302 22.4224 16.0684 22.4224 15.5855C22.4224 15.1026 22.9438 14.7003 23.5723 14.0028C24.2007 13.3054 25.1767 12.058 25.7249 11.2264C26.34 10.3009 26.8481 9.71078 27.0352 9.71078C27.6503 9.71078 28.9071 7.75254 28.8002 6.97461C28.7199 6.41128 28.4525 6.51858 27.9445 7.2831C27.5968 7.8196 27.4631 7.90008 27.316 7.69889C27.0219 7.29651 26.7144 7.53794 26.2196 8.51706C25.2703 10.4216 24.5216 11.5215 24.2542 11.4142C24.1071 11.3605 23.706 11.5483 23.345 11.8434C22.9839 12.1385 22.5962 12.3799 22.4759 12.3799C22.3555 12.3799 22.1282 12.5677 21.9678 12.8091C21.8073 13.0505 21.4463 13.3322 21.1522 13.4529C20.5104 13.7212 19.9221 14.432 19.9221 14.9283C19.9221 15.7062 19.1599 17.7986 18.7454 18.1876C18.3176 18.5899 18.0234 18.9789 16.673 20.9908C15.9242 22.104 15.8574 22.2918 16.2585 22.1443C16.4056 22.0906 16.566 22.1309 16.6329 22.2247C16.9137 22.6674 18.9326 20.1458 19.9622 18.0534C20.4703 17.0341 20.6976 16.2964 20.7778 15.5184C20.8714 14.4723 21.1121 13.976 21.5132 13.976C21.9143 13.976 21.7004 14.1235 21.7004 14.3113C21.7004 15.1429 20.8848 17.7986 20.1627 19.341C19.2134 21.3529 16.6463 25.3901 16.566 24.9877C16.4858 24.5988 16.1783 24.639 15.6969 25.095L15.2825 25.484V24.2769C15.2825 23.5258 15.2156 23.11 15.1086 23.177C15.015 23.2441 14.9348 23.9147 14.9348 24.6793C14.9348 26.0339 14.9214 26.0876 14.3064 26.6777C13.5443 27.4154 13.464 27.8178 14.1326 27.5227C14.3732 27.4154 14.6273 27.3618 14.6941 27.4288C14.8145 27.5496 14.2529 30.393 13.7315 32.2976C13.3571 33.6791 12.7287 35.235 11.8061 37.0725C11.1509 38.3869 10.8434 38.7088 10.8434 38.0919C10.8434 37.4749 10.7498 37.4212 10.6295 37.0993C10.4423 36.5762 10.4556 36.4421 10.7899 35.9995C11.3515 35.235 12.5682 32.7402 12.7153 32.0696C12.8223 31.5733 12.7821 31.466 12.488 31.3856C12.1537 31.2917 12.1537 31.2514 12.381 30.4601C12.6885 29.4273 13.1298 26.9192 13.3571 24.8402C13.5309 23.2843 13.5309 23.2709 14.6407 21.876C16.927 18.9789 19.6145 14.7942 20.0157 13.4931C20.1093 13.1712 20.0691 13.0908 19.7884 13.0908C19.5076 13.0908 19.2001 13.52 18.5315 14.7405C18.0368 15.6526 17.2078 17.0072 16.6864 17.7718C16.1649 18.5363 15.2691 19.8373 14.6941 20.6823C13.825 21.9431 13.5977 22.1845 13.3838 22.0101C13.0362 21.7285 12.8089 22.104 12.7955 22.9356C12.7955 23.2843 12.742 23.8477 12.6885 24.2098C12.6083 24.7195 12.5147 24.8402 12.2607 24.7731C11.8729 24.6658 11.4584 25.3767 11.298 26.4229C10.7899 29.6285 10.8434 29.3871 9.86734 32.2306C9.64004 32.8744 9.03836 34.2827 8.53027 35.3557C7.03276 38.4808 3.81044 43.819 4.61267 41.834C5.57536 39.4599 6.31075 37.4749 6.59153 36.5092C6.77872 35.8654 7.16647 34.6582 7.44725 33.8267C7.92859 32.4317 8.40994 30.9161 9.26566 28.019C9.43948 27.4288 9.72026 26.3022 9.89408 25.5242C10.1615 24.3305 10.3219 23.9684 10.9771 23.2441C11.8195 22.2918 12.7153 20.6823 12.5415 20.414C12.488 20.3202 12.3142 20.2397 12.1671 20.2397C12.02 20.2397 11.9264 20.1324 12.02 19.8373C12.2874 18.9655 12.6618 18.429 12.9158 18.5229C13.464 18.7375 15.6301 16.1622 16.7131 14.0296C16.927 13.6138 17.2078 13.2651 17.3282 13.2651C17.4485 13.2651 18.0234 12.9432 18.585 12.5408C19.1466 12.1385 20.1895 11.4947 20.8848 11.1057C22.1148 10.4216 24.0269 8.61095 24.0269 8.12809C24.0269 7.43064 23.1711 7.77936 22.1951 8.89261C21.5667 9.60348 20.7778 10.1936 17.6892 12.2458C16.6284 12.9432 15.8128 13.7882 15.2423 14.7807C14.3732 16.2695 13.1431 17.9729 13.0362 17.8522C12.7821 17.5974 14.868 14.1638 16.1248 12.7823C16.8869 11.9507 19.2535 9.92538 20.3633 9.16086C21.4329 8.42317 24.8157 6.6527 25.15 6.6527C25.4843 6.6527 25.4976 6.55882 25.5645 6.45151C25.8453 5.99549 24.214 6.51858 22.0747 7.57817C19.2936 8.95967 16.9538 10.6899 15.2958 12.6079C14.2663 13.8016 13.7582 14.6198 12.6752 16.8597C9.76037 22.9088 9.38599 23.794 8.85117 26.0205C8.63724 26.9326 8.18264 28.6091 7.835 29.7358C7.50073 30.8625 7.1531 32.0294 7.08624 32.3244C7.00602 32.6195 6.72524 33.4645 6.45782 34.2022C6.19041 34.9399 5.85614 35.9458 5.6957 36.4421C4.90683 39.0576 3.51628 42.4107 2.95471 43.0545C2.48674 43.591 0.467773 47.977 0.467773 48.4464C0.467773 48.9561 1.06945 48.3659 1.71124 47.2393L1.72461 47.199ZM22.77 13.3188C22.9706 13.1444 23.131 13.0773 23.131 13.1712C23.131 13.2651 22.9706 13.4931 22.77 13.6675C22.5695 13.8419 22.409 13.9089 22.409 13.815C22.409 13.7212 22.5695 13.4931 22.77 13.3188Z" fill="white"/>
<path d="M56.4912 0.777931C57.9352 0.885232 59.152 1.15348 62.8824 2.22649C64.4868 2.68252 65.3827 2.78982 65.3827 2.52157C65.3827 2.25332 64.7141 2.07895 61.5453 1.09983C58.6439 0.201189 57.6544 0 56.1436 0C53.8171 0 54.0711 0.603567 56.4912 0.777931Z" fill="white"/>
<path d="M2.08567 52.8457C1.68455 52.9664 1.09624 52.1214 0.922419 51.1825C0.828825 50.6863 0.895678 50.4985 1.32354 50.0425C1.60432 49.7474 2.15252 49.345 2.55364 49.1707C3.44947 48.7549 3.9843 48.2854 4.14475 47.7892C4.33193 47.199 3.87733 47.2795 2.47341 48.1111C0.293999 49.3853 -0.468128 50.8338 0.32074 52.1751C0.5213 52.5104 0.681748 52.9664 0.681748 53.1676C0.681748 53.3688 0.802083 53.6773 0.962531 53.8517C1.18983 54.1065 1.33691 54.1333 1.84499 53.9724C2.44667 53.7846 2.76757 53.3152 2.55364 52.9396C2.48679 52.8323 2.28623 52.8055 2.09904 52.8591L2.08567 52.8457Z" fill="white"/>
<path d="M9.89407 42.7461C8.70408 44.8116 7.68791 46.3004 6.84556 47.2259C5.92299 48.2452 5.78928 48.3257 5.58872 48.0575C5.38816 47.7892 5.24108 47.8965 4.17143 49.0768C3.51627 49.8011 2.98145 50.4449 2.98145 50.512C2.98145 50.7266 3.78368 50.3779 4.67952 49.7743C5.17423 49.439 5.77591 49.0366 6.01658 48.8622C6.25725 48.7013 7.08623 47.9502 7.86173 47.2125C9.31913 45.8042 10.4824 44.0203 10.4824 43.2155C10.4824 42.4108 10.1214 42.3705 9.90744 42.7461H9.89407Z" fill="white"/>
<path d="M17.703 25.0949C17.4088 25.2022 16.1787 27.0263 16.1787 27.3482C16.1787 27.6701 16.4996 27.5226 17.2083 26.758C18.1709 25.6984 18.4383 24.8132 17.703 25.0949Z" fill="white"/>
<path d="M3.79771 52.0945C4.29242 51.5982 4.33254 51.397 3.97153 51.2629C3.67737 51.1556 2.62109 52.0945 2.62109 52.47C2.62109 52.8456 3.27626 52.6176 3.79771 52.0945Z" fill="white"/>
<path d="M59.1111 2.40076C57.988 1.63624 57.2927 1.66307 57.3863 2.45441C57.4532 3.04457 58.2955 3.56766 59.6727 3.86274C60.9429 4.13099 61.2237 4.1444 61.6516 3.91639C62.0794 3.68837 62.1062 3.37988 61.6783 3.37988C61.0098 3.37988 60.007 2.99092 59.1111 2.37394V2.40076Z" fill="white"/>
<path d="M13.4377 37.5552C13.1035 37.5552 12.9163 37.8503 13.0366 38.1856C13.1703 38.5209 13.3976 38.5209 13.6784 38.1856C13.8389 37.9844 13.8522 37.9173 13.6784 37.9173C13.5046 37.9173 13.518 37.8368 13.5714 37.743C13.6383 37.6491 13.5714 37.5686 13.411 37.5686L13.4377 37.5552Z" fill="white"/>
<path d="M38.3872 18.6437C38.0396 17.9731 37.6251 17.0476 37.4647 16.5916C37.1438 15.6796 36.6758 15.4381 36.6758 16.1892C36.6758 16.9403 37.3711 18.6572 37.9594 19.2607C38.9221 20.2533 39.0959 19.9984 38.3872 18.6437Z" fill="white"/>
<path d="M30.8728 18.2145C30.2711 18.7376 30.1508 18.9388 30.3513 19.0192C30.5252 19.0863 30.6187 19.368 30.6187 19.8374C30.6187 21.2591 31.0332 23.3649 31.5279 24.4647C32.0628 25.6451 32.611 26.2218 33.5335 26.5839C34.309 26.879 34.4294 26.8656 34.8038 26.4632C35.1113 26.1145 35.1113 26.1011 34.5497 25.7926C33.0656 24.961 32.8918 24.8001 32.4773 23.9014C32.0628 22.9894 31.5012 20.3203 31.5012 19.2607C31.5012 18.2011 31.7553 18.4559 32.4906 17.6646C34.4026 15.599 35.3386 12.9433 35.3252 9.65722C35.3252 7.25637 34.9107 5.47249 34.3893 5.57979C34.0283 5.64685 34.0149 6.12971 34.3358 7.95382C34.9241 11.3204 33.3196 16.0416 30.8594 18.2145H30.8728Z" fill="white"/>
<path d="M24.3344 15.1967C25.2437 14.3115 25.7116 13.3994 25.257 13.3994C24.8024 13.3994 23.5456 14.9419 23.3316 15.5588C23.2247 15.8539 23.2113 16.0819 23.2782 16.0819C23.345 16.0819 23.8264 15.6796 24.3344 15.1967Z" fill="white"/>
<path d="M3.7433 54.9114C3.36892 54.8041 2.9678 54.7236 2.84747 54.7236C2.56668 54.7236 2.55331 55.4747 2.84747 55.7564C2.9678 55.8771 3.36892 55.971 3.7433 55.971C4.34498 55.971 4.4252 55.9174 4.4252 55.5284C4.4252 55.1394 4.2915 55.0589 3.75667 54.898L3.7433 54.9114Z" fill="white"/>
<path d="M22.9443 17.8255C22.9443 18.1742 23.6797 18.0937 24.375 17.6779C27.3299 15.8941 30.0843 11.6691 30.0843 8.90608C30.0843 6.14308 30.0308 8.22204 29.6698 8.22204C29.3088 8.22204 29.2285 8.36958 28.9344 9.60354C28.6135 10.9582 27.7578 12.9165 26.9956 14.0163C26.4073 14.8613 24.268 16.8866 23.5728 17.2621C23.2385 17.4499 22.9577 17.7048 22.9577 17.8255H22.9443Z" fill="white"/>
<path d="M47.2923 23.6063C46.8645 23.6063 46.6506 23.5258 46.6506 23.3649C46.6506 23.2039 46.3564 22.8954 45.982 22.6272C44.538 21.5542 44.0433 20.9774 42.6661 18.7375C42.2382 18.0267 41.8772 18.1071 41.797 18.9119C41.7435 19.5691 41.7168 19.5423 40.8076 17.7047C40.2594 16.6049 39.6978 15.1161 39.4438 14.1236C39.163 13.0237 38.9357 12.4202 38.7752 12.4202C38.3875 12.4202 38.5346 13.9492 39.056 15.5587C40.0053 18.4156 41.5831 21.1786 43.3213 23.0161L44.5915 24.3708L43.6154 24.2501C42.4388 24.0892 42.4522 24.1026 41.904 23.2307C41.4226 22.4528 41.1285 22.3455 40.9814 22.882C40.9279 23.0832 40.7541 23.2442 40.5936 23.2442C40.4332 23.2442 40.2059 23.338 40.0856 23.4453C39.7914 23.7404 39.1496 22.9357 38.08 20.8835C37.0638 18.9253 36.4086 17.0207 36.061 14.9283C35.8872 13.9224 35.7535 13.4932 35.5663 13.4932C35.3791 13.4932 35.2989 13.7883 35.2588 14.6064C35.2186 15.5051 35.3256 16.0818 35.8337 17.5706C36.529 19.6228 36.5958 20.1056 36.1947 20.2666C36.0343 20.3336 35.9273 20.6019 35.9273 20.9774C35.9273 21.353 36.4889 23.9953 36.9301 25.4304C37.2911 26.6241 35.2053 24.116 34.3629 22.3455L33.8147 21.1786L34.2426 20.5482C35.0849 19.2874 35.4593 17.1414 35.0315 15.9209C34.7106 14.982 34.4298 15.371 34.3228 16.9402C34.2426 18.0669 34.0821 18.657 33.6677 19.5155C33.1729 20.5348 33.1328 20.7092 33.2933 21.4335C33.6008 22.8418 34.8443 25.1756 35.7936 26.1145C36.2749 26.5973 36.6627 27.0802 36.6627 27.1875C36.6627 27.2948 36.1412 27.3484 35.0181 27.2814C33.2398 27.1741 31.4348 26.5973 30.6726 25.873C30.1244 25.3499 29.6297 25.5377 29.8169 26.2083C30.0709 27.1338 30.0175 27.4155 29.5629 27.4691C29.1885 27.5228 29.1484 27.4691 29.2553 27.107C29.8303 25.0951 29.857 20.4812 29.3088 18.9253L29.028 18.134L29.8436 17.3158C31.6086 15.5587 32.4509 14.1102 33.0125 11.8703C33.3735 10.4351 33.427 8.06108 33.1328 7.49775C32.7317 6.73323 32.5178 7.16244 32.4777 8.8256C32.4242 11.602 31.6219 13.8553 29.8838 16.1757C28.4397 18.1071 27.7578 18.7241 27.7578 18.134C27.7578 17.5438 27.6375 17.7852 27.4904 17.6645C27.0091 17.2621 26.7283 17.7584 26.608 19.2338C26.3004 23.0564 24.8564 26.4766 22.4096 29.1725C21.9149 29.7224 21.5405 30.2455 21.594 30.326C21.6876 30.4736 22.5165 30.3931 24.0675 30.0846C24.8831 29.9236 24.9767 30.259 24.2948 30.8893C24.0542 31.1174 23.8536 31.4124 23.8536 31.5466C23.8536 31.8685 23.9739 31.8416 24.5756 31.4258C25.0837 31.0637 26.1667 29.6017 26.1667 29.2798C26.1667 28.9579 26.8486 28.7165 27.2765 28.7836C27.6375 28.8372 27.6375 28.8506 27.3433 29.1457C27.0224 29.4676 27.0893 29.8163 27.477 29.8163C27.8648 29.8163 28.0252 29.4542 28.4264 29.025C28.9344 28.4617 29.3356 28.1934 29.8169 28.1129C30.4186 28.0056 30.5256 28.0459 30.9267 28.5555C31.5016 29.2798 32.9055 29.9907 34.042 30.1382C35.2053 30.2724 35.1384 29.9505 33.9083 29.414C33.427 29.1994 32.9189 28.9445 32.7852 28.8506C32.3172 28.4751 31.6888 27.791 31.769 27.7106C31.8091 27.6703 32.2637 27.7374 32.7852 27.8715C33.32 28.0056 34.7774 28.0995 36.1011 28.0995H38.4677L38.8287 28.6092C39.2031 29.1457 39.9251 29.5883 40.8076 29.8432C41.4226 30.0175 41.6767 29.709 41.2087 29.3469C39.5775 28.1532 39.524 27.8715 40.8611 27.5898C42.1981 27.3082 42.1179 26.9729 40.714 26.9729C39.3101 26.9729 39.5641 26.9326 39.6443 26.7046C39.6978 26.5571 39.9652 26.4364 40.2193 26.4364C40.4733 26.4364 41.0616 26.3022 41.5162 26.1413L42.3318 25.8462L43.0538 26.6375C43.9363 27.5898 45.1798 28.2471 46.3163 28.3544C47.2121 28.4348 47.7469 28.0995 47.0116 27.9117C45.8617 27.6167 43.455 25.9669 43.455 25.4841C43.455 25.0012 44.2305 25.3499 45.1664 25.3902C46.8377 25.4438 46.8912 25.4572 47.3458 26.0072C47.5999 26.3156 47.894 26.6912 48.001 26.8656C48.2149 27.2143 50.9292 28.2336 51.6779 28.2336C52.4267 28.2336 52.186 28.1398 52.186 27.952C52.186 27.6569 53.1888 27.1606 53.7637 27.1606C54.3387 27.1606 54.459 27.3618 54.8869 27.6033C55.8094 28.1129 57.0797 28.3678 57.2535 28.0727C57.3203 27.952 57.1866 27.8044 56.9192 27.6971C56.5181 27.5496 55.4885 26.8924 55.2211 26.6241C54.8066 26.2083 53.9108 25.7255 53.5364 25.7255C53.1621 25.7255 53.0952 25.806 53.1219 26.1145C53.1621 26.4498 53.0417 26.5302 52.3598 26.6644C51.2902 26.8656 49.8194 26.718 49.2578 26.3559C48.8166 26.0742 48.5492 25.578 48.5358 25.0146C48.5358 24.8671 48.3353 24.7195 48.1079 24.6927C47.7469 24.6391 47.7068 24.5586 47.8138 24.116C47.9208 23.6197 47.9074 23.5929 47.2923 23.5929V23.6063ZM28.4264 26.1949C28.0654 27.8179 27.9851 27.9922 27.5439 28.1532C27.2765 28.2471 26.9957 28.2605 26.9288 28.1934C26.862 28.1263 26.969 27.563 27.1963 26.9594C27.6642 25.6584 27.7445 23.9684 27.33 23.9684C26.9155 23.9684 26.9957 24.2635 26.8754 24.733C26.3673 26.718 25.8993 28.2336 25.5918 28.8506C25.3377 29.3603 25.1506 29.5213 24.8163 29.5213C24.482 29.5213 24.2547 29.3603 24.5355 29.0652C24.9901 28.569 25.8592 26.6912 25.8458 26.2218C25.8458 25.9267 26.0598 25.1622 26.3405 24.5184C26.9288 23.1637 27.5439 21.0445 27.691 19.8239C27.8113 18.7778 28.2124 18.6839 28.3729 19.6496C28.4264 20.0251 28.5601 21.2457 28.6537 22.3723C28.8141 24.2367 28.8007 24.5854 28.4397 26.2083L28.4264 26.1949ZM40.1257 25.5645C39.9786 25.5645 39.6443 25.7255 39.4037 25.9267C38.9624 26.2754 38.5479 26.3291 37.8794 26.1547C37.505 26.0608 37.4917 25.9401 37.8259 25.5109C38.0265 25.2426 38.0131 25.0951 37.7323 24.4915C37.4248 23.8477 36.8632 21.8358 36.8632 21.3127C36.8632 20.9774 37.2109 21.0445 37.3446 21.4066C37.6922 22.3455 39.056 24.1562 39.7914 24.6659C40.5803 25.2024 40.714 25.5645 40.1257 25.5645Z" fill="white"/>
<path d="M23.2647 25.9268C23.1444 25.9268 22.3689 26.651 21.5533 27.5363C20.3365 28.8507 20.1092 29.1994 20.2831 29.414C20.4569 29.6152 20.4168 29.7628 20.1226 30.1517C19.668 30.7285 19.6546 31.037 20.0558 31.2784C20.6842 31.6271 21.5399 30.2993 21.1655 29.5884C20.9516 29.1994 21.0318 29.0787 22.2218 27.8179C23.4385 26.5303 23.7728 25.9402 23.2647 25.9402V25.9268Z" fill="white"/>
<path d="M18.251 34.9668C19.2939 33.7596 20.0962 32.4184 20.0962 31.8819C20.0962 31.3588 19.9625 31.3722 19.3474 31.9624C18.9463 32.3513 18.8527 32.3781 18.8527 32.1367C18.8527 31.5466 18.4917 31.8551 17.7162 33.0622C17.2883 33.7328 16.6733 34.5778 16.3524 34.94C15.724 35.6508 15.7373 35.9191 16.3657 35.5838C16.7 35.4094 16.7936 35.4228 16.9273 35.6642C17.1814 36.1068 17.3418 36.0264 18.251 34.9668Z" fill="white"/>
<path d="M26.059 6.59907C26.273 6.77344 26.4201 6.76002 26.8212 6.46495C27.7438 5.80773 28.8936 5.31146 29.8028 5.16392C30.2975 5.08345 30.8725 4.96273 31.073 4.90908C31.434 4.78837 31.4341 4.8152 31.2335 6.37106C30.8591 9.17429 30.5917 10.0327 29.0541 13.4395C28.3187 15.049 28.7064 15.0088 29.7761 13.3456C31.1265 11.2532 31.8084 9.25477 31.9956 6.82709C32.0758 5.7809 32.0491 5.28464 31.8887 5.09686C31.7683 4.94932 31.7148 4.74813 31.7817 4.65424C31.9154 4.43964 33.2391 3.99703 35.0174 3.56782L36.3812 3.24592L36.2742 3.91655C36.2207 4.27869 36.2876 5.25781 36.4347 6.08939C36.5817 6.92098 36.7556 8.8658 36.8224 10.4083C36.9294 12.9969 36.9561 13.2249 37.2637 13.2249C37.5712 13.2249 37.6781 13.0237 37.7851 12.7286C38.0659 12.0044 37.8386 6.70637 37.4375 4.66766C37.1968 3.48735 37.1567 2.97767 37.3038 2.93743C37.4107 2.89719 37.9456 2.696 38.4804 2.4814C39.0152 2.2668 40.0982 1.87783 40.8737 1.60958C42.2643 1.12673 42.8125 0.710938 42.037 0.710938C41.2615 0.710938 40.6732 1.0999 39.4832 1.58276C38.2397 2.07902 36.8625 2.50823 36.2475 2.57529C34.7633 2.74965 33.3059 3.12521 31.4341 3.82266C30.5516 4.15798 29.5622 4.46647 29.2279 4.53353C28.4791 4.66766 26.4735 5.64678 26.0858 6.06257C25.8317 6.34423 25.8317 6.39788 26.0724 6.59907H26.059Z" fill="white"/>
<path d="M12.6755 79.2148C13.1167 79.2148 13.1702 79.1611 13.0766 78.8124C13.0231 78.5844 12.9696 78.2357 12.9696 78.0076C12.9696 77.7796 12.8627 77.6053 12.7022 77.6053C12.1674 77.6053 12.0069 76.9078 12.261 75.6068C12.4615 74.574 12.5819 74.3192 13.0766 73.9436C14.3201 72.9913 16.1117 70.2015 15.9112 69.5577C15.6839 68.8468 15.1758 69.1687 14.5741 70.3893C13.9858 71.5696 13.7451 71.9183 12.6621 73.1255L12.0738 73.7693L12.1807 73.0584C12.2743 72.4414 12.2209 72.267 11.7529 71.7574C11.4186 71.3952 11.1245 71.2209 10.9373 71.2879C10.5763 71.4355 10.5896 71.6501 10.964 71.8781C11.2582 72.039 11.2582 72.0793 10.964 72.656C10.7902 72.9913 10.6565 73.5412 10.6699 73.8766C10.6699 74.2119 10.71 75.1373 10.7233 75.9153C10.7635 77.5248 10.8838 77.8601 11.4053 77.6991C11.7261 77.5918 11.7529 77.6455 11.6459 78.2088C11.5523 78.7051 11.5924 78.866 11.8599 79.027C12.047 79.1343 12.4214 79.2148 12.7022 79.2282L12.6755 79.2148Z" fill="white"/>
<path d="M24.6288 45.2006C25.0032 44.6641 24.9764 44.3959 24.5352 44.1544C23.7731 43.7521 22.6098 44.7178 23.0243 45.4018C23.2516 45.7639 24.3213 45.6164 24.6288 45.1872V45.2006Z" fill="white"/>
<path d="M85.9335 56.6414C85.8132 56.3732 85.7998 56.1183 85.9068 55.9574C86.0539 55.7294 85.9736 54.8441 85.7731 54.5088C85.733 54.4417 85.5324 54.482 85.3318 54.6027C85.0109 54.8039 84.9842 54.938 85.0912 55.9574L85.2115 57.084L84.1552 58.1034C83.5803 58.6667 82.7379 59.4581 82.2833 59.8739L81.4677 60.625L80.3713 59.6056C78.9273 58.2509 78.9006 57.8217 80.2911 58.4119C81.5881 58.9484 82.885 58.5594 81.6282 58.0095C80.7724 57.634 79.7162 56.6012 79.2616 55.7025C79.0209 55.2331 78.6866 54.6295 78.5128 54.3613C78.2721 53.9991 78.2454 53.7845 78.3791 53.4224C78.5663 52.9261 78.7535 52.8591 79.2348 53.1407C79.4086 53.2346 79.7563 53.3956 80.0237 53.4895C80.3178 53.5968 80.6521 53.9455 80.866 54.3613C81.334 55.2733 82.417 56.172 83.0588 56.172C83.7006 56.172 83.6872 55.9842 83.1792 55.5282C82.5374 54.9514 81.4009 53.3151 81.5078 53.1273C81.5613 53.0334 81.8154 52.9529 82.056 52.9529C82.6176 52.9529 82.6042 52.7115 82.056 52.3494C81.4945 51.9872 80.7457 51.9738 80.3446 52.3494C80.0638 52.6042 80.0103 52.5774 79.6359 52.0677C79.1412 51.3837 79.3284 51.1288 80.358 51.0752C81.2939 51.0349 81.3875 50.9142 80.866 50.4716L80.4382 50.1229L81.1869 50.0022C81.6014 49.9351 81.8956 49.8144 81.8421 49.7205C81.7886 49.64 81.0131 49.184 80.1173 48.728C78.232 47.7489 77.0955 46.6893 76.2933 45.1602C75.7852 44.1945 75.2637 42.813 75.0766 41.9412C75.0364 41.7534 74.876 41.1499 74.7289 40.5999C74.5818 40.05 74.408 38.9904 74.3412 38.2259C74.2743 37.4748 74.1406 36.8578 74.0604 36.8578C73.9802 36.8578 73.6994 36.9919 73.4587 37.1529C73.0308 37.4346 72.9907 37.4211 72.5495 37.0188C71.5467 36.1067 70.8648 35.2885 70.1428 34.1753C69.7283 33.5315 69.3004 32.9547 69.2068 32.8743C69.033 32.7401 69.4341 32.3378 69.6614 32.4317C69.7149 32.4585 70.3032 33.0755 70.9718 33.8132C71.6403 34.5509 72.5629 35.3824 73.0175 35.6775C73.4721 35.9726 73.8732 36.2677 73.8999 36.3481C73.9267 36.4286 74.1139 36.4957 74.2877 36.4957C74.4615 36.4957 74.7423 36.7639 74.9696 37.2602C75.6649 38.7356 76.2398 39.0307 76.2398 37.904C76.2398 36.7773 76.3067 37.3809 76.5473 37.4211C76.7746 37.4614 76.895 37.7296 76.9752 38.4673C77.042 39.0038 77.1757 39.6745 77.2827 39.9427C77.51 40.5597 77.256 40.5865 76.9752 39.983C76.6944 39.3526 76.2264 39.4062 76.2264 40.05C76.2264 40.6938 76.8549 42.7594 77.3362 43.7385C78.1384 45.3614 79.7429 46.5015 81.2003 46.4747C81.6148 46.4747 81.9758 46.4881 82.0025 46.5283C82.0293 46.5685 82.27 47.2794 82.5507 48.111C82.8182 48.9426 83.1925 49.7876 83.3664 49.9888C83.5402 50.19 83.7675 50.874 83.8878 51.5044C84.1686 53.0603 84.5831 54.0125 84.9976 54.0125C85.4121 54.0125 85.6126 53.2749 85.3586 52.6176C85.2516 52.3494 85.0778 51.7056 84.9575 51.1959C84.797 50.485 84.6633 50.257 84.4226 50.257C84.0483 50.257 83.8744 49.8949 83.9948 49.412C84.0483 49.2242 83.9279 48.5939 83.7274 48.0037C83.1792 46.3674 82.7379 43.5775 82.9786 43.1483C83.1123 42.8935 83.0989 42.5314 82.9251 41.8339C82.5374 40.2914 82.2299 37.7699 82.3502 36.9383C82.4037 36.5225 82.4037 36.1201 82.3234 36.0531C82.2566 35.986 82.2165 35.4763 82.2432 34.913C82.3101 33.679 82.0026 32.0159 81.1201 28.7164C80.612 26.8252 80.4783 26.0338 80.5585 25.4303C80.6789 24.5853 80.4783 23.6464 79.9034 22.3588C79.7028 21.9162 79.4488 21.2724 79.3151 20.9236C78.5529 18.8179 76.1328 14.6063 74.6487 12.809C74.408 12.5273 73.8732 11.6019 73.4453 10.7569C72.496 8.8657 70.6241 6.78675 68.2308 4.98946C66.8001 3.90304 66.4926 3.74208 66.038 3.83597C65.7438 3.88962 65.4631 3.8628 65.4096 3.76891C65.3561 3.67502 65.1956 3.59455 65.0619 3.59455C64.233 3.59455 64.8213 5.71374 65.9578 6.82698C66.6932 7.55127 66.76 7.57809 67.0408 7.29643C67.3216 7.01476 67.3216 6.97452 66.9739 6.58556C66.653 6.23683 65.8508 4.81509 65.8508 4.60049C65.8508 4.38589 66.6664 4.81509 67.4285 5.53937C68.057 6.12953 68.3378 6.55873 68.418 7.00135C68.7656 9.05348 68.7656 8.91935 68.3912 8.90594C68.1907 8.90594 67.8163 8.6511 67.5622 8.38285C67.3082 8.11459 66.9606 7.89999 66.7868 7.94023C66.2653 8.03412 66.4391 8.63769 67.1478 9.21443C67.7762 9.72411 67.8297 9.73752 68.1372 9.45586C68.5784 9.05348 68.6453 9.06689 68.9929 9.73752C69.3138 10.3679 69.6614 10.7837 71.6938 13.0504C72.4292 13.8552 73.1646 14.5258 73.325 14.5258C73.6192 14.5258 74.047 15.5049 74.047 16.189C74.047 16.873 75.3841 17.718 76.0125 17.946C76.3601 18.0802 76.7078 18.6167 77.5769 20.414C78.1919 21.6882 78.6866 22.8148 78.6866 22.9221C78.6866 23.0294 78.593 23.2708 78.4727 23.4586C78.2989 23.7269 78.3256 23.9951 78.593 24.7865C78.7802 25.3364 78.8738 25.8327 78.8203 25.8863C78.7134 25.9936 77.7774 25.7522 76.8548 25.3632C76.2799 25.1218 76.2131 24.7865 76.7211 24.6523C77.4565 24.4646 77.149 24.0622 75.3039 22.8282C74.622 22.3722 74.0069 21.9162 73.9534 21.8223C73.8999 21.7284 73.6593 21.7016 73.432 21.7552C73.0977 21.8357 72.9774 21.7552 72.7768 21.326C72.6164 20.9773 72.135 20.5481 71.3729 20.0921C69.969 19.2471 69.1801 18.2545 68.3377 16.2695C67.6157 14.5661 67.3349 14.2173 66.9739 14.5124C66.8402 14.6197 66.7199 14.9014 66.7199 15.1294C66.7199 15.6257 67.5221 17.9192 67.9366 18.6033C68.4581 19.4617 69.5411 20.5481 70.2364 20.9102C70.6108 21.098 71.3863 21.7418 71.9612 22.332C72.5361 22.9221 73.4587 23.7135 74.0069 24.0756C74.5551 24.4512 75.3039 25.0413 75.6381 25.4034C76.1328 25.9131 76.4938 26.1143 77.2961 26.2753C78.1117 26.4496 78.3791 26.4362 78.593 26.2753C78.954 25.9802 79.1813 26.235 79.3284 27.0934L79.4354 27.7775L78.6733 27.6568C77.8978 27.5361 75.1033 26.4094 73.8866 25.7388C71.0252 24.1427 67.8831 20.5213 65.8642 16.5109C64.9015 14.5929 64.8614 14.4722 65.1689 14.2307C65.4764 14.0027 65.4764 13.9759 65.0753 13.8552C64.848 13.7881 64.5539 13.5735 64.4335 13.3992C64.3132 13.2248 64.0859 13.1175 63.9388 13.1711C63.6313 13.2919 63.5644 12.7822 63.8586 12.6078C63.9655 12.5408 63.8318 12.2591 63.5377 11.9104C63.1499 11.4677 62.9761 10.9983 62.7889 9.95212C62.6552 9.17419 62.468 8.58404 62.3477 8.58404C61.9065 8.58404 61.7193 9.05348 61.7193 10.1399C61.7193 11.2263 61.6524 11.2666 61.5588 11.2666C61.385 11.2666 59.4062 7.49761 59.4062 7.1623C59.4062 6.82698 59.7538 7.00135 60.5427 7.08182C61.4786 7.17571 61.7861 7.13547 62.2675 6.86722C62.6419 6.65262 62.8692 6.59897 62.9226 6.71968C63.2569 7.64515 64.5806 9.88506 65.4096 10.9178C66.3054 12.0311 68.1907 13.5869 68.6453 13.5869C69.0999 13.5869 68.9795 14.0161 69.1935 14.5258C69.4074 15.0489 69.862 15.8939 70.2096 16.417C70.5573 16.9401 70.8381 17.3827 70.8381 17.4095C70.8381 17.4364 71.1723 17.8387 71.6002 18.3082C73.3384 20.253 77.5368 22.3722 77.0287 21.0444C76.9752 20.9102 76.1729 20.3469 75.2504 19.797C74.1139 19.1129 73.1779 18.3752 72.3757 17.5168C70.8648 15.9207 69.5277 13.9223 69.6882 13.5199C69.755 13.3589 69.7283 13.2248 69.6347 13.2248C69.5411 13.2248 69.2871 12.8895 69.0598 12.4871C68.7656 11.964 68.6052 11.8165 68.4982 11.9908C68.2575 12.3798 67.6291 11.897 66.4391 10.3813C65.4363 9.10713 64.126 6.78675 63.7917 5.71374C63.5109 4.77485 62.936 3.74208 62.7087 3.74208C62.3611 3.74208 62.214 4.53343 62.4413 5.19065C62.5483 5.49914 62.6419 5.91493 62.6419 6.11612C62.6419 6.43802 62.5616 6.46484 61.7059 6.34413C60.3822 6.16977 58.3231 5.57961 57.2401 5.04311C56.732 4.80168 55.9565 4.41271 55.5153 4.21153C54.6997 3.80915 53.269 2.50812 52.4668 1.43512C52.1192 0.965674 51.932 0.858373 51.6378 0.952261C51.0228 1.15345 51.0094 1.56924 51.5843 2.40082C52.547 3.79573 53.8707 4.78827 56.3042 5.91493C56.5047 6.00881 57.1331 6.22342 57.7215 6.41119C58.3098 6.59897 58.8045 6.81357 58.8312 6.89405C58.858 6.97452 58.7644 7.20254 58.6173 7.40373C58.3632 7.73904 58.3365 7.73904 56.7053 7.32325C53.6835 6.54532 50.8356 5.15041 49.3782 3.76891C48.4957 2.92392 47.747 1.71678 47.9208 1.43512C47.9743 1.35464 48.362 1.22051 48.7765 1.15345C49.191 1.08639 49.9932 0.912023 50.5682 0.777897C51.1297 0.630359 52.0523 0.509645 52.6139 0.509645C53.8039 0.509645 54.2585 0.402344 54.2585 0.134092C54.2585 -0.13416 53.4027 -0.0268592 51.4105 0.0536164C48.9904 0.147505 48.362 0.241393 47.2656 0.630359C46.5169 0.898611 45.4472 1.11321 44.7252 1.15345C44.0433 1.19369 43.0405 1.35464 42.4923 1.51559C41.9575 1.67654 41.2488 1.87773 40.9146 1.95821C40.2594 2.13257 40.0588 2.2667 40.2193 2.42765C40.2728 2.4813 40.6338 2.44106 41.0081 2.33376C42.0644 2.03868 42.5324 2.10575 41.7836 2.45447C40.0321 3.25923 39.2833 3.6482 39.2833 3.78232C39.2833 4.01034 39.5374 3.9701 40.4466 3.56772C40.9012 3.36653 41.8906 3.00439 42.6394 2.73614C43.3881 2.4813 44.2438 2.14598 44.538 1.98503C45.0996 1.68995 47.1586 1.2071 47.279 1.32781C47.3191 1.36805 47.2121 1.55583 47.0383 1.74361C46.7442 2.06551 46.7442 2.11916 47.0784 2.85685C48.0678 5.06993 51.2902 6.96111 56.1437 8.18166C56.946 8.38285 57.8819 8.5438 58.2295 8.5438C58.7911 8.5438 58.8713 8.61086 59.0719 9.21443C59.7137 11.1861 61.0909 13.037 62.3611 13.6272C62.7087 13.7881 63.2569 14.043 63.5778 14.1905C64.019 14.3917 64.233 14.6465 64.38 15.1562C64.6608 16.0951 65.9578 18.5898 67.0675 20.2932C68.0302 21.782 68.0436 22.2917 67.1076 21.6211C66.1182 20.9236 65.1422 19.6226 64.6608 18.3752C64.1928 17.1815 63.7784 16.7657 63.3238 17.0474C63.043 17.2218 63.2703 18.2814 63.8853 19.569C64.4736 20.8163 65.931 22.2649 66.7734 22.4393C67.1611 22.5197 67.3617 22.7075 67.5622 23.1904C68.1372 24.5853 69.6481 25.6449 70.8514 25.4839C71.4799 25.4034 71.5333 25.4303 71.5333 25.8327C71.5333 26.9861 73.7662 29.9369 75.6114 31.2379C76.1997 31.6537 76.7479 31.989 76.8281 31.989C76.9083 31.989 77.2159 32.4987 77.4833 33.1023C77.7507 33.7059 78.2721 34.524 78.6198 34.8862C78.9674 35.2483 79.2081 35.597 79.1412 35.6641C78.9273 35.8787 78.3122 35.53 77.8576 34.9264C77.403 34.3228 76.8281 34.1216 76.6008 34.4838C76.427 34.7655 74.6219 33.062 73.6192 31.6806C71.881 29.2931 71.4932 28.6225 70.9584 27.0934C70.7177 26.396 70.2631 26.0204 70.1294 26.4094C70.0091 26.7581 69.6213 26.6642 68.1639 25.9265C66.5595 25.1218 64.848 23.861 64.1928 23.016C63.5644 22.1978 62.2407 19.7567 62.2407 19.408C62.2407 19.0593 62.1739 19.1129 62.107 19.1129C61.9332 19.1129 61.024 16.4036 60.8502 15.3708C60.7031 14.499 60.2752 14.1369 60.2752 14.888C60.2752 16.0951 58.5905 15.6793 57.0128 14.0832C56.2507 13.3053 56.1571 13.2784 55.7693 13.7077C55.5019 14.0027 55.5287 14.0832 56.117 14.888C56.5315 15.4647 57.0128 15.8671 57.561 16.1085C58.3499 16.4572 58.5772 16.4572 59.9276 16.1487C60.3555 16.0549 60.3822 16.1085 60.6897 17.3693C61.1042 19.0995 61.1042 19.1129 60.4223 19.1129C58.9382 19.1129 55.9699 17.0474 54.7933 15.2099C54.1381 14.1905 53.2958 11.9908 53.4161 11.6555C53.4696 11.508 53.7905 11.4141 54.2718 11.4141C54.7532 11.4141 55.2345 11.28 55.4752 11.1056L55.9164 10.7971L55.2078 10.6496C54.82 10.5691 54.2585 10.4618 53.9643 10.3947C53.6702 10.3277 53.3225 10.207 53.2022 10.1131C52.9348 9.89847 52.908 9.05348 53.1487 8.81205C53.3894 8.57062 53.1888 8.35602 52.3331 7.88658C51.4506 7.40373 51.0228 7.3769 51.0228 7.77928C51.0228 8.18166 50.8891 8.2219 50.7286 8.39626C50.4612 8.69134 50.4879 8.73157 51.1698 9.04006C51.8785 9.34855 52.0924 9.67046 51.718 9.89847C51.6244 9.96554 50.7955 9.65705 49.8863 9.22784C47.9475 8.30237 46.1558 6.74651 45.2868 5.21747C44.5647 3.94327 44.1369 3.74208 43.9764 4.6139C43.8828 5.06993 44.1502 5.72715 44.7653 6.59897C46.1024 8.50356 47.9208 9.79117 50.4211 10.6362C51.1966 10.891 51.8651 11.1324 51.8919 11.1727C51.932 11.2129 52.0256 11.6153 52.1192 12.0981C52.2127 12.581 52.3598 13.1309 52.4802 13.3321C52.6005 13.5601 52.6139 13.8284 52.5203 13.9759C52.3866 14.2039 52.2395 14.2039 51.357 13.9223C49.8863 13.4528 49.2445 13.0773 49.2445 12.6883C49.2445 12.2993 48.9236 12.0713 48.4289 12.3262C48.0545 12.5273 47.9341 12.4871 47.1586 11.8299C45.0327 10.046 43.2678 7.28301 42.6394 4.76144C42.4121 3.84938 42.2382 3.6482 41.8906 3.8628C41.7703 3.94327 41.5296 4.01034 41.3558 4.02375C40.8343 4.06399 40.7675 4.25176 40.7942 5.71374C40.821 7.13547 41.3157 9.06689 41.8371 9.75093C41.9842 9.93871 42.0912 10.4886 42.1045 10.9983C42.1045 11.897 42.5993 13.7881 43.3614 15.7866C43.5753 16.3633 43.709 16.873 43.6555 16.9267C43.2009 17.3827 40.2995 9.77776 39.6978 6.54532C39.417 5.01628 39.3368 4.82851 39.1363 5.11017C38.441 6.06247 39.4572 10.7166 41.329 15.1965C42.3051 17.5302 43.1608 18.6971 44.4177 19.3946C44.9391 19.6897 46.0355 20.5883 46.8511 21.3797C47.7737 22.2917 48.6294 22.9624 49.1375 23.1635C49.8595 23.4586 49.9531 23.5659 49.9531 24.0622C49.9531 24.7596 50.2874 25.1218 51.1565 25.3632C51.825 25.551 52.6272 25.6046 52.6272 25.4705C52.6272 25.3364 52.6807 25.2693 52.7342 25.1084C52.8144 24.9072 52.6941 24.7731 52.293 24.6255C51.5843 24.3707 51.5843 24.1024 52.293 24.1024C53.0016 24.1024 52.8679 24.2097 52.9348 24.4109C53.0417 24.8267 54.1381 25.323 55.2345 25.4571C55.7159 25.5242 56.3309 25.6851 56.5983 25.8192C56.8657 25.9534 57.5744 26.0607 58.1627 26.0607C58.751 26.0607 59.473 26.1814 59.8206 26.3557C60.1282 26.5167 60.7833 26.7447 61.2513 26.852C62.0803 27.0398 62.1338 27.0934 62.5215 28.0323C63.297 29.8967 65.3561 31.694 66.1984 31.2379C66.5595 31.0367 66.5327 30.9965 65.4898 30.0576C64.1394 28.8505 64.0458 28.4749 65.1956 28.8639C65.8107 29.0785 66.145 29.3468 66.5728 29.9771C67.1478 30.8221 67.9099 32.4182 68.0837 33.1962C68.1773 33.5986 68.1506 33.612 67.5756 33.5047C66.5728 33.3035 62.682 32.8877 59.7538 32.6597C57.815 32.5121 56.117 32.4987 54.0445 32.606C51.1565 32.767 51.0762 32.7804 49.7392 33.4376C48.4422 34.068 47.8138 34.6581 47.5731 35.4495C47.279 36.4286 47.0918 39.2855 46.9982 44.0872C46.7976 55.0319 46.3029 57.9827 44.538 58.8545C43.7358 59.2435 41.7168 59.3105 40.5535 58.9886C39.631 58.7338 38.7485 58.0095 38.4276 57.245C37.973 56.172 38.1468 52.9127 38.9758 46.9039C39.1229 45.8174 39.3234 44.5298 39.4304 44.047C40.0588 41.0157 40.6338 35.7177 40.4332 34.913C40.2594 34.2424 39.2165 33.2767 38.4142 33.062C38.0131 32.9547 37.1841 32.9011 36.5557 32.9547C34.9111 33.0889 31.3144 33.7059 30.3651 34.0143C29.9105 34.1619 28.7473 34.457 27.7578 34.6581C24.1344 35.4227 23.4525 35.5836 22.1422 35.9994C20.3238 36.5627 18.6123 37.2334 18.3984 37.448C18.1845 37.6626 18.3315 37.7296 18.5722 37.9577C18.9198 38.2796 19.0001 38.2661 21.4736 37.6358C24.589 36.831 27.8381 36.1872 30.432 35.825C31.515 35.6775 33.32 35.4227 34.4432 35.2751C36.997 34.913 37.9596 35.0203 38.2137 35.6909C38.4544 36.3347 38.1468 39.7952 37.4783 43.7653C36.1947 51.4507 35.8604 53.9723 35.8872 56.011C35.8872 57.3389 35.9407 57.5266 36.5557 58.5192C37.1574 59.5117 37.3446 59.6593 38.7886 60.3835C40.353 61.1615 40.3931 61.1749 42.2784 61.1749C44.0299 61.1749 44.2572 61.1346 45.1932 60.6652C46.7308 59.8873 47.3325 59.1496 47.9609 57.2718C48.6428 55.2465 49.0172 51.7458 49.1509 46.0991C49.2846 40.3451 49.5654 36.442 49.8729 35.9592C50.274 35.3422 50.8757 35.0203 52.0256 34.8325C53.3493 34.6045 59.4195 34.6045 61.1845 34.8325C61.9198 34.9264 63.1901 35.0874 64.0057 35.1812C64.8213 35.2885 65.9711 35.4629 66.5461 35.5702C67.1344 35.6909 68.0703 35.7312 68.6453 35.6909C69.5946 35.6104 69.7149 35.6373 69.9021 35.9994C70.33 36.8042 72.2286 38.4942 72.7099 38.5076C73.2849 38.5076 73.4052 38.749 73.6192 40.3049C74.1005 43.8726 75.5713 46.81 77.617 48.3524C77.9379 48.5939 78.1251 48.9426 78.2053 49.4254C78.2989 50.0827 78.2721 50.1631 77.7507 50.4582C77.4432 50.6326 77.1223 50.7667 77.042 50.7667C76.7211 50.7667 75.9323 49.7473 75.3172 48.5268C74.6754 47.2526 74.2476 46.649 73.9935 46.649C73.7395 46.649 73.6192 47.3733 73.8063 47.6013C74.0203 47.8562 73.8598 48.6609 73.6325 48.5134C73.5523 48.4597 73.4721 48.2585 73.4721 48.0573C73.4721 47.8562 73.325 47.4001 73.1378 47.038C72.6832 46.1393 72.496 44.9054 72.7501 44.5969C72.9105 44.4091 72.8838 43.7117 72.6565 41.6998C72.2955 38.4271 72.2955 38.4539 71.881 38.9234C71.5868 39.2587 71.5601 39.6611 71.6002 43.2959C71.6269 46.2109 72.0191 48.0842 72.7768 48.9158C73.1512 49.3315 73.4587 49.7876 73.4587 49.9217C73.4587 50.0558 73.2448 50.6326 72.9907 51.2093C72.5361 52.2018 72.5361 52.2555 72.8437 52.4835C73.4854 52.9529 73.793 52.7383 74.154 51.6251C74.4481 50.6862 75.0364 50.6192 75.8654 51.4105C76.2131 51.7458 76.4938 52.0945 76.4938 52.2018C76.4938 52.631 75.3306 54.6429 74.8225 55.0856C73.9267 55.8769 73.3785 56.0378 72.4158 55.783C71.9612 55.6623 71.4932 55.4343 71.3729 55.2599C70.9718 54.6966 70.7712 54.5088 70.584 54.5088C70.2096 54.5088 69.2336 55.6891 68.9662 56.4805C68.4581 57.9559 68.1104 59.2837 68.1104 59.7531C68.1104 60.2226 68.0436 60.4104 67.95 60.625C67.8564 60.8396 67.4954 62.3284 67.1344 63.8976C66.7734 65.4669 66.3723 67.1167 66.2386 67.5593C66.1048 68.0019 65.784 69.2493 65.5299 70.3357C64.9817 72.7231 64.7544 73.5413 64.4603 74.3595C64.3399 74.7082 64.126 75.352 64.0057 75.7946C63.658 77.0152 62.3076 80.4086 61.8262 81.2536C61.7193 81.4547 61.2513 82.2997 60.7967 83.1313C59.2323 86.015 57.9621 88.1611 57.4407 88.8183C56.9727 89.4084 55.9833 90.2802 54.1649 91.7288C52.8679 92.7616 49.0573 94.2772 46.6238 94.7332C44.2572 95.1758 39.5106 94.7869 37.0905 93.9553C35.0047 93.231 32.2771 91.6886 29.964 89.9315C27.0225 87.705 24.8564 85.4517 22.5968 82.2997C20.5644 79.4563 18.5722 73.206 17.5025 66.2314C17.409 65.6413 17.2084 64.4073 17.0479 63.4684C16.8875 62.5296 16.6869 61.2017 16.5933 60.5177C16.2056 57.2852 16.0184 56.4 15.7376 56.1854C15.3098 55.8635 14.6546 55.9171 14.1331 56.3195C13.6384 56.7085 12.6624 56.789 12.1142 56.4939C11.6596 56.2525 11.2718 55.4611 10.8039 53.8516C10.3493 52.2689 9.96151 51.9068 9.44005 52.5506C9.01219 53.0737 9.01219 53.409 9.46679 55.0856C9.66735 55.8233 9.84117 56.6146 9.86791 56.856C9.90802 57.4462 9.52027 57.5401 9.38657 56.9767C9.22612 56.3195 9.03893 56.4134 8.47736 57.4596C7.75535 58.8008 6.89963 60.1019 6.73918 60.1019C6.57873 60.1019 6.63222 59.4715 6.67233 58.707C6.73918 57.473 6.8194 57.1913 7.40771 56.2659C7.98265 55.3672 8.0495 55.1258 7.95591 54.5356C7.75535 53.3151 8.73141 51.6251 10.0016 50.9813C10.4027 50.7801 11.1782 50.0558 11.8067 49.2779C12.6356 48.2585 12.9833 47.9635 13.2239 48.0439C13.4646 48.1244 13.6785 47.9366 14.093 47.2928C15.4435 45.1736 15.8446 43.5775 15.3632 42.357C15.1894 41.9278 15.2429 41.7534 15.7644 40.9218C16.9811 39.0038 17.8368 37.2602 17.8368 36.7103C17.8368 35.8385 17.4491 36.0262 16.8073 37.2065C16.4864 37.7833 16.1254 38.293 16.005 38.3332C15.7243 38.4271 15.3365 38.0381 15.3365 37.676C15.3365 36.7505 13.9994 38.3466 12.2211 41.4181C10.0952 45.0797 8.26343 47.6416 6.27121 49.7742C5.92357 50.1363 5.69627 50.4984 5.76312 50.5655C5.9102 50.713 8.3704 48.272 9.52027 46.8234C10.3359 45.8174 11.3654 44.1275 12.7426 41.5925C13.4379 40.3049 14.5343 39.0038 14.9086 39.0038C15.283 39.0038 15.2162 39.1245 15.3365 39.2721C15.5103 39.4867 15.4568 39.7013 15.0022 40.439C14.4139 41.4047 14.3203 41.7937 14.668 41.9144C14.8418 41.968 14.8418 42.2631 14.668 43.2825C14.3872 44.9322 14.1064 45.4553 12.903 46.6356L11.927 47.5879L12.0473 46.877C12.181 46.1125 11.9938 45.9516 11.5794 46.4612C11.4456 46.6222 11.0044 47.3733 10.6167 48.111C10.015 49.2377 9.81443 49.4657 9.45342 49.4657C9.09241 49.4657 8.9186 49.6669 8.47736 50.5387C8.18321 51.1288 7.74198 51.9336 7.50131 52.3226C7.26064 52.7115 7.08682 53.248 7.10019 53.5029C7.12693 53.8516 6.88626 54.2808 6.24447 55.0587C5.74975 55.6489 5.34863 56.2659 5.34863 56.4134C5.34863 56.7621 5.54919 56.7755 5.87009 56.4805C6.07065 56.2927 6.08402 56.3195 5.97705 56.6146C5.66953 57.4328 5.6829 57.5535 6.04391 57.6474C6.48514 57.7681 6.52525 58.3046 6.17761 59.3239C6.04391 59.6995 5.88346 60.3165 5.81661 60.692L5.69627 61.3627H6.41828C7.08682 61.3627 7.16704 61.2956 7.72861 60.4238C8.06287 59.9141 8.46399 59.3776 8.62444 59.2435C8.89185 59.0289 8.9186 59.0557 8.9186 59.552C8.9186 60.0482 8.95871 60.1153 9.01219 60.1153C9.23949 60.1153 9.98825 59.0825 10.2958 58.3716C10.4696 57.9559 10.6835 57.6071 10.7504 57.6071C10.8306 57.6071 11.098 57.7949 11.3387 58.0229C11.7398 58.3985 11.7665 58.5058 11.6195 59.1362C11.5259 59.5251 11.3119 60.2226 11.1248 60.692C10.8707 61.3492 10.844 61.5907 11.0178 61.7516C11.1916 61.9126 11.2986 61.8992 11.5526 61.6711C11.9671 61.2956 12.6624 59.9141 12.6624 59.4581C12.6624 59.002 12.9966 58.6801 13.5448 58.6801C13.7989 58.6801 14.2267 58.5594 14.5075 58.4119C15.1493 58.0766 15.1493 58.0766 15.1493 58.4655C15.1493 58.8545 14.922 58.9484 14.6546 59.163C14.3337 59.4044 14.0529 59.8739 13.8524 60.5043C13.4245 61.8857 12.4083 63.4818 10.9643 65.0377C9.70746 66.3924 9.25286 66.6338 8.94534 66.0973C8.73141 65.7083 9.2796 63.9513 9.90802 62.999C10.4428 62.1942 10.3626 61.7919 9.81443 62.4893C9.53365 62.8515 9.31971 62.9185 8.69129 62.9051C7.62164 62.8649 7.66175 62.8783 7.47457 62.382C7.26064 61.8187 7.01996 61.8187 6.65896 62.382C6.39154 62.7978 6.39154 62.8649 6.65896 63.2672C6.8194 63.5221 7.15367 63.7233 7.43445 63.7635C7.98265 63.8306 8.00939 63.9781 7.66175 65.3328C7.40771 66.3387 7.63501 66.9557 8.38377 67.291C8.89185 67.519 8.94534 67.4922 9.38657 67.0228C9.70746 66.6741 10.0417 66.5131 10.4428 66.4997C10.7771 66.4997 11.0312 66.5265 11.0312 66.5802C11.0178 66.835 10.1353 67.6666 9.88128 67.6666C9.62724 67.6666 9.56039 67.8007 9.5069 67.9751C9.45342 68.1494 9.29297 68.5116 9.15927 68.7932C8.83837 69.4102 8.825 69.6651 9.11915 69.598C9.23949 69.5712 9.6005 69.7321 9.90802 69.9467C10.8039 70.5905 11.098 70.3357 10.991 69.0615C10.9376 68.4848 10.9643 68.0153 11.0445 68.0153C11.1248 68.0153 11.4991 67.5861 11.8735 67.063C12.2479 66.5399 12.9298 65.601 13.4111 64.9706C14.1465 64.0049 14.2535 63.7501 14.1599 63.2672C14.0797 62.8649 14.2 62.3954 14.5343 61.6443C14.9176 60.7859 15.1805 60.464 15.3231 60.6786C15.4167 60.8262 15.4836 61.6309 15.4702 62.4625C15.4568 63.2941 15.497 64.2732 15.5772 64.6219C15.6841 65.1584 15.6039 65.4803 15.0691 66.5533C14.2669 68.1897 13.8657 68.7664 12.756 69.9199C12.1409 70.5637 11.9136 70.9124 12.034 71.0466C12.4886 71.5026 14.4808 69.7321 15.6841 67.8275C15.9516 67.4117 16.1254 67.8275 16.366 69.4505C16.58 70.8185 16.5666 70.899 16.219 71.1807C16.0184 71.3551 15.6039 72.1732 15.3098 73.0048C14.2267 76.0495 14.0797 76.4653 14.0797 76.5457C14.0797 76.6262 14.2802 76.4518 14.5209 76.2238C15.0156 75.7544 16.58 72.7365 16.58 72.2403C16.58 71.744 17.1014 71.9184 17.195 72.6024C17.2485 72.978 17.409 73.6084 17.5427 74.0107C17.77 74.6814 17.7566 74.8021 17.4491 75.3118C17.2619 75.6203 17.0212 76.4518 16.9142 77.1493C16.6736 78.6917 15.8312 81.1328 15.3632 81.6559C14.9755 82.0985 14.7616 82.796 14.9755 82.9301C15.3365 83.1581 17.302 79.7513 17.6897 78.2223C17.8234 77.6992 18.0106 77.2566 18.1042 77.2432C18.1978 77.2298 18.3716 77.5651 18.5053 78.0077C18.6391 78.4503 18.9065 79.2283 19.0937 79.7379C19.3477 80.3951 19.4012 80.7573 19.2808 80.9853C19.1873 81.1597 19.0268 81.7096 18.9198 82.2059C18.8129 82.7021 18.5187 83.5739 18.2647 84.1507C17.8636 85.0627 17.7566 85.1835 17.409 85.0896C17.195 85.0359 16.9142 84.9823 16.7939 84.9823C16.4062 84.9823 16.5532 84.6604 17.2619 83.9227C18.3315 82.8228 19.1739 80.1537 18.4385 80.1537C17.7031 80.1537 17.7165 80.7707 17.4758 81.6694C17.3688 82.0583 17.0078 82.796 16.6602 83.3191C16.1387 84.0836 15.9516 84.2446 15.5504 84.2177C14.307 84.1239 15.283 85.6931 16.58 85.8675L17.3688 85.9748L17.4624 86.9539C17.5694 88.094 17.6897 88.3488 18.278 88.5634C19.3477 88.9658 20.3505 88.1611 19.3477 87.705C19.107 87.5977 18.8664 87.3429 18.7995 87.1417C18.7327 86.9405 18.4786 86.6723 18.2379 86.5381L17.7967 86.3101L18.3583 85.5992C19.0268 84.7542 19.7889 83.3057 19.936 82.5814C20.1098 81.7632 20.3639 81.8571 20.872 82.9704C21.1394 83.5337 21.5137 84.2043 21.7277 84.4458C22.0218 84.8079 22.0619 84.9957 21.9282 85.4249C21.8346 85.72 21.6742 86.2967 21.5672 86.6991C21.4603 87.1015 20.9388 88.0001 20.404 88.6976C19.6953 89.6096 19.4948 89.9986 19.6419 90.1461C19.7889 90.2937 19.9093 90.3473 20.0029 90.3473C20.0965 90.3473 20.3906 90.5887 20.658 90.8838C21.1661 91.4337 22.0486 91.6081 22.5968 91.2594C22.9043 91.0582 22.7305 90.5619 22.3026 90.4144C21.4335 90.1327 21.0057 89.9315 21.0057 89.7974C21.0057 89.6633 21.3132 89.2072 21.6876 88.6841C22.0619 88.1476 22.4764 87.3831 22.6101 86.9673C22.8642 86.1894 23.2118 86.0687 23.5728 86.6454C23.7199 86.8734 23.7065 87.0344 23.5461 87.2758C22.8642 88.2147 22.2892 89.9986 22.6502 89.9986C22.9845 89.9986 23.6798 88.8853 23.8001 88.1476C23.9338 87.3563 24.1611 87.3295 24.8297 88.0269L25.3244 88.55L24.6826 89.9181C24.121 91.1118 23.9873 91.2728 23.653 91.1655C23.1984 91.0179 22.9711 91.3264 22.9711 92.0909C22.9711 92.9762 23.1316 93.2042 24.0274 93.6736C24.4954 93.9151 25.0169 94.3308 25.1907 94.5991C25.6453 95.2966 25.8726 95.4977 26.7149 95.9806C27.3968 96.3696 27.5038 96.383 28.3194 96.1684C28.7339 96.0611 29.0815 95.9806 29.1751 95.9672C29.1751 95.9404 29.1751 95.9001 29.1751 95.8733C29.1751 95.8196 29.1751 95.7392 29.2019 95.6721C29.1751 95.6185 29.135 95.538 29.1216 95.5112C29.1216 95.5112 29.1216 95.5112 29.1216 95.4977C29.028 95.4843 28.9478 95.4307 28.881 95.377C28.8409 95.377 28.8007 95.377 28.7606 95.377C28.52 95.377 28.1991 95.4307 28.052 95.4843C27.5706 95.6721 27.5439 95.0954 28.0119 94.5857C28.2392 94.3309 28.52 93.9016 28.6537 93.5932C28.6804 93.4859 28.7205 93.392 28.774 93.3115C28.8542 93.1505 28.8943 93.1103 28.9345 93.1505C29.1751 92.9762 29.5228 92.9359 29.8303 92.9494C30.0442 92.9494 30.2715 92.9896 30.4854 93.0567C30.5657 93.0835 30.6726 93.1505 30.7796 93.231C30.8063 93.231 30.8331 93.231 30.8598 93.2444C30.9401 93.2713 31.0203 93.3115 31.1005 93.3383C31.1272 93.3383 31.1406 93.3651 31.1674 93.3786C31.2743 93.4054 31.3813 93.4456 31.4749 93.4993C31.5417 93.5261 31.5952 93.5663 31.6487 93.62C31.983 93.8212 32.9456 94.3443 34.0019 94.8942C36.1546 96.0208 37.4114 96.4366 39.4438 96.7049C39.9385 96.7719 40.5803 96.8658 40.8744 96.9061C42.4522 97.1475 44.8455 97.0938 46.2093 96.7854C48.1213 96.3562 50.7286 95.5916 51.3704 95.2697C51.6512 95.1222 51.932 95.0149 51.9988 95.0149C52.0657 95.0149 51.9988 95.0283 52.0122 95.0551C52.8947 94.6259 53.6434 93.9821 54.5794 93.6602C54.5794 93.6602 54.6061 93.6468 54.6195 93.6334C54.8468 93.4859 55.0607 93.392 55.0874 93.4188C55.1142 93.4456 55.2345 93.7139 55.3415 93.9821C55.4886 94.3309 55.5153 94.4516 55.3415 94.5455C55.2746 94.7198 55.1409 94.8674 54.927 94.9478C54.7665 95.0015 54.6061 95.0685 54.4456 95.149C54.3119 95.3368 54.4189 95.3636 55.0473 95.3636C55.6757 95.3636 56.0635 95.2161 56.6785 94.8271C57.1331 94.532 57.5209 94.2236 57.5209 94.1431C57.5209 94.0626 57.8017 93.8882 58.1493 93.7675C58.5103 93.6334 59.1655 93.0969 59.7003 92.4799C60.2084 91.8898 60.6897 91.4203 60.77 91.4203C60.9705 91.4203 62.8023 89.9047 63.7249 88.9792C65.0218 87.6782 67.1344 83.024 66.4257 83.024C65.7171 83.024 65.8374 83.413 65.3427 84.3385C65.1422 84.714 64.9282 84.9688 64.8614 84.9018C64.7945 84.8347 64.6073 84.4055 64.4603 83.9495C64.1661 83.0777 63.7115 82.7826 63.5109 83.3057C63.3639 83.6812 63.8586 85.2371 64.2196 85.5322C64.5672 85.8273 64.5539 85.948 64.0057 86.8064L63.5377 87.5575L63.2168 86.9405C63.043 86.6052 62.8023 85.8943 62.6953 85.3712L62.4948 84.4189L63.4441 82.5546C63.9655 81.5352 64.4736 80.6902 64.5672 80.6902C64.6742 80.6902 64.9149 80.9585 65.1154 81.267C65.4363 81.7767 65.57 81.8437 66.2252 81.8035C67.1879 81.7632 67.7494 81.3206 68.1907 80.2878C68.4848 79.5904 68.6988 79.3758 69.501 78.9734C70.8113 78.3028 72.4559 76.425 71.9746 76.1299C71.7071 75.9556 71.159 76.3311 70.5573 77.0956C70.0492 77.7395 68.4313 79.0807 68.1639 79.0807C67.8965 79.0807 67.8965 78.7588 67.696 78.3698C67.4152 77.8199 67.228 77.659 66.8937 77.659C66.5595 77.659 66.4525 77.7529 66.4525 77.9675C66.4525 78.3028 67.0943 79.4563 67.3884 79.644C67.5088 79.7245 67.4954 79.9391 67.3483 80.3147C66.8803 81.4547 66.292 81.4547 65.8374 80.3147C65.3962 79.2148 65.4898 78.2089 66.2653 75.9153C66.653 74.7484 66.9739 73.6352 66.9739 73.4206C66.9739 72.9109 67.1478 72.4683 67.3483 72.4683C67.5489 72.4683 67.5088 72.6561 67.5088 72.8975C67.5088 73.1389 67.6692 73.8766 67.8698 74.5472C68.2709 75.9019 68.9929 76.7603 69.7283 76.7603C70.4637 76.7603 70.4503 76.425 69.8353 75.7946C69.0464 74.9765 68.6185 73.7023 68.3779 71.4087C68.1506 69.2224 68.3645 66.8752 68.8325 66.3924C69.3004 65.9095 69.1132 66.0302 69.5411 68.1494C69.7016 68.981 70.0358 70.1077 70.2765 70.6576C70.7712 71.7708 71.8542 73.0048 72.3356 73.0048C72.8169 73.0048 72.7367 72.9511 72.2152 72.1062C71.9746 71.7172 71.774 71.355 71.774 71.3014C71.774 71.2477 71.4531 70.4966 71.0654 69.6248C70.6241 68.6591 70.2497 67.4252 70.0759 66.4729C69.9289 65.6145 69.7016 64.7024 69.5678 64.4476C69.3272 63.9513 69.4208 62.9051 69.7016 62.9051C69.9823 62.9051 69.969 63.2404 70.1027 63.6428C70.2364 64.0452 70.5038 64.5414 70.7044 64.756C71.1055 65.1852 71.6804 65.0914 71.4798 64.6353C70.7712 63.0258 70.6375 62.3015 70.6241 60.3031C70.6241 58.7874 70.6776 58.1436 70.8514 57.929C71.1723 57.5401 71.2793 57.5535 71.8007 58.0766C72.2286 58.5058 72.2687 58.5192 72.8838 58.2509C73.793 57.8754 73.8732 57.9022 74.1941 58.6533C74.5685 59.552 74.9428 59.9543 75.4242 59.9543C75.9055 59.9543 75.8521 60.0885 75.9323 60.4104C76.2532 61.7114 77.8042 63.2807 78.9273 63.4684C79.8499 63.616 79.7964 64.0452 78.7535 64.8902C78.2855 65.2657 77.8042 65.7218 77.6705 65.8961C77.3095 66.379 76.8415 66.2717 76.5072 65.6279C76.3334 65.306 75.9456 64.6622 75.6381 64.1927C75.3306 63.7233 74.8225 62.5966 74.5016 61.6846C74.0604 60.3969 73.8598 60.0348 73.5924 60.0348C73.325 60.0348 73.2448 60.1958 73.2047 60.8798C73.1244 62.0333 73.5389 63.3075 74.3813 64.5414C75.1835 65.7218 75.6649 66.2046 76.5473 66.7009C77.3228 67.1301 77.3362 67.5861 76.681 69.7858C76.427 70.6174 76.1997 71.5026 76.1596 71.744C76.1195 72.0123 75.8119 72.3878 75.3172 72.7365C74.3545 73.4072 74.2075 73.7291 74.8493 73.7291C76.1462 73.7291 77.6036 72.3208 77.3897 71.2746C77.3228 70.9527 77.51 70.1613 77.9111 69.0213C78.339 67.8141 78.4994 67.1033 78.4192 66.7545C78.3256 66.3119 78.4192 66.151 79.2081 65.4803C79.7028 65.0645 80.1039 64.5817 80.1039 64.4073C80.1039 63.616 82.5775 60.4908 84.4895 58.8679C85.519 57.9961 85.9335 57.2316 85.6929 56.6817L85.9335 56.6414ZM73.7529 13.6138C73.7529 13.6942 73.686 13.7613 73.6058 13.7613C73.432 13.7613 70.6509 10.7301 70.7445 10.663C70.7846 10.6362 71.1322 10.5289 71.5066 10.4082C72.2955 10.1801 72.6698 10.3545 72.6698 10.9178C72.6698 11.4812 72.9105 11.7494 73.2047 12.353C73.4988 12.9565 73.7395 13.5333 73.7395 13.6138H73.7529ZM81.8956 45.3346C81.7485 45.7101 81.441 45.6699 80.6254 45.1334C79.9167 44.6774 78.8872 43.4836 78.6465 42.8398C78.5396 42.5582 78.6331 42.5716 79.3017 42.9874C79.7295 43.2556 80.4649 43.6446 80.9329 43.8458C81.7886 44.2213 82.1229 44.731 81.8956 45.3212V45.3346ZM76.427 30.4198C75.4242 29.7625 73.0442 27.241 73.0442 26.8118C73.0442 26.3826 73.3785 26.6106 75.1969 27.4824C76.8415 28.2603 77.2292 28.6091 76.7746 28.8907C76.5473 29.0383 76.7211 29.6687 77.1356 30.1381C77.3095 30.3393 77.4966 30.5941 77.5769 30.7148C77.7908 31.1038 77.256 30.9697 76.427 30.4198ZM78.6465 30.9429C78.9407 30.6075 78.9273 30.5673 78.3123 29.7491C77.9646 29.2797 77.6705 28.8505 77.6705 28.77C77.6705 28.6895 77.9914 28.5822 78.3925 28.5286C78.7936 28.4615 79.1546 28.3006 79.2081 28.153C79.2616 28.0055 79.3819 27.925 79.4621 27.9787C79.6493 28.0994 80.5184 30.9429 80.5184 31.4391C80.5184 31.9354 80.4114 31.8683 79.2749 31.533C78.8337 31.4123 78.446 31.2916 78.4058 31.2916C78.3657 31.2916 78.4727 31.1172 78.6465 30.9294V30.9429ZM78.5663 32.9547C78.5663 32.6597 78.7802 32.6194 79.89 32.6865C80.7858 32.7401 80.8794 32.7804 81.0532 33.2901C81.1602 33.5851 81.2404 34.1485 81.2404 34.5106C81.2404 34.8728 81.1736 35.2349 81.0933 35.2751C80.9062 35.3824 78.5663 33.223 78.5663 32.9413V32.9547ZM81.2271 37.7699C81.2271 38.9234 81.0399 39.1111 80.7323 38.2527C80.4783 37.5285 80.4783 36.5493 80.7323 36.3884C81.0532 36.1872 81.2137 36.6566 81.2271 37.7699ZM78.446 36.7505C79.2616 36.9249 79.4621 37.1529 79.4621 37.8235C79.4621 38.4942 80.1039 39.6611 80.6789 39.7952C80.9329 39.8488 81.2404 39.9293 81.334 39.9561C81.5613 40.0232 82.0427 42.7996 81.8688 43.0813C81.802 43.1886 81.6415 43.269 81.5212 43.269C81.2538 43.269 80.1173 42.3972 79.6092 41.8071C78.9942 41.0962 77.9646 38.7892 77.9512 38.0918C77.9512 37.7162 77.8309 37.287 77.7106 37.1395C77.403 36.7639 77.7106 36.603 78.446 36.7505ZM77.9379 41.2572C78.1919 41.5522 78.3925 41.9278 78.3925 42.0887C78.3925 42.3704 77.9512 42.4911 77.8042 42.2363C77.7641 42.1692 77.6705 41.7802 77.6036 41.4047L77.4833 40.7072L77.9379 41.2572ZM75.8922 35.8787C76.1328 35.6373 76.681 35.9323 76.7613 36.3616C76.8415 36.7371 76.3735 36.7371 75.9858 36.3616C75.7718 36.147 75.7451 36.0128 75.8922 35.8787ZM58.2162 24.478C57.4674 24.7328 57.3471 24.7194 56.7855 24.2768C56.3309 23.9281 56.2774 23.9147 55.8629 24.1829C55.395 24.4914 55.4886 24.5182 53.6969 23.5257C53.4027 23.3647 52.9615 23.2306 52.7075 23.2306C51.3838 23.2306 49.0974 22.1978 47.8272 21.0578L46.9715 20.2798L47.5464 19.8506C48.0144 19.5019 48.1882 19.4617 48.4556 19.6226C48.8567 19.8775 49.445 19.8909 49.5921 19.636C49.659 19.5287 49.445 19.1532 49.1108 18.7776C48.7899 18.4155 48.2417 17.7314 47.894 17.2754C47.5464 16.8194 47.1586 16.417 47.0116 16.3902C46.8779 16.3633 46.3965 15.5049 45.9419 14.4722C45.1932 12.7554 44.6851 12.0579 44.4043 12.3396C44.1101 12.6346 45.2734 15.4379 46.0355 16.2426C46.2628 16.4975 46.7308 17.262 47.0784 17.946C47.7603 19.3141 47.6801 19.4751 46.5703 19.1129C45.5943 18.791 44.5915 17.0742 43.3346 13.6138C42.6527 11.7226 42.5324 11.2397 42.6795 10.8508C42.8132 10.4886 42.7731 10.1399 42.5458 9.41562C42.1045 8.07436 41.9307 7.24278 42.1313 7.36349C42.2249 7.41714 42.7062 8.12801 43.2009 8.94618C44.3241 10.7703 46.0355 12.581 47.4127 13.3992C48.4289 13.9893 48.469 14.0564 49.0172 15.5318C50.1269 18.496 51.6512 20.481 53.63 21.5138C54.3387 21.8893 55.1409 22.3588 55.395 22.5734C55.6624 22.788 56.0368 23.0831 56.2507 23.244C56.4646 23.405 57.1064 23.633 57.6947 23.7537C58.283 23.8744 58.751 24.0354 58.751 24.1158C58.751 24.1963 58.497 24.3439 58.1894 24.4512L58.2162 24.478ZM60.409 25.0145C59.7672 25.0279 59.7805 25.0815 60.0613 23.7671C60.1014 23.5927 59.941 23.4989 59.58 23.4586C59.2858 23.4318 58.6841 23.2843 58.2429 23.1367C57.8017 22.9892 57.3203 22.8148 57.1733 22.7746C56.946 22.6941 56.946 22.6673 57.1733 22.5197C57.3203 22.4258 57.6011 22.3454 57.815 22.3454C58.2295 22.3454 58.7777 21.8223 58.7777 21.4333C58.7777 21.0444 58.4167 21.1785 57.0396 21.1785C55.6624 21.1785 55.2211 21.1382 54.3654 20.6554C53.4428 20.1457 52.0389 18.8313 51.2501 17.7583C50.7019 17.0072 49.7793 15.0355 49.913 14.9014C49.9665 14.8477 50.4612 14.888 51.0094 14.9953C51.5442 15.1026 52.2662 15.1428 52.5871 15.0892C53.1353 14.9819 53.2022 15.0355 53.4696 15.572C53.9509 16.578 55.0607 17.7046 56.4245 18.5898C58.0557 19.6629 59.1922 20.0518 60.5293 19.9848L61.5588 19.9311L62.3878 21.5272C62.8424 22.4124 63.2302 23.2306 63.2302 23.3513C63.2703 23.9683 61.5321 23.1099 60.4892 21.9832C59.9945 21.4467 59.5265 21.2858 59.2591 21.5406C59.1922 21.6077 59.3527 22.0503 59.6201 22.5332C60.0078 23.244 60.2886 23.4989 61.0507 23.861C62.0535 24.3304 62.1739 24.6389 61.4385 24.8401C61.1978 24.9072 60.7298 24.9742 60.409 24.9742V25.0145ZM66.3589 27.8982C66.1583 28.2201 65.8374 28.086 64.3934 27.1069C63.3104 26.3692 62.8157 26.1277 62.3076 26.1277C61.9466 26.1277 61.6123 26.0607 61.5588 25.9802C61.3984 25.7254 62.8825 24.7328 63.6045 24.5987C64.5137 24.4377 64.8346 24.6926 64.7143 25.4839C64.6207 26.0338 64.6742 26.1143 65.4363 26.5569C66.2252 27.0264 66.5862 27.5361 66.3589 27.8982ZM68.4046 30.1649C67.8564 30.0174 67.9767 29.7357 68.5784 29.7357C69.1801 29.7357 69.1667 29.6821 69.247 29.6016C69.4341 29.4138 68.7656 28.9578 68.2709 28.9578C67.3751 28.9578 66.76 27.5361 67.4152 26.9861C67.6291 26.8118 67.9099 26.8788 68.9261 27.3617C69.9957 27.8848 70.1963 28.0591 70.4503 28.6761C70.6108 29.0651 71.0119 29.7894 71.3595 30.2856C71.7072 30.7819 72.2687 31.6001 72.603 32.1098C72.9373 32.6194 73.5523 33.3571 73.9534 33.7461C74.515 34.2826 74.6487 34.5374 74.5685 34.8191C74.3545 35.4897 73.7662 35.2215 73.4988 34.3497C73.432 34.1216 73.3116 33.9473 73.2314 33.9473C73.1512 33.9473 72.6966 33.5986 72.2286 33.1828C71.5601 32.5926 71.2258 32.4182 70.7311 32.4182C70.2364 32.4182 70.0893 32.3378 70.0893 32.1366C70.0893 31.989 69.7818 31.5598 69.4208 31.1977C69.0598 30.8356 68.7522 30.46 68.7522 30.3795C68.7522 30.2991 68.5918 30.1918 68.3912 30.1381L68.4046 30.1649ZM27.8247 91.8227C27.7578 92.5872 27.584 93.2981 27.3701 93.6602C26.7016 94.7735 26.5144 94.2504 27.0626 92.8689C27.3968 92.0507 27.1294 91.93 26.5411 92.6274C26.0197 93.2578 25.565 93.2847 24.9901 92.7079C24.4152 92.1312 24.6558 92.0507 25.2575 91.3667C25.5517 91.0314 25.8859 90.4948 26.0063 90.1864C26.1266 89.8779 26.2871 89.6096 26.3673 89.6096C26.4475 89.6096 26.8219 89.8376 27.2096 90.1059L27.9183 90.6021L27.8113 91.8495L27.8247 91.8227ZM57.1198 93.848C56.5181 94.1163 56.6117 94.1431 56.2239 93.6066C55.8095 93.0298 55.8897 92.8286 56.9326 91.9971C57.4006 91.6215 57.922 91.1521 58.0825 90.9643C58.4568 90.5217 58.8446 90.7363 58.6975 91.313C58.6307 91.5947 58.6708 91.7825 58.8312 91.8361C58.9649 91.8898 59.0719 92.0507 59.0719 92.1982C59.0719 92.5067 57.8552 93.5261 57.1198 93.848ZM62.7889 88.711C62.6686 89.0865 62.6552 89.0731 62.3343 88.55C61.96 87.933 61.7861 87.866 61.4519 88.2683C61.2647 88.4964 61.278 88.6707 61.5455 89.2341C61.7193 89.623 61.7995 90.012 61.746 90.1193C61.6792 90.2266 61.278 90.5619 60.8368 90.857L60.0479 91.3935L59.7805 90.857C59.4062 90.1193 59.4329 89.5291 59.8875 89.1268C60.1014 88.939 60.5427 88.2013 60.8903 87.4904C61.2379 86.7795 61.5989 86.1894 61.7193 86.1894C61.8396 86.1894 62.0268 86.5247 62.1605 86.9539C62.2942 87.3831 62.5215 87.8526 62.6686 88.0135C62.8424 88.2013 62.8959 88.4561 62.8157 88.6976L62.7889 88.711ZM75.5445 58.9216C75.4376 58.9886 75.3707 58.8277 75.3707 58.5594C75.3707 58.2912 75.4509 58.1436 75.5445 58.1973C75.6381 58.2643 75.7183 58.4253 75.7183 58.5594C75.7183 58.6935 75.6381 58.8545 75.5445 58.9216ZM80.7056 61.9662C80.2243 62.7442 80.0371 62.7844 79.1947 62.3015C78.1117 61.6846 77.6437 61.0408 76.8014 59.0557L76.0392 57.2316L76.788 56.3329C77.2025 55.8367 77.5902 55.4343 77.6705 55.4343C77.7507 55.4343 77.9379 55.7159 78.0983 56.0647C78.3791 56.6414 78.3791 56.7353 78.1117 57.1377C77.2961 58.3985 79.0878 61.1615 80.719 61.1615C82.3502 61.1615 81.1602 61.2419 80.719 61.9662H80.7056Z" fill="white"/>
<path d="M21.0187 84.7273C20.6309 84.3383 19.9089 85.2906 19.6415 86.538L19.5078 87.1549L19.9357 86.8733C20.524 86.4843 21.2861 84.9821 21.0187 84.7273Z" fill="white"/>
<path d="M46.5699 72.0389C47.3855 71.6499 47.4658 71.556 47.4658 70.9927C47.4658 70.4294 47.4658 70.3757 46.6635 70.3891C46.2223 70.3891 45.4067 70.4696 44.8451 70.5501C43.1604 70.7781 40.6334 70.2148 39.0556 69.2625C38.347 68.8333 37.5849 68.4175 37.3576 68.337C36.8361 68.1492 36.1943 68.4309 36.0339 68.9137C35.7798 69.7051 38.7347 71.556 41.3153 72.2401C43.1471 72.7229 45.3265 72.6425 46.5699 72.0389Z" fill="white"/>
<path d="M10.9507 46.7562C11.3786 46.4611 13.0499 43.9932 13.665 42.7593C13.9324 42.2362 13.9993 41.9143 13.8789 41.7936C13.5447 41.4582 13.197 41.7936 12.2477 43.3897C11.7262 44.2615 11.0443 45.3479 10.7101 45.8173C10.3758 46.2868 10.1084 46.7428 10.1084 46.8501C10.1084 47.1184 10.5095 47.0647 10.9507 46.7562Z" fill="white"/>
<path d="M11.8997 50.069C11.6858 50.1897 11.5521 50.3909 11.6055 50.5116C11.659 50.6324 11.7526 51.3432 11.8195 52.0675C11.8863 52.7918 11.9799 53.449 12.0334 53.5295C12.0735 53.61 12.2874 53.6502 12.5014 53.6234C12.8624 53.5697 12.8891 53.4892 12.8223 51.9602C12.7554 50.1495 12.5549 49.7337 11.8997 50.0824V50.069Z" fill="white"/>
<path d="M81.0123 47.9903C81.253 48.2317 81.6006 48.0976 81.6006 47.7489C81.6006 47.4001 81.4803 47.3867 81.2396 47.3867C80.892 47.3867 80.7583 47.7354 80.999 47.9769L81.0123 47.9903Z" fill="white"/>
<path d="M63.484 44.6504C63.8717 44.1139 63.7915 43.7651 63.1765 43.3762C62.4277 42.9067 61.3046 44.3553 61.933 44.9857C62.3341 45.3881 63.0561 45.2271 63.484 44.6504Z" fill="white"/>
<path d="M57.6675 13.0503C58.5232 13.8014 58.5901 13.8283 59.0447 13.6539C59.4592 13.4929 59.4057 13.3052 58.6034 12.2858C58.2023 11.7761 57.6809 10.9714 57.4402 10.4885C57.1995 10.0057 56.8786 9.57646 56.7449 9.52281C56.4107 9.38868 55.9561 9.76423 55.9561 10.1666C55.9561 10.7702 56.9054 12.3395 57.6942 13.0369L57.6675 13.0503Z" fill="white"/>
<path d="M5.77603 52.5773C6.23063 52.5773 7.79499 50.8337 7.79499 50.324C7.79499 49.8143 7.3805 49.7875 6.56489 50.5654C6.17714 50.941 5.5621 51.4641 5.21446 51.7592C4.85345 52.0408 4.37211 52.5371 4.11807 52.859C3.6902 53.4223 3.6902 53.4492 3.99773 53.8113C4.17155 54.0125 4.35874 54.1868 4.39885 54.1868C4.63952 54.1868 5.48187 53.1809 5.48187 52.8992C5.48187 52.6176 5.61558 52.5773 5.7894 52.5773H5.77603Z" fill="white"/>
<path d="M47.813 6.81382C48.1072 7.0016 48.5083 7.13572 48.7089 7.1089C49.3774 7.01501 49.1501 6.53216 48.0671 5.74081C47.0776 5.01653 46.9707 4.97629 46.7033 5.24455C46.4358 5.5128 46.4492 5.56645 46.8503 6.00906C47.091 6.2639 47.5322 6.63946 47.8264 6.82723L47.813 6.81382Z" fill="white"/>
<path d="M71.9339 73.9439C70.9178 73.1123 70.8242 73.0318 70.2359 72.3612C69.6476 71.704 69.2464 71.6503 69.0459 72.1868C68.8854 72.616 69.9952 74.1451 70.8242 74.6547C71.5729 75.1108 71.7735 75.1644 72.2415 74.99C72.6827 74.8157 72.5757 74.4535 71.9473 73.9439H71.9339Z" fill="white"/>
<path d="M73.0035 75.2181C72.7361 75.701 72.5222 76.1972 72.5088 76.318C72.5088 76.7203 73.1773 76.5594 73.5651 76.0765C73.9662 75.5669 74.3807 74.2524 74.2069 74.0781C73.9929 73.8635 73.4848 74.3463 73.0035 75.2181Z" fill="white"/>
<path d="M16.2449 75.607C15.8973 75.8082 13.8516 79.0809 13.9719 79.2687C14.2126 79.671 15.1084 78.8663 15.8973 77.5384C16.5658 76.3984 16.7664 75.3253 16.2449 75.607Z" fill="white"/>
<path d="M13.7312 81.1865C13.6109 81.1865 13.3969 81.0255 13.2766 80.8244C13.0092 80.3952 12.0732 80.3281 12.0732 80.7439C12.0732 81.1597 12.1802 81.0658 12.3273 81.1194C12.461 81.1731 12.6214 81.4682 12.6883 81.7767C12.7551 82.0851 12.929 82.4875 13.1028 82.6753C13.3969 82.9972 14.1056 82.9972 14.4398 82.6619C14.627 82.4741 14.012 81.1999 13.7446 81.1999L13.7312 81.1865Z" fill="white"/>
<path d="M75.7445 67.8813C74.5813 66.3522 73.2709 63.388 72.7628 61.175C72.3751 59.4581 72.335 59.3643 72.0275 59.3643C71.7199 59.3643 71.8135 61.1079 72.4821 63.4149C73.3244 66.3388 74.2871 68.069 75.5038 68.8604C76.6136 69.5713 76.7206 69.1555 75.7445 67.8679V67.8813Z" fill="white"/>
<path d="M51.3562 20.3872C51.2493 20.3872 51.0487 20.2665 50.9284 20.119C50.6476 19.7702 50.2197 19.7702 50.2197 20.119C50.2197 20.4677 51.2225 21.5944 51.998 22.104C52.6666 22.5467 53.4287 22.6674 53.4287 22.3455C53.4287 22.0236 51.6236 20.414 51.3562 20.4006V20.3872Z" fill="white"/>
<path d="M55.8629 19.9309C54.4991 19.3005 53.2155 18.0934 52.8278 17.0606C52.4935 16.1754 52.079 16.0815 52.1726 16.9131C52.3063 18.0934 53.5899 19.6492 55.1275 20.454C56.1437 20.9905 56.1303 20.9905 56.5849 20.6686C56.9058 20.4272 56.8523 20.3869 55.8763 19.9309H55.8629Z" fill="white"/>
<path d="M71.2784 67.1568C70.8105 67.6128 72.2679 70.6709 73.3509 71.5293C73.7654 71.8646 73.8456 71.878 73.9793 71.6366C74.0863 71.4354 73.8456 70.8452 73.1637 69.6113C71.947 67.4519 71.5459 66.9019 71.2784 67.1568Z" fill="white"/>
</g>
<defs>
<clipPath id="clip0_85_519">
<rect width="86" height="97" fill="white"/>
</clipPath>
</defs>
</svg>
