<?xml version="1.0" encoding="UTF-8"?><svg id="a" xmlns="http://www.w3.org/2000/svg" width="86" height="97.09" viewBox="0 0 86 97.09"><path d="M12.52,17.9l-1.64,3.84-1.28,3.2-1.47,5.19-1.9,6.11-2.01,5.47-.79,1.27-.99,1.74-1.69,3.42-.26.33s-.4,1.82-.44,2.45,1.08,1.65,1.08,1.65l-.24,1.19s1.05,1.41,1.97,2.02,2.94-.32,2.94-.32c-.37.79-.45.89-.44.98s.9-.51.9-.51l.03,1.23.24.6-.24,3.1-.58.53s.17.88.77,1.54,1.67.59,1.67.59l.31.78v2.43s1.74-.41,1.74-.41l1.12-.02.03.7-1.16,1.79.79,1.15s-.41,1-.04,1.38.88,1.42.88,1.42l-.23,3.94.83,2.17.26.41s.13,1.23.6,1.61.86,1.8.86,1.8c0,0,.26,1.35.87,2.09s2.42.97,2.42.97l.28,1.14,1.03,1.48h0s.54,1.64.9,1.84,1.65.56,1.65.56l1.45.36s.12.22.56.28,2.24,2.52,2.24,2.52l1.08,1.08.59-.04,1.2-2.16,1.06-1.15,5.56,2.67,7.82,1.73,7.77-1.73,3.89-1.88,1.32,1.39.48.68,1.6-.86,1.83-1.85,2.44-1.8,2.21-3.24,1.84-3.52s1.43-1.84,1.7-2.36.22-1.17.22-1.17l2.01-1.64,1.82-1.87s.2.31.53.19,1.7-2.24,1.7-2.24c0,0,.14-.58.52-.88s2.17-1.88,2.17-1.88l.89-3.95.47-1.5,1.03-1.13.92-1.56,1.82-2.2,3.1-3.25.34-.8v-1.64s-.03-.71-.32-1.31-.52-2.01-.52-2.01l-1.02-2.52-.99-3.87-.57-5.37-.2-3.87-.25-3.68-1.14-4.08-1.02-5.49-2.15-4.87-2.56-4.11-1.7-3.44-1.78-2.23-4.48-4.18s-.77-1.34-1.41-1.83-2.18-.45-2.18-.45l-7.57-1.68s-.71-.06-1.34-.16-1.75.09-1.75.09l-5.04.8-3.19.17s-1.49-.46-2.09-.48-5.45,2.22-5.45,2.22l-5.33,1.34-4.88,1.86-.61.19s-.09,0-.33-.02-.91.25-.91.25l-5.7,3.34-3.49,3.22-2.95,4.73Z" fill="#212226"/><rect y=".04" width="86" height="97" fill="none"/><path d="M10.21,26c-.16.24-.4.9-.55,1.45-.15.55-.39,1.48-.53,2.04-.15.56-.27,1.17-.27,1.35,0,.98,1.27-1.31,1.81-3.25.36-1.33.37-1.49.12-1.74-.25-.25-.31-.24-.56.16h-.01Z" fill="#fff"/><path d="M1.72,47.24c.74-1.3,1.14-1.58.95-.67-.08.39.02.5.31.31.24-.15.78-.79,1.2-1.42.43-.63,1.19-1.62,1.7-2.2,1.07-1.22,1.16-1.45.67-1.72-.32-.17-.44-.08-1.06.75-1.87,2.52-3.28,3.74-2.45,2.12.15-.3.28-.63.28-.74,0-.32.92-1.22,1.16-1.13.21.08,1.51-1.23,1.51-1.52s.2-.24.45-.35c.24-.11.55-.43.67-.7.12-.27.39-.79.62-1.15.9-1.48,2.02-3.82,1.94-4.04-.05-.13.05-.39.23-.58.4-.44,1.58-3.61,1.9-5.15.13-.66.33-1.39.43-1.64l.17-.44v.5c.03.5-.67,3.27-1.16,4.75-.15.43-.23.9-.17,1.03.09.25-1.35,3.21-2.17,4.41-.25.38-.41.71-.36.76.05.05.39-.08.75-.3l.66-.39-.12.7c-.28,1.64-1.35,4.06-2.21,4.99-.68.74-1.67,2.24-1.55,2.36.12.12.63-.38,1.27-.95,1.3-1.15,3.88-4.61,4.91-6.59.36-.68.78-1.25.91-1.26,1.12,0,4.35-3.85,4.55-5.43.08-.63.28-.93,1.34-1.94,1.81-1.74,3.21-3.98,4.05-6.46.27-.76.67-1.45,1.22-2.05,1.44-1.6,2.61-3.68,2.05-3.68s-.96.86-1.64,1.86c-.56.83-.6.86-.76.5-.36-.8-.86-.38-1.1.95-.07.39-.24.9-.39,1.13s-.21.5-.15.59c.4.64-2.53,5.7-3.92,6.8-.64.51-.56.23.27-1.01,1.5-2.2,2.82-5.63,2.18-5.63s-.7.63-1.47,2.48c-.43,1.02-1.35,2.72-2.06,3.78-1.66,2.48-1.68,2.55-.88,2.4,1.02-.19.84.24-1.26,3.06-1.68,2.24-2.21,2.62-1.5,1.05.75-1.68,1.75-5.16,1.54-5.38-.05-.05-.11.01-.11.17s-.07.32-.13.38c-.16.09.31-3.5.48-3.63.05-.05.23-.32.37-.6.15-.28.48-.59.74-.68.25-.09.79-.54,1.18-1.01.91-1.1,2.73-3.81,3.3-4.96.51-1.01,1.38-3.57,1.38-4.05s.52-.89,1.15-1.58c.63-.7,1.6-1.94,2.15-2.78.62-.93,1.12-1.52,1.31-1.52.62,0,1.87-1.96,1.76-2.74-.08-.56-.35-.46-.86.31-.35.54-.48.62-.63.42-.29-.4-.6-.16-1.1.82-.95,1.9-1.7,3-1.97,2.9-.15-.05-.55.13-.91.43-.36.3-.75.54-.87.54s-.35.19-.51.43c-.16.24-.52.52-.82.64-.64.27-1.23.98-1.23,1.48,0,.78-.76,2.87-1.18,3.26-.43.4-.72.79-2.07,2.8-.75,1.11-.82,1.3-.41,1.15.15-.05.31-.01.37.08.28.44,2.3-2.08,3.33-4.17.51-1.02.74-1.76.82-2.53.09-1.05.33-1.54.74-1.54s.19.15.19.34c0,.83-.82,3.49-1.54,5.03-.95,2.01-3.52,6.05-3.6,5.65-.08-.39-.39-.35-.87.11l-.41.39v-1.21c0-.75-.07-1.17-.17-1.1-.09.07-.17.74-.17,1.5,0,1.35-.01,1.41-.63,2-.76.74-.84,1.14-.17.84.24-.11.49-.16.56-.09.12.12-.44,2.96-.96,4.87-.37,1.38-1,2.94-1.93,4.77-.66,1.31-.96,1.64-.96,1.02s-.09-.67-.21-.99c-.19-.52-.17-.66.16-1.1.56-.76,1.78-3.26,1.93-3.93.11-.5.07-.6-.23-.68-.33-.09-.33-.13-.11-.93.31-1.03.75-3.54.98-5.62.17-1.56.17-1.57,1.28-2.96,2.29-2.9,4.97-7.08,5.37-8.38.09-.32.05-.4-.23-.4s-.59.43-1.26,1.65c-.49.91-1.32,2.27-1.85,3.03-.52.76-1.42,2.07-1.99,2.91-.87,1.26-1.1,1.5-1.31,1.33-.35-.28-.57.09-.59.93,0,.35-.05.91-.11,1.27-.08.51-.17.63-.43.56-.39-.11-.8.6-.96,1.65-.51,3.21-.45,2.96-1.43,5.81-.23.64-.83,2.05-1.34,3.13-1.5,3.13-4.72,8.46-3.92,6.48.96-2.37,1.7-4.36,1.98-5.32.19-.64.57-1.85.86-2.68.48-1.39.96-2.91,1.82-5.81.17-.59.45-1.72.63-2.49.27-1.19.43-1.56,1.08-2.28.84-.95,1.74-2.56,1.56-2.83-.05-.09-.23-.17-.37-.17s-.24-.11-.15-.4c.27-.87.64-1.41.9-1.31.55.21,2.71-2.36,3.8-4.49.21-.42.49-.76.62-.76s.7-.32,1.26-.72c.56-.4,1.6-1.05,2.3-1.44,1.23-.68,3.14-2.49,3.14-2.98,0-.7-.86-.35-1.83.76-.63.71-1.42,1.3-4.51,3.35-1.06.7-1.88,1.54-2.45,2.53-.87,1.49-2.1,3.19-2.21,3.07-.25-.25,1.83-3.69,3.09-5.07.76-.83,3.13-2.86,4.24-3.62,1.07-.74,4.45-2.51,4.79-2.51s.35-.09.41-.2c.28-.46-1.35.07-3.49,1.13-2.78,1.38-5.12,3.11-6.78,5.03-1.03,1.19-1.54,2.01-2.62,4.25-2.91,6.05-3.29,6.93-3.82,9.16-.21.91-.67,2.59-1.02,3.72-.33,1.13-.68,2.29-.75,2.59-.08.3-.36,1.14-.63,1.88-.27.74-.6,1.74-.76,2.24-.79,2.62-2.18,5.97-2.74,6.61-.47.54-2.49,4.92-2.49,5.39,0,.51.6-.08,1.24-1.21v-.04ZM22.77,13.36c.2-.17.36-.24.36-.15s-.16.32-.36.5c-.2.17-.36.24-.36.15s.16-.32.36-.5Z" fill="#fff"/><path d="M56.49.82c1.44.11,2.66.38,6.39,1.45,1.6.46,2.5.56,2.5.3s-.67-.44-3.84-1.42C58.64.24,57.65.04,56.14.04c-2.33,0-2.07.6.35.78Z" fill="#fff"/><path d="M2.09,52.88c-.4.12-.99-.72-1.16-1.66-.09-.5-.03-.68.4-1.14.28-.3.83-.7,1.23-.87.9-.42,1.43-.89,1.59-1.38.19-.59-.27-.51-1.67.32-2.18,1.27-2.94,2.72-2.15,4.06.2.34.36.79.36.99s.12.51.28.68c.23.25.37.28.88.12.6-.19.92-.66.71-1.03-.07-.11-.27-.13-.45-.08h-.01Z" fill="#fff"/><path d="M9.89,42.78c-1.19,2.07-2.21,3.55-3.05,4.48-.92,1.02-1.06,1.1-1.26.83-.2-.27-.35-.16-1.42,1.02-.66.72-1.19,1.37-1.19,1.44,0,.21.8-.13,1.7-.74.49-.34,1.1-.74,1.34-.91.24-.16,1.07-.91,1.85-1.65,1.46-1.41,2.62-3.19,2.62-4s-.36-.85-.57-.47h-.01Z" fill="#fff"/><path d="M17.7,25.13c-.29.11-1.52,1.93-1.52,2.25s.32.17,1.03-.59c.96-1.06,1.23-1.94.49-1.66Z" fill="#fff"/><path d="M3.8,52.13c.49-.5.53-.7.17-.83-.29-.11-1.35.83-1.35,1.21s.66.15,1.18-.38Z" fill="#fff"/><path d="M59.11,2.44c-1.12-.76-1.82-.74-1.72.05.07.59.91,1.11,2.29,1.41,1.27.27,1.55.28,1.98.05.43-.23.45-.54.03-.54-.67,0-1.67-.39-2.57-1.01v.03Z" fill="#fff"/><path d="M13.44,37.59c-.33,0-.52.3-.4.63.13.34.36.34.64,0,.16-.2.17-.27,0-.27s-.16-.08-.11-.17c.07-.09,0-.17-.16-.17h.03Z" fill="#fff"/><path d="M38.39,18.68c-.35-.67-.76-1.6-.92-2.05-.32-.91-.79-1.15-.79-.4s.7,2.47,1.28,3.07c.96.99,1.14.74.43-.62Z" fill="#fff"/><path d="M30.87,18.25c-.6.52-.72.72-.52.8.17.07.27.35.27.82,0,1.42.41,3.53.91,4.63.53,1.18,1.08,1.76,2.01,2.12.78.3.9.28,1.27-.12.31-.35.31-.36-.25-.67-1.48-.83-1.66-.99-2.07-1.89-.41-.91-.98-3.58-.98-4.64s.25-.8.99-1.6c1.91-2.07,2.85-4.72,2.83-8.01,0-2.4-.41-4.18-.94-4.08-.36.07-.37.55-.05,2.37.59,3.37-1.02,8.09-3.48,10.26h.01Z" fill="#fff"/><path d="M24.33,15.23c.91-.89,1.38-1.8.92-1.8s-1.71,1.54-1.93,2.16c-.11.3-.12.52-.05.52s.55-.4,1.06-.89Z" fill="#fff"/><path d="M3.74,54.95c-.37-.11-.78-.19-.9-.19-.28,0-.29.75,0,1.03.12.12.52.21.9.21.6,0,.68-.05.68-.44s-.13-.47-.67-.63h-.01Z" fill="#fff"/><path d="M22.94,17.86c0,.35.74.27,1.43-.15,2.95-1.78,5.71-6.01,5.71-8.77s-.05-.68-.41-.68-.44.15-.74,1.38c-.32,1.35-1.18,3.31-1.94,4.41-.59.85-2.73,2.87-3.42,3.25-.33.19-.62.44-.62.56h-.01Z" fill="#fff"/><path d="M47.29,23.64c-.43,0-.64-.08-.64-.24s-.29-.47-.67-.74c-1.44-1.07-1.94-1.65-3.32-3.89-.43-.71-.79-.63-.87.17-.05.66-.08.63-.99-1.21-.55-1.1-1.11-2.59-1.36-3.58-.28-1.1-.51-1.7-.67-1.7-.39,0-.24,1.53.28,3.14.95,2.86,2.53,5.62,4.27,7.46l1.27,1.35-.98-.12c-1.18-.16-1.16-.15-1.71-1.02-.48-.78-.78-.89-.92-.35-.05.2-.23.36-.39.36s-.39.09-.51.2c-.29.3-.94-.51-2.01-2.56-1.02-1.96-1.67-3.86-2.02-5.96-.17-1.01-.31-1.44-.49-1.44s-.27.3-.31,1.11c-.04.9.07,1.48.57,2.96.7,2.05.76,2.53.36,2.7-.16.07-.27.34-.27.71s.56,3.02,1,4.45c.36,1.19-1.72-1.31-2.57-3.08l-.55-1.17.43-.63c.84-1.26,1.22-3.41.79-4.63-.32-.94-.6-.55-.71,1.02-.08,1.13-.24,1.72-.66,2.58-.49,1.02-.53,1.19-.37,1.92.31,1.41,1.55,3.74,2.5,4.68.48.48.87.97.87,1.07s-.52.16-1.64.09c-1.78-.11-3.58-.68-4.35-1.41-.55-.52-1.04-.34-.86.34.25.93.2,1.21-.25,1.26-.37.05-.41,0-.31-.36.57-2.01.6-6.63.05-8.18l-.28-.79.82-.82c1.77-1.76,2.61-3.21,3.17-5.45.36-1.44.41-3.81.12-4.37-.4-.76-.62-.34-.66,1.33-.05,2.78-.86,5.03-2.59,7.35-1.44,1.93-2.13,2.55-2.13,1.96s-.12-.35-.27-.47c-.48-.4-.76.09-.88,1.57-.31,3.82-1.75,7.24-4.2,9.94-.49.55-.87,1.07-.82,1.15.09.15.92.07,2.47-.24.82-.16.91.17.23.8-.24.23-.44.52-.44.66,0,.32.12.3.72-.12.51-.36,1.59-1.82,1.59-2.15s.68-.56,1.11-.5c.36.05.36.07.07.36-.32.32-.25.67.13.67s.55-.36.95-.79c.51-.56.91-.83,1.39-.91.6-.11.71-.07,1.11.44.57.72,1.98,1.44,3.12,1.58,1.16.13,1.1-.19-.13-.72-.48-.21-.99-.47-1.12-.56-.47-.38-1.1-1.06-1.02-1.14.04-.04.49.03,1.02.16.53.13,1.99.23,3.32.23h2.37l.36.51c.37.54,1.1.98,1.98,1.23.62.17.87-.13.4-.5-1.63-1.19-1.68-1.48-.35-1.76,1.34-.28,1.26-.62-.15-.62s-1.15-.04-1.07-.27c.05-.15.32-.27.58-.27s.84-.13,1.3-.3l.82-.3.72.79c.88.95,2.13,1.61,3.26,1.72.9.08,1.43-.25.7-.44-1.15-.3-3.56-1.94-3.56-2.43s.78-.13,1.71-.09c1.67.05,1.72.07,2.18.62.25.31.55.68.66.86.21.35,2.93,1.37,3.68,1.37s.51-.09.51-.28c0-.3,1-.79,1.58-.79s.7.2,1.12.44c.92.51,2.19.76,2.37.47.07-.12-.07-.27-.33-.38-.4-.15-1.43-.8-1.7-1.07-.41-.42-1.31-.9-1.68-.9s-.44.08-.41.39c.04.34-.08.42-.76.55-1.07.2-2.54.05-3.1-.31-.44-.28-.71-.78-.72-1.34,0-.15-.2-.3-.43-.32-.36-.05-.4-.13-.29-.58.11-.5.09-.52-.52-.52h0ZM28.43,26.23c-.36,1.62-.44,1.8-.88,1.96-.27.09-.55.11-.62.04-.07-.07.04-.63.27-1.23.47-1.3.55-2.99.13-2.99s-.33.3-.45.76c-.51,1.99-.98,3.5-1.28,4.12-.25.51-.44.67-.78.67s-.56-.16-.28-.46c.45-.5,1.32-2.37,1.31-2.84,0-.3.21-1.06.49-1.7.59-1.35,1.2-3.47,1.35-4.69.12-1.05.52-1.14.68-.17.05.38.19,1.6.28,2.72.16,1.86.15,2.21-.21,3.84h-.01ZM40.13,25.6c-.15,0-.48.16-.72.36-.44.35-.86.4-1.52.23-.37-.09-.39-.21-.05-.64.2-.27.19-.42-.09-1.02-.31-.64-.87-2.66-.87-3.18,0-.34.35-.27.48.09.35.94,1.71,2.75,2.45,3.26.79.54.92.9.33.9Z" fill="#fff"/><path d="M23.26,25.96c-.12,0-.9.72-1.71,1.61-1.22,1.31-1.44,1.66-1.27,1.88.17.2.13.35-.16.74-.45.58-.47.89-.07,1.13.63.35,1.48-.98,1.11-1.69-.21-.39-.13-.51,1.06-1.77,1.22-1.29,1.55-1.88,1.04-1.88h0Z" fill="#fff"/><path d="M18.25,35c1.04-1.21,1.85-2.55,1.85-3.08s-.13-.51-.75.08c-.4.39-.49.42-.49.17,0-.59-.36-.28-1.14.93-.43.67-1.04,1.52-1.36,1.88-.63.71-.62.98.01.64.33-.17.43-.16.56.08.25.44.41.36,1.32-.7Z" fill="#fff"/><path d="M26.06,6.64c.21.17.36.16.76-.13.92-.66,2.07-1.15,2.98-1.3.49-.08,1.07-.2,1.27-.25.36-.12.36-.09.16,1.46-.37,2.8-.64,3.66-2.18,7.07-.74,1.61-.35,1.57.72-.09,1.35-2.09,2.03-4.09,2.22-6.52.08-1.05.05-1.54-.11-1.73-.12-.15-.17-.35-.11-.44.13-.21,1.46-.66,3.24-1.09l1.36-.32-.11.67c-.05.36.01,1.34.16,2.17.15.83.32,2.78.39,4.32.11,2.59.13,2.82.44,2.82s.41-.2.52-.5c.28-.72.05-6.02-.35-8.06-.24-1.18-.28-1.69-.13-1.73.11-.04.64-.24,1.18-.46s1.62-.6,2.39-.87c1.39-.48,1.94-.9,1.16-.9s-1.36.39-2.55.87c-1.24.5-2.62.93-3.24.99-1.48.17-2.94.55-4.81,1.25-.88.34-1.87.64-2.21.71-.75.13-2.75,1.11-3.14,1.53-.25.28-.25.34-.01.54h-.01Z" fill="#fff"/><path d="M12.68,79.25c.44,0,.49-.05.4-.4-.05-.23-.11-.58-.11-.8s-.11-.4-.27-.4c-.53,0-.7-.7-.44-2,.2-1.03.32-1.29.82-1.66,1.24-.95,3.04-3.74,2.83-4.39-.23-.71-.74-.39-1.34.83-.59,1.18-.83,1.53-1.91,2.74l-.59.64.11-.71c.09-.62.04-.79-.43-1.3-.33-.36-.63-.54-.82-.47-.36.15-.35.36.03.59.29.16.29.2,0,.78-.17.34-.31.89-.29,1.22,0,.34.04,1.26.05,2.04.04,1.61.16,1.94.68,1.78.32-.11.35-.05.24.51-.09.5-.05.66.21.82.19.11.56.19.84.2h-.03Z" fill="#fff"/><path d="M24.63,45.24c.37-.54.35-.8-.09-1.05-.76-.4-1.93.56-1.51,1.25.23.36,1.3.21,1.6-.21h0Z" fill="#fff"/><path d="M85.93,56.68c-.12-.27-.13-.52-.03-.68.15-.23.07-1.11-.13-1.45-.04-.07-.24-.03-.44.09-.32.2-.35.34-.24,1.35l.12,1.13-1.06,1.02c-.57.56-1.42,1.35-1.87,1.77l-.82.75-1.1-1.02c-1.44-1.35-1.47-1.78-.08-1.19,1.3.54,2.59.15,1.34-.4-.86-.38-1.91-1.41-2.37-2.31-.24-.47-.57-1.07-.75-1.34-.24-.36-.27-.58-.13-.94.19-.5.37-.56.86-.28.17.09.52.25.79.35.29.11.63.46.84.87.47.91,1.55,1.81,2.19,1.81s.63-.19.12-.64c-.64-.58-1.78-2.21-1.67-2.4.05-.09.31-.17.55-.17.56,0,.55-.24,0-.6-.56-.36-1.31-.38-1.71,0-.28.25-.33.23-.71-.28-.49-.68-.31-.94.72-.99.94-.04,1.03-.16.51-.6l-.43-.35.75-.12c.41-.07.71-.19.66-.28-.05-.08-.83-.54-1.72-.99-1.89-.98-3.02-2.04-3.82-3.57-.51-.97-1.03-2.35-1.22-3.22-.04-.19-.2-.79-.35-1.34-.15-.55-.32-1.61-.39-2.37-.07-.75-.2-1.37-.28-1.37s-.36.13-.6.3c-.43.28-.47.27-.91-.13-1-.91-1.68-1.73-2.41-2.84-.41-.64-.84-1.22-.94-1.3-.17-.13.23-.54.45-.44.05.03.64.64,1.31,1.38.67.74,1.59,1.57,2.05,1.86.45.3.86.59.88.67.03.08.21.15.39.15s.45.27.68.76c.7,1.48,1.27,1.77,1.27.64s.07-.52.31-.48c.23.04.35.31.43,1.05.07.54.2,1.21.31,1.48.23.62-.03.64-.31.04-.28-.63-.75-.58-.75.07s.63,2.71,1.11,3.69c.8,1.62,2.41,2.76,3.86,2.74.41,0,.78.01.8.05.03.04.27.75.55,1.58.27.83.64,1.68.82,1.88.17.2.4.89.52,1.52.28,1.56.7,2.51,1.11,2.51s.62-.74.36-1.39c-.11-.27-.28-.91-.4-1.42-.16-.71-.29-.94-.53-.94-.37,0-.55-.36-.43-.85.05-.19-.07-.82-.27-1.41-.55-1.64-.99-4.43-.75-4.86.13-.25.12-.62-.05-1.31-.39-1.54-.7-4.06-.57-4.9.05-.42.05-.82-.03-.89-.07-.07-.11-.58-.08-1.14.07-1.23-.24-2.9-1.12-6.2-.51-1.89-.64-2.68-.56-3.29.12-.84-.08-1.78-.66-3.07-.2-.44-.45-1.09-.59-1.44-.76-2.11-3.18-6.32-4.67-8.11-.24-.28-.78-1.21-1.2-2.05-.95-1.89-2.82-3.97-5.21-5.77-1.43-1.09-1.74-1.25-2.19-1.15-.29.05-.57.03-.63-.07s-.21-.17-.35-.17c-.83,0-.24,2.12.9,3.23.74.72.8.75,1.08.47.28-.28.28-.32-.07-.71-.32-.35-1.12-1.77-1.12-1.99s.82.21,1.58.94c.63.59.91,1.02.99,1.46.35,2.05.35,1.92-.03,1.9-.2,0-.57-.25-.83-.52-.25-.27-.6-.48-.78-.44-.52.09-.35.7.36,1.27.63.51.68.52.99.24.44-.4.51-.39.86.28.32.63.67,1.05,2.7,3.31.74.8,1.47,1.48,1.63,1.48.29,0,.72.98.72,1.66s1.34,1.53,1.97,1.76c.35.13.7.67,1.56,2.47.62,1.27,1.11,2.4,1.11,2.51s-.09.35-.21.54c-.17.27-.15.54.12,1.33.19.55.28,1.05.23,1.1-.11.11-1.04-.13-1.97-.52-.57-.24-.64-.58-.13-.71.74-.19.43-.59-1.42-1.82-.68-.46-1.3-.91-1.35-1.01s-.29-.12-.52-.07c-.33.08-.45,0-.66-.43-.16-.35-.64-.78-1.4-1.23-1.4-.84-2.19-1.84-3.04-3.82-.72-1.7-1-2.05-1.36-1.76-.13.11-.25.39-.25.62,0,.5.8,2.79,1.22,3.47.52.86,1.6,1.94,2.3,2.31.37.19,1.15.83,1.72,1.42.57.59,1.5,1.38,2.05,1.74.55.38,1.3.97,1.63,1.33.49.51.86.71,1.66.87.82.17,1.08.16,1.3,0,.36-.3.59-.04.74.82l.11.68-.76-.12c-.78-.12-3.57-1.25-4.79-1.92-2.86-1.6-6-5.22-8.02-9.23-.96-1.92-1-2.04-.7-2.28.31-.23.31-.25-.09-.38-.23-.07-.52-.28-.64-.46-.12-.17-.35-.28-.49-.23-.31.12-.37-.39-.08-.56.11-.07-.03-.35-.32-.7-.39-.44-.56-.91-.75-1.96-.13-.78-.32-1.37-.44-1.37-.44,0-.63.47-.63,1.56s-.07,1.13-.16,1.13c-.17,0-2.15-3.77-2.15-4.1s.35-.16,1.14-.08c.94.09,1.24.05,1.72-.21.37-.21.6-.27.66-.15.33.93,1.66,3.17,2.49,4.2.9,1.11,2.78,2.67,3.24,2.67s.33.43.55.94c.21.52.67,1.37,1.02,1.89.35.52.63.97.63.99s.33.43.76.9c1.74,1.94,5.94,4.06,5.43,2.74-.05-.13-.86-.7-1.78-1.25-1.14-.68-2.07-1.42-2.87-2.28-1.51-1.6-2.85-3.59-2.69-4,.07-.16.04-.3-.05-.3s-.35-.34-.57-.74c-.29-.52-.45-.67-.56-.5-.24.39-.87-.09-2.06-1.61-1-1.27-2.31-3.59-2.65-4.67-.28-.94-.86-1.97-1.08-1.97-.35,0-.49.79-.27,1.45.11.31.2.72.2.93,0,.32-.08.35-.94.23-1.32-.17-3.38-.76-4.47-1.3-.51-.24-1.28-.63-1.72-.83-.82-.4-2.25-1.7-3.05-2.78-.35-.47-.53-.58-.83-.48-.61.2-.63.62-.05,1.45.96,1.39,2.29,2.39,4.72,3.51.2.09.83.31,1.42.5.59.19,1.08.4,1.11.48.03.08-.07.31-.21.51-.25.34-.28.34-1.91-.08-3.02-.78-5.87-2.17-7.33-3.55-.88-.84-1.63-2.05-1.46-2.33.05-.08.44-.21.86-.28s1.22-.24,1.79-.38c.56-.15,1.48-.27,2.05-.27,1.19,0,1.64-.11,1.64-.38s-.86-.16-2.85-.08c-2.42.09-3.05.19-4.14.58-.75.27-1.82.48-2.54.52-.68.04-1.68.2-2.23.36-.53.16-1.24.36-1.58.44-.66.17-.86.31-.7.47.05.05.41.01.79-.09,1.06-.3,1.52-.23.78.12-1.75.8-2.5,1.19-2.5,1.33,0,.23.25.19,1.16-.21.45-.2,1.44-.56,2.19-.83.75-.25,1.6-.59,1.9-.75.56-.3,2.62-.78,2.74-.66.04.04-.07.23-.24.42-.29.32-.29.38.04,1.11.99,2.21,4.21,4.1,9.07,5.32.8.2,1.74.36,2.09.36.56,0,.64.07.84.67.64,1.97,2.02,3.82,3.29,4.41.35.16.9.42,1.22.56.44.2.66.46.8.97.28.94,1.58,3.43,2.69,5.14.96,1.49.98,2,.04,1.33-.99-.7-1.97-2-2.45-3.25-.47-1.19-.88-1.61-1.34-1.33-.28.17-.05,1.23.56,2.52.59,1.25,2.05,2.7,2.89,2.87.39.08.59.27.79.75.57,1.39,2.09,2.45,3.29,2.29.63-.08.68-.05.68.35,0,1.15,2.23,4.1,4.08,5.41.59.42,1.14.75,1.22.75s.39.51.66,1.11.79,1.42,1.14,1.78c.35.36.59.71.52.78-.21.21-.83-.13-1.28-.74-.45-.6-1.03-.8-1.26-.44-.17.28-1.98-1.42-2.98-2.8-1.74-2.39-2.13-3.06-2.66-4.59-.24-.7-.7-1.07-.83-.68-.12.35-.51.25-1.97-.48-1.6-.8-3.32-2.07-3.97-2.91-.63-.82-1.95-3.26-1.95-3.61s-.07-.3-.13-.3c-.17,0-1.08-2.71-1.26-3.74-.15-.87-.58-1.23-.58-.48,0,1.21-1.68.79-3.26-.8-.76-.78-.86-.8-1.24-.38-.27.3-.24.38.35,1.18.41.58.9.98,1.44,1.22.79.35,1.02.35,2.37.04.43-.09.45-.04.76,1.22.41,1.73.41,1.74-.27,1.74-1.48,0-4.45-2.07-5.63-3.9-.66-1.02-1.5-3.22-1.38-3.55.05-.15.37-.24.86-.24s.96-.13,1.2-.31l.44-.31-.71-.15c-.39-.08-.95-.19-1.24-.25-.29-.07-.64-.19-.76-.28-.27-.21-.29-1.06-.05-1.3s.04-.46-.82-.93c-.88-.48-1.31-.51-1.31-.11s-.13.44-.29.62c-.27.3-.24.34.44.64.71.31.92.63.55.86-.09.07-.92-.24-1.83-.67-1.94-.93-3.73-2.48-4.6-4.01-.72-1.27-1.15-1.48-1.31-.6-.09.46.17,1.11.79,1.99,1.34,1.9,3.16,3.19,5.66,4.04.78.25,1.44.5,1.47.54.04.04.13.44.23.93.09.48.24,1.03.36,1.23.12.23.13.5.04.64-.13.23-.28.23-1.16-.05-1.47-.47-2.11-.85-2.11-1.23s-.32-.62-.82-.36c-.37.2-.49.16-1.27-.5-2.13-1.78-3.89-4.55-4.52-7.07-.23-.91-.4-1.11-.75-.9-.12.08-.36.15-.53.16-.52.04-.59.23-.56,1.69.03,1.42.52,3.35,1.04,4.04.15.19.25.74.27,1.25,0,.9.49,2.79,1.26,4.79.21.58.35,1.09.29,1.14-.45.46-3.36-7.15-3.96-10.38-.28-1.53-.36-1.72-.56-1.44-.7.95.32,5.61,2.19,10.09.98,2.33,1.83,3.5,3.09,4.2.52.3,1.62,1.19,2.43,1.99.92.91,1.78,1.58,2.29,1.78.72.3.82.4.82.9,0,.7.33,1.06,1.2,1.3.67.19,1.47.24,1.47.11s.05-.2.11-.36c.08-.2-.04-.34-.44-.48-.71-.25-.71-.52,0-.52s.57.11.64.31c.11.42,1.2.91,2.3,1.05.48.07,1.1.23,1.36.36.27.13.98.24,1.56.24s1.31.12,1.66.3c.31.16.96.39,1.43.5.83.19.88.24,1.27,1.18.78,1.86,2.83,3.66,3.68,3.21.36-.2.33-.24-.71-1.18-1.35-1.21-1.44-1.58-.29-1.19.62.21.95.48,1.38,1.11.57.84,1.34,2.44,1.51,3.22.09.4.07.42-.51.31-1-.2-4.89-.62-7.82-.85-1.94-.15-3.64-.16-5.71-.05-2.89.16-2.97.17-4.31.83-1.3.63-1.93,1.22-2.17,2.01-.29.98-.48,3.84-.57,8.64-.2,10.94-.7,13.9-2.46,14.77-.8.39-2.82.46-3.98.13-.92-.25-1.81-.98-2.13-1.74-.45-1.07-.28-4.33.55-10.34.15-1.09.35-2.37.45-2.86.63-3.03,1.2-8.33,1-9.13-.17-.67-1.22-1.64-2.02-1.85-.4-.11-1.23-.16-1.86-.11-1.64.13-5.24.75-6.19,1.06-.45.15-1.62.44-2.61.64-3.62.76-4.31.93-5.62,1.34-1.82.56-3.53,1.23-3.74,1.45-.21.21-.07.28.17.51.35.32.43.31,2.9-.32,3.12-.8,6.36-1.45,8.96-1.81,1.08-.15,2.89-.4,4.01-.55,2.55-.36,3.52-.25,3.77.42.24.64-.07,4.1-.74,8.07-1.28,7.69-1.62,10.21-1.59,12.25,0,1.33.05,1.52.67,2.51.6.99.79,1.14,2.23,1.86,1.56.78,1.6.79,3.49.79,1.75,0,1.98-.04,2.91-.51,1.54-.78,2.14-1.52,2.77-3.39.68-2.03,1.06-5.53,1.19-11.17.13-5.75.41-9.66.72-10.14.4-.62,1-.94,2.15-1.13,1.32-.23,7.39-.23,9.16,0,.74.09,2.01.25,2.82.35.82.11,1.97.28,2.54.39.59.12,1.52.16,2.1.12.95-.08,1.07-.05,1.26.31.43.8,2.33,2.49,2.81,2.51.57,0,.7.24.91,1.8.48,3.57,1.95,6.51,4,8.05.32.24.51.59.59,1.07.09.66.07.74-.45,1.03-.31.17-.63.31-.71.31-.32,0-1.11-1.02-1.72-2.24-.64-1.27-1.07-1.88-1.32-1.88s-.37.72-.19.95c.21.25.05,1.06-.17.91-.08-.05-.16-.25-.16-.46s-.15-.66-.33-1.02c-.45-.9-.64-2.13-.39-2.44.16-.19.13-.89-.09-2.9-.36-3.27-.36-3.25-.78-2.78-.29.34-.32.74-.28,4.37.03,2.92.42,4.79,1.18,5.62.37.42.68.87.68,1.01s-.21.71-.47,1.29c-.45.99-.45,1.05-.15,1.27.64.47.95.25,1.31-.86.29-.94.88-1.01,1.71-.21.35.34.63.68.63.79,0,.43-1.16,2.44-1.67,2.88-.9.79-1.44.95-2.41.7-.45-.12-.92-.35-1.04-.52-.4-.56-.6-.75-.79-.75-.37,0-1.35,1.18-1.62,1.97-.51,1.48-.86,2.8-.86,3.27s-.07.66-.16.87c-.09.21-.45,1.7-.82,3.27-.36,1.57-.76,3.22-.9,3.66-.13.44-.45,1.69-.71,2.78-.55,2.39-.78,3.21-1.07,4.02-.12.35-.33.99-.45,1.44-.35,1.22-1.7,4.61-2.18,5.46-.11.2-.57,1.05-1.03,1.88-1.56,2.88-2.83,5.03-3.36,5.69-.47.59-1.46,1.46-3.28,2.91-1.3,1.03-5.11,2.55-7.54,3-2.37.44-7.11.05-9.53-.78-2.09-.72-4.81-2.27-7.13-4.02-2.94-2.23-5.11-4.48-7.37-7.63-2.03-2.84-4.02-9.09-5.09-16.07-.09-.59-.29-1.82-.45-2.76-.16-.94-.36-2.27-.45-2.95-.39-3.23-.57-4.12-.86-4.33-.43-.32-1.08-.27-1.6.13-.49.39-1.47.47-2.02.17-.45-.24-.84-1.03-1.31-2.64-.45-1.58-.84-1.94-1.36-1.3-.43.52-.43.86.03,2.54.2.74.37,1.53.4,1.77.04.59-.35.68-.48.12-.16-.66-.35-.56-.91.48-.72,1.34-1.58,2.64-1.74,2.64s-.11-.63-.07-1.39c.07-1.23.15-1.52.74-2.44.57-.9.64-1.14.55-1.73-.2-1.22.78-2.91,2.05-3.55.4-.2,1.18-.93,1.81-1.7.83-1.02,1.18-1.31,1.42-1.23.24.08.45-.11.87-.75,1.35-2.12,1.75-3.72,1.27-4.94-.17-.43-.12-.6.4-1.44,1.22-1.92,2.07-3.66,2.07-4.21,0-.87-.39-.68-1.03.5-.32.58-.68,1.09-.8,1.13-.28.09-.67-.3-.67-.66,0-.93-1.34.67-3.12,3.74-2.13,3.66-3.96,6.22-5.95,8.36-.35.36-.57.72-.51.79.15.15,2.61-2.29,3.76-3.74.82-1.01,1.85-2.7,3.22-5.23.7-1.29,1.79-2.59,2.17-2.59s.31.12.43.27c.17.21.12.43-.33,1.17-.59.97-.68,1.35-.33,1.48.17.05.17.35,0,1.37-.28,1.65-.56,2.17-1.77,3.35l-.98.95.12-.71c.13-.76-.05-.93-.47-.42-.13.16-.57.91-.96,1.65-.6,1.13-.8,1.35-1.16,1.35s-.53.2-.98,1.07c-.29.59-.74,1.39-.98,1.78-.24.39-.41.93-.4,1.18.03.35-.21.78-.86,1.56-.49.59-.9,1.21-.9,1.35,0,.35.2.36.52.07.2-.19.21-.16.11.13-.31.82-.29.94.07,1.03.44.12.48.66.13,1.68-.13.38-.29.99-.36,1.37l-.12.67h.72c.67,0,.75-.07,1.31-.94.33-.51.74-1.05.9-1.18.27-.21.29-.19.29.31s.04.56.09.56c.23,0,.98-1.03,1.28-1.74.17-.42.39-.76.45-.76.08,0,.35.19.59.42.4.38.43.48.28,1.11-.09.39-.31,1.09-.49,1.56-.25.66-.28.9-.11,1.06.17.16.28.15.53-.08.41-.38,1.11-1.76,1.11-2.21s.33-.78.88-.78c.25,0,.68-.12.96-.27q.64-.34.64.05c0,.39-.23.48-.49.7-.32.24-.6.71-.8,1.34-.43,1.38-1.44,2.98-2.89,4.53-1.26,1.35-1.71,1.6-2.02,1.06-.21-.39.33-2.15.96-3.1.53-.8.45-1.21-.09-.51-.28.36-.49.43-1.12.42-1.07-.04-1.03-.03-1.22-.52-.21-.56-.45-.56-.82,0-.27.42-.27.48,0,.89.16.25.49.46.78.5.55.07.57.21.23,1.57-.25,1.01-.03,1.62.72,1.96.51.23.56.2,1-.27.32-.35.66-.51,1.06-.52.33,0,.59.03.59.08-.01.25-.9,1.09-1.15,1.09s-.32.13-.37.31c-.05.17-.21.54-.35.82-.32.62-.33.87-.04.8.12-.03.48.13.79.35.9.64,1.19.39,1.08-.89-.05-.58-.03-1.05.05-1.05s.45-.43.83-.95c.37-.52,1.06-1.46,1.54-2.09.74-.97.84-1.22.75-1.7-.08-.4.04-.87.37-1.62.38-.86.65-1.18.79-.97.09.15.16.95.15,1.78-.01.83.03,1.81.11,2.16.11.54.03.86-.51,1.93-.8,1.64-1.2,2.21-2.31,3.37-.62.64-.84.99-.72,1.13.45.46,2.45-1.31,3.65-3.22.27-.42.44,0,.68,1.62.21,1.37.2,1.45-.15,1.73-.2.17-.62.99-.91,1.82-1.08,3.04-1.23,3.46-1.23,3.54s.2-.09.44-.32c.49-.47,2.06-3.49,2.06-3.98s.52-.32.61.36c.05.38.21,1.01.35,1.41.23.67.21.79-.09,1.3-.19.31-.43,1.14-.53,1.84-.24,1.54-1.08,3.98-1.55,4.51-.39.44-.6,1.14-.39,1.27.36.23,2.33-3.18,2.71-4.71.13-.52.32-.97.41-.98.09-.01.27.32.4.76.13.44.4,1.22.59,1.73.25.66.31,1.02.19,1.25-.09.17-.25.72-.36,1.22-.11.5-.4,1.37-.66,1.94-.4.91-.51,1.03-.86.94-.21-.05-.49-.11-.62-.11-.39,0-.24-.32.47-1.06,1.07-1.1,1.91-3.77,1.18-3.77s-.72.62-.96,1.52c-.11.39-.47,1.13-.82,1.65-.52.76-.71.93-1.11.9-1.24-.09-.27,1.48,1.03,1.65l.79.11.09.98c.11,1.14.23,1.39.82,1.61,1.07.4,2.07-.4,1.07-.86-.24-.11-.48-.36-.55-.56-.07-.2-.32-.47-.56-.6l-.44-.23.56-.71c.67-.84,1.43-2.29,1.58-3.02.17-.82.43-.72.94.39.27.56.64,1.23.86,1.48.29.36.33.55.2.98-.09.3-.25.87-.36,1.27-.11.4-.63,1.3-1.16,2-.71.91-.91,1.3-.76,1.45.15.15.27.2.36.2s.39.24.66.54c.51.55,1.39.72,1.94.38.31-.2.13-.7-.29-.85-.87-.28-1.3-.48-1.3-.62s.31-.59.68-1.11c.37-.54.79-1.3.92-1.72.25-.78.6-.9.96-.32.15.23.13.39-.03.63-.68.94-1.26,2.72-.9,2.72.33,0,1.03-1.11,1.15-1.85.13-.79.36-.82,1.03-.12l.49.52-.64,1.37c-.56,1.19-.7,1.35-1.03,1.25-.45-.15-.68.16-.68.93,0,.89.16,1.11,1.06,1.58.47.24.99.66,1.16.93.45.7.68.9,1.52,1.38.68.39.79.4,1.6.19.41-.11.76-.19.86-.2v-.09c0-.05,0-.13.03-.2-.03-.05-.07-.13-.08-.16h0c-.09-.03-.17-.08-.24-.13h-.12c-.24,0-.56.05-.71.11-.48.19-.51-.39-.04-.9.23-.25.51-.68.64-.99.03-.11.07-.2.12-.28.08-.16.12-.2.16-.16.24-.17.59-.21.9-.2.21,0,.44.04.66.11.08.03.19.09.29.17.03,0,.05,0,.08.01.08.03.16.07.24.09.03,0,.04.03.07.04.11.03.21.07.31.12.07.03.12.07.17.12.33.2,1.3.72,2.35,1.27,2.15,1.13,3.41,1.54,5.44,1.81.49.07,1.14.16,1.43.2,1.58.24,3.97.19,5.33-.12,1.91-.43,4.52-1.19,5.16-1.52.28-.15.56-.25.63-.25s0,.01.01.04c.88-.43,1.63-1.07,2.57-1.39,0,0,.03-.01.04-.03.23-.15.44-.24.47-.21.03.03.15.3.25.56.15.35.17.47,0,.56-.07.17-.2.32-.41.4-.16.05-.32.12-.48.2-.13.19-.03.21.6.21s1.02-.15,1.63-.54c.45-.3.84-.6.84-.68s.28-.25.63-.38c.36-.13,1.02-.67,1.55-1.29.51-.59.99-1.06,1.07-1.06.2,0,2.03-1.52,2.95-2.44,1.3-1.3,3.41-5.96,2.7-5.96s-.59.39-1.08,1.31c-.2.38-.41.63-.48.56-.07-.07-.25-.5-.4-.95-.29-.87-.75-1.17-.95-.64-.15.38.35,1.93.71,2.23.35.3.33.42-.21,1.27l-.47.75-.32-.62c-.17-.34-.41-1.05-.52-1.57l-.2-.95.95-1.86c.52-1.02,1.03-1.86,1.12-1.86.11,0,.35.27.55.58.32.51.45.58,1.11.54.96-.04,1.52-.48,1.97-1.52.29-.7.51-.91,1.31-1.31,1.31-.67,2.95-2.55,2.47-2.84-.27-.17-.82.2-1.42.97-.51.64-2.13,1.99-2.39,1.99s-.27-.32-.47-.71c-.28-.55-.47-.71-.8-.71s-.44.09-.44.31c0,.34.64,1.49.94,1.68.12.08.11.3-.04.67-.47,1.14-1.06,1.14-1.51,0-.44-1.1-.35-2.11.43-4.4.39-1.17.71-2.28.71-2.49,0-.51.17-.95.37-.95s.16.19.16.43.16.98.36,1.65c.4,1.35,1.12,2.21,1.86,2.21s.72-.34.11-.97c-.79-.82-1.22-2.09-1.46-4.39-.23-2.19-.01-4.53.45-5.02.47-.48.28-.36.71,1.76.16.83.49,1.96.74,2.51.49,1.11,1.58,2.35,2.06,2.35s.4-.05-.12-.9c-.24-.39-.44-.75-.44-.8s-.32-.8-.71-1.68c-.44-.97-.82-2.2-.99-3.15-.15-.86-.37-1.77-.51-2.03-.24-.5-.15-1.54.13-1.54s.27.34.4.74c.13.4.4.9.6,1.11.4.43.98.34.78-.12-.71-1.61-.84-2.33-.86-4.33,0-1.52.05-2.16.23-2.37.32-.39.43-.38.95.15.43.43.47.44,1.08.17.91-.38.99-.35,1.31.4.37.9.75,1.3,1.23,1.3s.43.13.51.46c.32,1.3,1.87,2.87,3,3.06.92.15.87.58-.17,1.42-.47.38-.95.83-1.08,1.01-.36.48-.83.38-1.16-.27-.17-.32-.56-.97-.87-1.44-.31-.47-.82-1.6-1.14-2.51-.44-1.29-.64-1.65-.91-1.65s-.35.16-.39.84c-.08,1.15.33,2.43,1.18,3.66.8,1.18,1.28,1.66,2.17,2.16.78.43.79.89.13,3.08-.25.83-.48,1.72-.52,1.96-.04.27-.35.64-.84.99-.96.67-1.11.99-.47.99,1.3,0,2.75-1.41,2.54-2.45-.07-.32.12-1.11.52-2.25.43-1.21.59-1.92.51-2.27-.09-.44,0-.6.79-1.27.49-.42.9-.9.9-1.07,0-.79,2.47-3.92,4.39-5.54,1.03-.87,1.44-1.64,1.2-2.19l.24-.04ZM73.75,13.65c0,.08-.07.15-.15.15-.17,0-2.95-3.03-2.86-3.1.04-.03.39-.13.76-.25.79-.23,1.16-.05,1.16.51s.24.83.53,1.44c.29.6.53,1.18.53,1.26h.01ZM81.9,45.37c-.15.38-.45.34-1.27-.2-.71-.46-1.74-1.65-1.98-2.29-.11-.28-.01-.27.66.15.43.27,1.16.66,1.63.86.86.38,1.19.89.96,1.48h0ZM76.43,30.46c-1-.66-3.38-3.18-3.38-3.61s.33-.2,2.15.67c1.64.78,2.03,1.13,1.58,1.41-.23.15-.05.78.36,1.25.17.2.36.46.44.58.21.39-.32.25-1.15-.3ZM78.65,30.98c.29-.34.28-.38-.33-1.19-.35-.47-.64-.9-.64-.98s.32-.19.72-.24c.4-.07.76-.23.82-.38.05-.15.17-.23.25-.17.19.12,1.06,2.96,1.06,3.46s-.11.43-1.24.09c-.44-.12-.83-.24-.87-.24s.07-.17.24-.36h0ZM78.57,32.99c0-.3.21-.34,1.32-.27.9.05.99.09,1.16.6.11.29.19.86.19,1.22s-.07.72-.15.76c-.19.11-2.53-2.05-2.53-2.33h0ZM81.23,37.81c0,1.15-.19,1.34-.49.48-.25-.72-.25-1.7,0-1.86.32-.2.48.27.49,1.38ZM78.45,36.79c.82.17,1.02.4,1.02,1.07s.64,1.84,1.22,1.97c.25.05.56.13.66.16.23.07.71,2.84.53,3.13-.07.11-.23.19-.35.19-.27,0-1.4-.87-1.91-1.46-.61-.71-1.64-3.02-1.66-3.72,0-.38-.12-.8-.24-.95-.31-.38,0-.54.74-.39ZM77.94,41.29c.25.3.45.67.45.83,0,.28-.44.4-.59.15-.04-.07-.13-.46-.2-.83l-.12-.7.45.55ZM75.89,35.92c.24-.24.79.05.87.48.08.38-.39.38-.78,0-.21-.21-.24-.35-.09-.48ZM58.22,24.52c-.75.25-.87.24-1.43-.2-.45-.35-.51-.36-.92-.09-.47.31-.37.34-2.17-.66-.29-.16-.74-.3-.99-.3-1.32,0-3.61-1.03-4.88-2.17l-.86-.78.57-.43c.47-.35.64-.39.91-.23.4.25.99.27,1.14.01.07-.11-.15-.48-.48-.86-.32-.36-.87-1.05-1.22-1.5-.35-.46-.74-.86-.88-.89-.13-.03-.62-.89-1.07-1.92-.75-1.72-1.26-2.41-1.54-2.13-.29.3.87,3.1,1.63,3.9.23.25.7,1.02,1.04,1.7.68,1.37.6,1.53-.51,1.17-.98-.32-1.98-2.04-3.24-5.5-.68-1.89-.8-2.37-.66-2.76.13-.36.09-.71-.13-1.44-.44-1.34-.62-2.17-.41-2.05.09.05.57.76,1.07,1.58,1.12,1.82,2.83,3.63,4.21,4.45,1.02.59,1.06.66,1.6,2.13,1.11,2.96,2.63,4.95,4.61,5.98.71.38,1.51.85,1.76,1.06.27.21.64.51.86.67.21.16.86.39,1.44.51.59.12,1.06.28,1.06.36s-.25.23-.56.34l.03.03ZM60.41,25.05c-.64.01-.63.07-.35-1.25.04-.17-.12-.27-.48-.31-.29-.03-.9-.17-1.34-.32-.44-.15-.92-.32-1.07-.36-.23-.08-.23-.11,0-.25.15-.09.43-.17.64-.17.41,0,.96-.52.96-.91s-.36-.25-1.74-.25-1.82-.04-2.67-.52c-.92-.51-2.33-1.82-3.12-2.9-.55-.75-1.47-2.72-1.34-2.86.05-.05.55-.01,1.1.09.53.11,1.26.15,1.58.09.55-.11.62-.05.88.48.48,1.01,1.59,2.13,2.95,3.02,1.63,1.07,2.77,1.46,4.1,1.4l1.03-.05.83,1.6c.45.89.84,1.7.84,1.82.04.62-1.7-.24-2.74-1.37-.49-.54-.96-.7-1.23-.44-.07.07.09.51.36.99.39.71.67.97,1.43,1.33,1,.47,1.12.78.39.98-.24.07-.71.13-1.03.13v.04ZM66.36,27.94c-.2.32-.52.19-1.97-.79-1.08-.74-1.58-.98-2.09-.98-.36,0-.7-.07-.75-.15-.16-.25,1.32-1.25,2.05-1.38.91-.16,1.23.09,1.11.89-.09.55-.04.63.72,1.07.79.47,1.15.98.92,1.34ZM68.4,30.2c-.55-.15-.43-.43.17-.43s.59-.05.67-.13c.19-.19-.48-.64-.98-.64-.9,0-1.51-1.42-.86-1.97.21-.17.49-.11,1.51.38,1.07.52,1.27.7,1.52,1.31.16.39.56,1.11.91,1.61.35.5.91,1.31,1.24,1.82.33.51.95,1.25,1.35,1.64.56.54.7.79.62,1.07-.21.67-.8.4-1.07-.47-.07-.23-.19-.4-.27-.4s-.53-.35-1-.76c-.67-.59-1-.76-1.5-.76s-.64-.08-.64-.28c0-.15-.31-.58-.67-.94-.36-.36-.67-.74-.67-.82s-.16-.19-.36-.24v.03ZM27.82,91.86c-.07.76-.24,1.48-.45,1.84-.67,1.11-.86.59-.31-.79.33-.82.07-.94-.52-.24-.52.63-.98.66-1.55.08-.57-.58-.33-.66.27-1.34.29-.34.63-.87.75-1.18.12-.31.28-.58.36-.58s.45.23.84.5l.71.5-.11,1.25v-.03ZM57.12,93.89c-.6.27-.51.3-.9-.24-.41-.58-.33-.78.71-1.61.47-.38.99-.85,1.15-1.03.37-.44.76-.23.61.35-.07.28-.03.47.13.52.13.05.24.21.24.36,0,.31-1.22,1.33-1.95,1.65ZM62.79,88.75c-.12.38-.13.36-.45-.16-.37-.62-.55-.68-.88-.28-.19.23-.17.4.09.97.17.39.25.78.2.89-.07.11-.47.44-.91.74l-.79.54-.27-.54c-.37-.74-.35-1.33.11-1.73.21-.19.66-.93,1-1.64s.71-1.3.83-1.3.31.34.44.76c.13.43.36.9.51,1.06.17.19.23.44.15.68h-.03ZM75.54,58.96c-.11.07-.17-.09-.17-.36s.08-.42.17-.36c.09.07.17.23.17.36s-.08.3-.17.36ZM80.71,62c-.48.78-.67.82-1.51.34-1.08-.62-1.55-1.26-2.39-3.25l-.76-1.82.75-.9c.41-.5.8-.9.88-.9s.27.28.43.63c.28.58.28.67.01,1.07-.82,1.26.98,4.02,2.61,4.02s.44.08,0,.8h-.01Z" fill="#fff"/><path d="M21.02,84.76c-.39-.39-1.11.56-1.38,1.81l-.13.62.43-.28c.59-.39,1.35-1.89,1.08-2.15Z" fill="#fff"/><path d="M46.57,72.08c.82-.39.9-.48.9-1.05s0-.62-.8-.6c-.44,0-1.26.08-1.82.16-1.68.23-4.21-.34-5.79-1.29-.71-.43-1.47-.84-1.7-.93-.52-.19-1.16.09-1.32.58-.25.79,2.7,2.64,5.28,3.33,1.83.48,4.01.4,5.25-.2Z" fill="#fff"/><path d="M10.95,46.79c.43-.3,2.1-2.76,2.71-4,.27-.52.33-.85.21-.97-.33-.34-.68,0-1.63,1.6-.52.87-1.2,1.96-1.54,2.43-.33.47-.6.93-.6,1.03,0,.27.4.21.84-.09Z" fill="#fff"/><path d="M11.9,50.11c-.21.12-.35.32-.29.44.05.12.15.83.21,1.56.07.72.16,1.38.21,1.46.04.08.25.12.47.09.36-.05.39-.13.32-1.66-.07-1.81-.27-2.23-.92-1.88h0Z" fill="#fff"/><path d="M81.01,48.03c.24.24.59.11.59-.24s-.12-.36-.36-.36c-.35,0-.48.35-.24.59h.01Z"/><path d="M63.48,44.69c.39-.54.31-.89-.31-1.27-.75-.47-1.87.98-1.24,1.61.4.4,1.12.24,1.55-.34Z" fill="#fff"/><path d="M57.67,13.09c.86.75.92.78,1.38.6.41-.16.36-.35-.44-1.37-.4-.51-.92-1.31-1.16-1.8-.24-.48-.56-.91-.7-.97-.33-.13-.79.24-.79.64,0,.6.95,2.17,1.74,2.87h-.03Z" fill="#fff"/><path d="M5.78,52.61c.45,0,2.02-1.74,2.02-2.25s-.41-.54-1.23.24c-.39.38-1,.9-1.35,1.19-.36.28-.84.78-1.1,1.1-.43.56-.43.59-.12.95.17.2.36.38.4.38.24,0,1.08-1.01,1.08-1.29s.13-.32.31-.32h-.01Z" fill="#fff"/><path d="M47.81,6.85c.29.19.7.32.9.3.67-.09.44-.58-.64-1.37-.99-.72-1.1-.76-1.36-.5-.27.27-.25.32.15.76.24.25.68.63.98.82h-.01Z" fill="#fff"/><path d="M71.93,73.98c-1.02-.83-1.11-.91-1.7-1.58-.59-.66-.99-.71-1.19-.17-.16.43.95,1.96,1.78,2.47.75.46.95.51,1.42.34.44-.17.33-.54-.29-1.05h-.01Z" fill="#fff"/><path d="M73,75.26c-.27.48-.48.98-.49,1.1,0,.4.67.24,1.06-.24.4-.51.82-1.82.64-2-.21-.21-.72.27-1.2,1.14Z" fill="#fff"/><path d="M16.24,75.64c-.35.2-2.39,3.47-2.27,3.66.24.4,1.14-.4,1.93-1.73.67-1.14.87-2.21.35-1.93Z" fill="#fff"/><path d="M13.73,81.22c-.12,0-.33-.16-.45-.36-.27-.43-1.2-.5-1.2-.08s.11.32.25.38c.13.05.29.35.36.66.07.31.24.71.41.9.29.32,1,.32,1.34-.01.19-.19-.43-1.46-.7-1.46h-.01Z" fill="#fff"/><path d="M75.74,67.92c-1.16-1.53-2.47-4.49-2.98-6.71-.39-1.72-.43-1.81-.74-1.81s-.21,1.74.45,4.05c.84,2.92,1.81,4.65,3.02,5.45,1.11.71,1.22.3.24-.99h0Z" fill="#fff"/><path d="M51.36,20.42c-.11,0-.31-.12-.43-.27-.28-.35-.71-.35-.71,0s1,1.48,1.78,1.99c.67.44,1.43.56,1.43.24s-1.81-1.93-2.07-1.94h0Z" fill="#fff"/><path d="M55.86,19.97c-1.36-.63-2.65-1.84-3.04-2.87-.33-.89-.75-.98-.66-.15.13,1.18,1.42,2.74,2.95,3.54,1.02.54,1,.54,1.46.21.32-.24.27-.28-.71-.74h-.01Z" fill="#fff"/><path d="M71.28,67.19c-.47.46.99,3.51,2.07,4.37.41.34.49.35.63.11.11-.2-.13-.79-.82-2.03-1.22-2.16-1.62-2.71-1.89-2.45Z" fill="#fff"/></svg>