<?xml version="1.0" standalone="no"?>
<!DOCTYPE svg PUBLIC "-//W3C//DTD SVG 20010904//EN"
 "http://www.w3.org/TR/2001/REC-SVG-20010904/DTD/svg10.dtd">
<svg version="1.0" xmlns="http://www.w3.org/2000/svg"
 width="904.000000pt" height="904.000000pt" viewBox="0 0 904.000000 904.000000"
 preserveAspectRatio="xMidYMid meet">
<metadata>
Created by potrace 1.14, written by Peter Selinger 2001-2017
</metadata>
<g transform="translate(0.000000,904.000000) scale(0.100000,-0.100000)"
fill="#000000" stroke="none">
<path d="M8030 7628 c-258 -37 -605 -256 -687 -435 -52 -112 -30 -242 55 -328
37 -38 122 -85 155 -85 9 0 17 -7 17 -16 0 -16 -119 -314 -144 -361 -13 -23
-15 -25 -16 -8 0 37 -58 143 -100 184 -23 22 -67 52 -97 66 -54 26 -165 54
-211 55 -13 0 -42 15 -65 34 -134 110 -253 126 -525 72 -252 -51 -357 -114
-476 -288 -39 -57 -56 -75 -56 -60 0 12 -10 47 -22 79 -44 119 -197 235 -368
278 -36 9 -99 32 -140 52 -201 96 -368 125 -510 88 -140 -35 -294 -132 -493
-310 l-96 -85 -65 41 c-72 45 -168 79 -224 79 -22 0 -52 11 -81 29 -164 105
-330 125 -538 65 -208 -60 -395 -176 -633 -395 -63 -58 -134 -118 -157 -132
-163 -103 -832 -310 -1265 -392 l-137 -26 -63 22 c-46 15 -77 20 -116 16 -51
-5 -55 -4 -82 27 -51 57 -124 89 -216 94 -126 7 -228 -30 -400 -144 -139 -92
-226 -208 -259 -345 -19 -84 -19 -258 0 -334 50 -191 234 -363 412 -384 44 -5
74 -16 114 -43 68 -45 107 -61 200 -83 141 -33 612 -16 867 31 46 9 86 13 88
11 11 -11 -524 -1237 -649 -1487 l-62 -125 -51 -11 c-142 -30 -273 -169 -409
-435 -120 -234 -168 -394 -169 -559 -1 -171 54 -303 170 -411 86 -79 231 -149
312 -149 26 0 51 -10 87 -36 102 -72 125 -79 275 -78 126 0 141 2 230 33 274
94 451 291 686 766 135 275 238 514 469 1095 265 667 652 1555 842 1933 l54
108 62 -56 c34 -31 98 -74 142 -96 44 -22 80 -43 80 -47 0 -4 -55 -113 -122
-242 -394 -762 -609 -1349 -664 -1814 -7 -56 -9 -167 -7 -260 4 -141 8 -171
32 -241 53 -155 145 -269 289 -359 97 -60 218 -114 277 -121 25 -4 65 -17 90
-30 183 -94 379 -114 532 -54 185 72 428 273 696 574 64 72 118 132 120 135 2
3 13 -9 25 -25 105 -146 295 -271 430 -282 34 -3 69 -11 77 -18 33 -28 140
-75 206 -91 301 -71 659 121 1096 587 837 893 1738 2361 2071 3374 103 313
122 414 122 665 0 203 0 205 -28 264 -39 84 -86 137 -172 194 -82 56 -161 89
-248 104 -34 6 -83 25 -115 44 -134 81 -271 107 -442 82z m585 -413 c62 -27
122 -75 139 -110 23 -48 21 -243 -3 -387 -164 -953 -1411 -3021 -2310 -3832
-304 -274 -522 -364 -696 -287 -49 22 -149 111 -170 151 -31 61 -45 381 -25
565 23 204 76 439 154 681 50 156 60 217 36 221 -17 4 -28 -13 -131 -187 -106
-179 -327 -509 -466 -695 -418 -558 -770 -921 -1007 -1040 -58 -30 -79 -35
-136 -35 -176 0 -351 117 -406 272 -66 184 -16 563 130 1002 161 480 398 988
735 1571 224 389 262 465 230 465 -15 0 -99 -60 -171 -122 -151 -130 -306
-180 -403 -130 -47 24 -105 83 -131 132 -12 23 -18 57 -19 100 0 82 35 159
100 219 45 42 71 49 105 31 46 -25 130 35 480 341 448 392 501 429 620 429
132 0 266 -44 316 -103 21 -26 25 -37 20 -69 -10 -64 -72 -192 -590 -1223
-606 -1206 -721 -1459 -835 -1842 -43 -144 -91 -346 -91 -382 0 -6 11 -16 24
-22 37 -17 79 14 190 145 354 416 1374 1885 1987 2861 276 441 266 430 469
470 184 36 300 30 357 -19 22 -19 25 -27 19 -59 -4 -21 -42 -106 -85 -190
-388 -756 -447 -888 -638 -1437 -181 -519 -356 -1202 -340 -1323 7 -54 32 -87
65 -87 77 0 527 547 868 1055 410 611 718 1181 1026 1895 117 273 158 401 158
498 0 88 -22 177 -46 186 -9 4 -63 3 -120 0 -91 -6 -104 -5 -110 10 -9 23 18
59 82 109 111 88 262 167 359 187 62 14 214 5 260 -15z m-4598 -830 c68 -34
140 -111 149 -161 31 -167 -190 -360 -603 -527 -138 -56 -237 -105 -263 -129
-71 -67 -628 -1314 -965 -2162 -527 -1329 -713 -1641 -1021 -1720 -73 -19
-166 -21 -197 -4 -87 46 -154 134 -164 216 -15 129 64 370 194 592 97 163 178
230 203 165 11 -29 53 -43 76 -24 74 61 262 458 737 1559 285 660 399 917 438
989 73 135 23 134 -337 -7 -442 -173 -637 -224 -969 -252 -161 -13 -431 -13
-497 1 -142 30 -187 93 -195 270 -5 103 -4 109 23 159 16 29 53 74 83 101 60
53 181 120 250 139 39 10 47 10 57 -5 13 -17 3 -67 -17 -90 -14 -15 -10 -41 9
-58 38 -34 117 -40 283 -23 414 45 869 149 1309 300 330 114 443 175 605 327
177 167 299 254 432 309 151 63 296 76 380 35z"/>
</g>
</svg>
